if (_typeface_js && _typeface_js.loadFace) _typeface_js.loadFace({"glyphs":{"0":{"ha":1669,"x_min":139,"x_max":1550,"o":"m 533 0 q 380 31 451 0 q 255 116 308 63 q 170 241 201 169 q 139 394 139 313 l 139 571 q 170 724 139 651 q 255 849 201 796 q 380 934 308 903 q 533 965 451 965 l 1154 965 q 1308 934 1236 965 q 1434 849 1381 903 q 1519 724 1488 796 q 1550 571 1550 651 l 1550 394 q 1519 241 1550 313 q 1434 116 1488 169 q 1308 31 1381 63 q 1154 0 1236 0 l 533 0 m 244 571 l 244 394 q 267 283 244 335 q 330 191 290 231 q 422 128 369 151 q 533 106 474 106 l 1154 106 q 1267 128 1214 106 q 1359 191 1319 151 q 1422 283 1399 231 q 1444 394 1444 335 l 1444 571 q 1422 683 1444 631 q 1359 774 1399 735 q 1267 837 1319 814 q 1154 860 1214 860 l 533 860 q 422 837 474 860 q 330 774 369 814 q 267 683 290 735 q 244 571 244 631 z "},"1":{"ha":586,"x_min":89,"x_max":417,"o":"m 313 0 l 313 783 q 285 835 308 817 q 228 857 261 854 l 89 857 l 89 963 l 233 963 q 301 947 268 963 q 358 908 333 932 q 399 853 383 885 q 417 792 415 822 l 417 0 l 313 0 z "},"2":{"ha":1575,"x_min":138,"x_max":1496,"o":"m 138 0 l 138 229 q 154 309 138 272 q 200 374 171 346 q 267 422 229 403 q 347 449 306 442 q 597 488 460 467 q 869 530 733 510 q 1123 567 1004 550 q 1318 596 1242 585 q 1348 604 1333 599 q 1374 622 1363 610 q 1385 644 1381 629 l 1385 782 q 1343 840 1374 825 q 1263 857 1313 856 l 363 857 q 321 851 346 857 q 281 835 296 846 q 254 803 261 819 q 246 754 247 786 l 246 631 l 140 631 l 140 768 q 158 847 140 811 q 206 908 176 882 q 274 948 236 933 q 350 963 311 963 l 1263 963 q 1343 951 1303 963 q 1415 917 1383 939 q 1468 861 1447 894 q 1490 786 1489 828 l 1490 635 q 1474 571 1490 597 q 1431 527 1457 544 q 1372 499 1404 510 q 1306 485 1339 489 q 1077 452 1201 469 q 826 416 953 435 q 581 378 700 397 q 368 343 461 360 q 322 328 344 339 q 283 303 300 318 q 254 270 265 289 q 243 232 243 251 l 243 106 l 1496 106 l 1496 0 l 138 0 z "},"3":{"ha":1586,"x_min":139,"x_max":1489,"o":"m 1443 481 q 1481 436 1474 461 q 1489 382 1489 411 l 1489 176 q 1475 123 1486 150 q 1440 68 1464 96 q 1362 15 1406 31 q 1261 0 1318 0 l 371 0 q 338 2 357 0 q 297 9 318 4 q 256 22 276 14 q 218 42 235 29 q 139 208 139 100 l 139 261 l 244 261 l 244 208 q 251 162 246 179 q 276 129 257 144 q 314 111 293 115 q 354 106 335 107 l 1261 106 q 1308 110 1289 106 q 1339 121 1326 114 q 1369 144 1356 131 q 1383 182 1383 158 l 1383 381 q 1363 418 1383 408 q 1319 428 1342 428 l 326 428 l 326 535 l 1321 535 q 1361 547 1339 535 q 1383 582 1383 558 l 1383 776 q 1342 835 1375 814 q 1271 857 1308 857 l 356 857 q 316 851 338 857 q 279 835 294 846 q 251 799 258 819 q 244 754 244 779 l 244 701 l 139 701 l 139 760 q 158 850 139 808 q 213 919 176 892 q 288 953 244 943 q 371 963 331 963 l 1263 963 q 1345 947 1306 961 q 1415 910 1385 933 q 1465 855 1446 886 q 1489 788 1485 824 l 1489 569 q 1484 538 1488 550 q 1475 517 1481 526 q 1461 500 1469 508 q 1443 481 1453 492 z "},"4":{"ha":1536,"x_min":138,"x_max":1422,"o":"m 1422 963 l 1422 1 l 1317 1 l 1317 358 l 190 358 q 140 390 154 358 q 138 408 138 396 q 153 447 138 432 l 676 963 l 824 963 l 317 464 l 1317 464 l 1317 963 l 1422 963 z "},"5":{"ha":1597,"x_min":139,"x_max":1489,"o":"m 1489 179 q 1460 89 1485 128 q 1392 28 1438 56 q 1261 0 1346 0 l 371 0 q 353 1 371 0 q 310 9 336 3 q 255 28 285 15 q 199 65 225 42 q 156 125 174 89 q 139 214 139 161 l 139 317 l 244 317 l 244 214 q 263 155 244 176 q 306 122 282 133 q 368 106 332 108 l 1261 106 q 1302 110 1281 106 q 1342 124 1324 114 q 1372 148 1360 133 q 1383 183 1383 163 l 1383 422 q 1382 442 1383 429 q 1374 467 1381 454 q 1356 488 1368 479 q 1322 497 1343 497 l 318 497 q 228 529 267 503 q 167 597 194 551 q 139 725 139 643 l 139 963 l 1488 963 l 1488 857 l 244 857 l 244 725 q 256 659 244 683 q 281 622 267 635 q 307 606 294 610 q 322 603 319 603 l 1324 603 q 1406 581 1369 600 q 1463 527 1438 564 q 1489 422 1489 490 l 1489 179 z "},"6":{"ha":1621,"x_min":139,"x_max":1489,"o":"m 139 786 q 153 840 142 813 q 188 894 164 867 q 266 947 222 932 q 367 963 310 963 l 1275 963 q 1342 953 1307 963 q 1410 922 1378 943 q 1489 754 1489 861 l 1489 701 l 1383 701 l 1383 754 q 1377 797 1383 776 q 1351 833 1371 818 q 1313 852 1335 847 q 1268 857 1290 857 l 367 857 q 320 853 339 857 q 290 842 301 849 q 244 781 249 821 l 244 536 q 261 542 253 539 q 278 547 269 544 q 291 549 285 549 q 304 550 297 550 l 1325 550 q 1355 545 1329 550 q 1410 524 1381 540 q 1465 473 1440 507 q 1489 381 1489 439 l 1489 203 q 1469 113 1489 154 q 1414 43 1450 71 q 1344 10 1382 19 q 1267 0 1307 0 l 367 0 q 251 22 296 0 q 182 74 207 43 q 148 135 157 104 q 139 185 139 165 l 139 786 m 244 189 q 289 128 254 150 q 368 106 324 106 l 1292 106 q 1338 117 1317 108 q 1371 146 1360 125 q 1381 172 1379 161 q 1383 193 1383 182 l 1383 381 q 1376 416 1383 403 q 1358 435 1368 429 q 1338 442 1347 440 q 1325 443 1329 443 l 297 443 q 285 442 293 443 q 267 435 276 442 q 251 417 258 429 q 244 381 244 404 l 244 189 z "},"7":{"ha":1464,"x_min":138,"x_max":1367,"o":"m 138 0 l 1235 707 q 1255 735 1249 718 q 1261 771 1261 753 q 1240 828 1261 804 q 1185 857 1219 853 l 139 857 l 139 963 l 1194 963 q 1319 898 1272 953 q 1367 769 1367 843 q 1349 688 1367 726 q 1297 621 1332 649 l 347 0 l 138 0 z "},"8":{"ha":1586,"x_min":139,"x_max":1489,"o":"m 1489 569 q 1484 538 1488 550 q 1475 517 1481 526 q 1461 500 1469 508 q 1443 481 1453 492 q 1481 436 1474 461 q 1489 382 1489 411 l 1489 176 q 1475 123 1486 150 q 1440 68 1464 96 q 1362 15 1406 31 q 1261 0 1318 0 l 367 0 q 266 15 310 0 q 188 68 222 31 q 153 123 164 96 q 139 176 142 150 l 139 382 q 147 436 139 411 q 185 481 154 461 q 167 500 175 492 q 153 517 158 508 q 144 538 147 526 q 139 569 140 550 l 139 788 q 163 856 143 824 q 213 911 182 888 q 282 949 243 935 q 365 963 321 963 l 1263 963 q 1345 947 1306 961 q 1415 910 1385 933 q 1465 855 1446 886 q 1489 788 1485 824 l 1489 569 m 1383 381 q 1363 418 1383 408 q 1319 428 1342 428 l 308 428 q 265 418 286 428 q 244 381 244 408 l 244 182 q 258 144 244 158 q 289 121 272 131 q 320 110 301 114 q 367 106 339 106 l 1261 106 q 1308 110 1289 106 q 1339 121 1326 114 q 1369 144 1356 131 q 1383 182 1382 158 l 1383 381 m 1383 776 q 1342 835 1375 814 q 1271 857 1308 857 l 357 857 q 286 835 319 857 q 244 776 253 814 l 244 582 q 266 547 244 558 q 307 535 288 535 l 1324 535 q 1362 547 1342 535 q 1383 582 1382 558 l 1383 776 z "},"9":{"ha":1615,"x_min":139,"x_max":1489,"o":"m 1489 176 q 1475 123 1486 150 q 1440 68 1464 96 q 1362 15 1406 31 q 1261 0 1318 0 l 353 0 q 285 10 321 0 q 218 40 250 19 q 139 208 139 100 l 139 261 l 244 261 l 244 208 q 251 165 244 186 q 276 129 257 144 q 315 110 293 115 q 360 106 338 106 l 1261 106 q 1308 110 1289 106 q 1338 121 1326 114 q 1383 182 1379 142 l 1383 426 q 1367 421 1375 424 q 1350 415 1358 418 q 1337 413 1343 414 q 1324 413 1331 413 l 303 413 q 273 417 299 413 q 217 439 247 422 q 163 490 188 456 q 139 582 139 524 l 139 760 q 158 850 139 808 q 214 919 178 892 q 283 953 246 943 q 361 963 321 963 l 1261 963 q 1376 941 1332 963 q 1446 889 1421 919 q 1480 827 1471 858 q 1489 778 1489 796 l 1489 176 m 1383 774 q 1339 835 1374 813 q 1260 857 1304 857 l 336 857 q 271 831 297 857 q 244 769 244 804 l 244 582 q 252 546 244 558 q 270 528 260 533 q 290 521 281 522 q 303 519 299 519 l 1331 519 q 1343 520 1335 519 q 1360 527 1351 521 q 1376 546 1369 533 q 1383 582 1383 558 l 1383 774 z "}," ":{"ha":521,"x_min":0,"x_max":0,"o":""},"#":{"ha":1049,"x_min":131,"x_max":874,"o":"m 874 385 l 703 385 l 703 207 l 597 207 l 597 385 l 407 385 l 407 207 l 301 207 l 301 385 l 131 385 l 131 490 l 301 490 l 301 679 l 131 679 l 131 785 l 301 785 l 301 963 l 407 963 l 407 785 l 597 785 l 597 963 l 703 963 l 703 785 l 874 785 l 874 679 l 703 679 l 703 490 l 874 490 l 874 385 m 597 490 l 597 679 l 407 679 l 407 490 l 597 490 z "},"$":{"ha":1431,"x_min":139,"x_max":1282,"o":"m 1015 535 q 1119 514 1071 535 q 1204 457 1168 493 q 1261 372 1240 421 q 1282 268 1282 324 q 1261 164 1282 213 q 1204 78 1240 115 q 1119 21 1168 42 q 1015 0 1071 0 l 929 0 l 929 -118 l 824 -118 l 824 0 l 650 0 l 650 -118 l 544 -118 l 544 0 l 139 0 l 139 106 l 544 106 l 544 429 l 408 429 q 306 450 354 429 q 220 507 257 471 q 163 592 183 543 q 142 696 142 640 q 163 801 142 751 q 219 885 183 850 q 304 942 256 921 q 408 963 353 963 l 544 963 l 544 1079 l 650 1079 l 650 963 l 824 963 l 824 1079 l 929 1079 l 929 963 l 1271 963 l 1271 857 l 929 857 l 929 535 l 1015 535 m 650 857 l 650 535 l 824 535 l 824 857 l 650 857 m 544 535 l 544 857 l 408 857 q 345 844 374 857 q 295 810 317 832 q 261 760 274 789 q 247 699 249 732 q 297 582 253 629 q 408 535 342 535 l 544 535 m 824 106 l 824 429 l 650 429 l 650 106 l 824 106 m 1015 106 q 1078 118 1049 106 q 1129 153 1107 131 q 1164 204 1151 175 q 1176 267 1176 233 q 1164 330 1176 300 q 1130 382 1151 360 q 1078 417 1108 404 q 1015 429 1049 429 l 929 429 l 929 106 l 1015 106 z "},"%":{"ha":1575,"x_min":99,"x_max":1461,"o":"m 393 -15 l 1028 983 l 1146 983 l 511 -15 l 393 -15 m 1254 0 l 1014 0 q 933 16 971 0 q 868 60 896 32 q 824 126 840 88 q 807 207 807 164 l 807 228 q 823 308 807 271 q 867 374 839 346 q 933 419 896 403 q 1014 436 971 436 l 1254 436 q 1335 419 1297 436 q 1400 375 1372 403 q 1444 309 1428 347 q 1461 228 1461 271 l 1461 207 q 1445 127 1461 165 q 1401 61 1429 89 q 1335 17 1372 33 q 1254 0 1297 0 m 935 307 q 911 272 919 292 q 903 228 903 251 l 903 207 q 935 128 903 161 q 1014 96 968 96 l 1254 96 q 1333 128 1300 96 q 1365 207 1365 161 l 1365 228 q 1333 308 1365 275 q 1254 340 1300 340 l 1014 340 q 935 307 968 340 m 546 533 l 306 533 q 225 549 263 533 q 160 593 188 565 q 115 659 132 621 q 99 740 99 697 l 99 761 q 115 842 99 804 q 159 908 131 879 q 225 953 188 936 q 306 969 263 969 l 546 969 q 626 953 589 969 q 692 908 664 936 q 736 842 719 881 q 753 761 753 804 l 753 740 q 737 660 753 699 q 692 594 721 622 q 626 550 664 567 q 546 533 589 533 m 226 840 q 203 805 211 825 q 194 761 194 785 l 194 740 q 227 662 194 694 q 306 629 260 629 l 546 629 q 624 662 592 629 q 657 740 657 694 l 657 761 q 624 841 657 808 q 546 874 592 874 l 306 874 q 226 840 260 874 z "},"&":{"ha":1575,"x_min":125,"x_max":1524,"o":"m 1524 553 l 1524 447 l 1383 447 l 1383 0 l 417 0 q 298 22 351 0 q 206 81 244 43 q 146 168 167 118 q 125 276 125 218 q 158 401 125 343 q 243 497 190 460 l 214 518 q 148 603 171 553 q 125 706 125 653 q 156 831 125 781 q 231 910 186 881 q 327 951 275 939 q 421 963 379 963 l 1376 963 l 1376 857 l 421 857 q 352 847 386 857 q 291 817 318 836 q 247 769 264 797 q 231 704 231 740 q 247 642 231 669 q 290 594 264 614 q 350 563 317 574 q 415 553 383 553 l 1524 553 m 1278 446 l 414 446 q 343 432 376 446 q 285 394 310 418 q 245 340 260 371 q 231 275 231 310 q 239 235 231 263 q 268 178 247 207 q 324 127 289 149 q 414 106 360 106 l 1278 106 l 1278 446 z "},"’":{"ha":397,"x_min":111,"x_max":314,"o":"m 111 663 l 196 972 l 314 972 l 229 663 l 111 663 z "},"(":{"ha":660,"x_min":144,"x_max":483,"o":"m 333 -86 q 238 -55 279 -86 q 174 21 197 -24 q 144 144 144 75 l 144 819 q 158 906 144 865 q 194 978 171 946 q 256 1030 219 1010 q 333 1050 292 1050 l 483 1050 l 483 944 l 333 944 q 268 894 292 940 q 250 819 250 861 l 250 144 q 258 92 250 117 q 279 51 267 67 q 333 19 303 21 l 483 19 l 483 -86 l 333 -86 l 333 -86 z "},")":{"ha":665,"x_min":144,"x_max":483,"o":"m 294 -86 l 144 -86 l 144 19 l 294 19 q 349 51 325 21 q 369 92 361 67 q 378 144 378 117 l 378 819 q 360 894 378 861 q 294 944 336 940 l 144 944 l 144 1050 l 294 1050 q 372 1030 336 1050 q 433 978 408 1010 q 470 906 457 946 q 483 819 483 865 l 483 144 q 454 21 483 75 q 390 -55 431 -24 q 294 -86 349 -86 z "},"*":{"ha":665,"x_min":81,"x_max":583,"o":"m 583 724 l 428 724 l 536 614 l 481 557 l 371 668 l 371 514 l 290 514 l 290 669 l 181 561 l 124 617 l 233 726 l 81 726 l 81 807 l 236 807 l 126 917 l 183 974 l 294 864 l 294 1017 l 374 1017 l 374 861 l 483 971 l 540 914 l 429 803 l 583 803 l 583 724 z "},"+":{"ha":951,"x_min":113,"x_max":806,"o":"m 806 439 l 504 439 l 504 138 l 415 138 l 415 439 l 113 439 l 113 528 l 415 528 l 415 831 l 504 831 l 504 528 l 806 528 l 806 439 z "},",":{"ha":389,"x_min":113,"x_max":272,"o":"m 113 -118 l 153 125 l 272 125 l 232 -118 l 113 -118 z "},"-":{"ha":938,"x_min":111,"x_max":826,"o":"m 111 536 l 826 536 l 826 453 l 111 453 l 111 536 z "},".":{"ha":378,"x_min":139,"x_max":258,"o":"m 139 0 l 139 125 l 258 125 l 258 0 l 139 0 z "},"/":{"ha":825,"x_min":101,"x_max":772,"o":"m 101 -71 l 667 1039 l 772 1039 l 207 -71 l 101 -71 z "},":":{"ha":378,"x_min":139,"x_max":250,"o":"m 250 172 l 250 0 l 139 0 l 139 172 l 250 172 m 250 575 l 250 403 l 139 403 l 139 575 l 250 575 z "},";":{"ha":424,"x_min":111,"x_max":299,"o":"m 171 404 l 171 528 l 299 528 l 299 404 l 171 404 m 111 -158 l 188 124 l 278 124 l 201 -158 l 111 -158 z "},"<":{"ha":868,"x_min":99,"x_max":797,"o":"m 99 457 l 99 551 l 793 901 l 793 782 l 240 504 l 797 225 l 793 108 l 99 457 z "},"=":{"ha":938,"x_min":111,"x_max":813,"o":"m 111 383 l 813 383 l 813 286 l 111 286 l 111 383 m 111 661 l 813 661 l 813 564 l 111 564 l 111 661 z "},">":{"ha":857,"x_min":99,"x_max":797,"o":"m 103 108 l 99 225 l 656 504 l 103 782 l 103 901 l 797 551 l 797 457 l 103 108 z "},"?":{"ha":1438,"x_min":139,"x_max":1336,"o":"m 1231 757 q 1228 779 1231 763 q 1213 813 1225 796 q 1176 844 1201 831 q 1108 857 1151 857 l 367 857 q 298 844 322 857 q 262 813 274 831 q 247 778 250 796 q 244 754 244 761 l 244 631 l 139 631 l 139 754 q 167 869 139 828 q 231 932 194 911 q 304 958 268 953 q 358 963 340 963 l 1108 963 q 1137 961 1117 963 q 1182 953 1157 960 q 1234 933 1207 946 q 1284 897 1261 921 q 1322 839 1307 874 q 1336 754 1336 804 l 1336 644 q 1310 555 1336 586 q 1254 508 1285 524 q 1174 488 1218 490 l 772 488 q 708 473 731 488 q 674 439 685 458 q 660 401 663 419 q 658 376 658 383 l 658 240 l 553 240 l 553 376 q 567 465 553 428 q 602 525 581 501 q 650 563 624 549 q 701 583 676 576 q 745 592 725 590 q 774 593 765 593 l 1167 593 q 1199 603 1183 596 q 1220 621 1210 610 q 1231 654 1231 632 l 1231 757 m 554 0 l 554 157 l 660 157 l 660 0 l 554 0 z "},"@":{"ha":1531,"x_min":139,"x_max":1376,"o":"m 346 93 q 265 110 303 93 q 200 154 228 126 q 156 219 172 182 q 139 301 139 257 l 139 754 q 156 836 139 799 q 200 901 172 874 q 265 946 228 929 q 346 963 303 963 l 1169 963 q 1249 946 1211 963 q 1315 901 1288 929 q 1360 836 1343 874 q 1376 754 1376 799 l 1376 493 q 1351 383 1376 431 q 1298 315 1332 344 q 1217 286 1264 286 q 1146 303 1178 286 q 1093 351 1114 321 q 1051 493 1051 413 l 1051 554 q 1018 633 1051 600 q 983 657 1003 649 q 939 665 963 665 l 543 665 q 464 633 496 665 q 431 554 431 600 l 431 500 q 464 421 431 454 q 499 397 479 406 q 543 389 519 389 l 996 389 l 996 292 l 543 292 q 460 308 499 292 q 394 353 422 325 q 351 419 367 381 q 335 500 335 457 l 335 554 q 351 635 335 597 q 394 701 367 674 q 460 746 422 729 q 543 763 499 763 l 939 763 q 1020 746 982 763 q 1086 701 1058 729 q 1130 635 1114 674 q 1146 554 1146 597 l 1146 493 q 1158 432 1147 461 q 1194 388 1169 403 q 1214 382 1201 382 q 1233 388 1224 382 q 1268 431 1258 406 q 1281 493 1278 457 l 1281 754 q 1247 833 1281 803 q 1212 857 1232 849 q 1169 865 1192 865 l 346 865 q 268 833 300 865 q 235 754 235 803 l 235 301 q 268 222 235 253 q 346 189 299 189 l 1365 189 l 1365 93 l 346 93 z "},"[":{"ha":571,"x_min":140,"x_max":426,"o":"m 140 -104 l 140 1067 l 413 1067 l 413 961 l 246 961 l 246 1 l 426 1 l 426 -104 l 140 -104 z "},"\\":{"ha":803,"x_min":69,"x_max":733,"o":"m 733 -69 l 642 -69 l 69 1042 l 161 1042 l 733 -69 z "},"]":{"ha":614,"x_min":139,"x_max":426,"o":"m 140 -104 l 140 1 l 321 1 l 321 961 l 139 961 l 139 1067 l 426 1067 l 426 -104 l 140 -104 z "},"^":{"ha":906,"x_min":56,"x_max":850,"o":"m 506 972 l 850 332 l 756 332 l 453 903 l 150 332 l 56 332 l 400 972 l 506 972 z "},"_":{"ha":1389,"x_min":0,"x_max":1389,"o":"m 0 -97 l 1389 -97 l 1389 -181 l 0 -181 l 0 -97 z "},"‘":{"ha":397,"x_min":111,"x_max":314,"o":"m 196 663 l 111 972 l 229 972 l 314 663 l 196 663 z "},"a":{"ha":1504,"x_min":139,"x_max":1375,"o":"m 447 0 q 276 48 353 0 q 164 178 200 96 q 139 293 139 232 q 163 409 139 356 q 229 502 188 463 q 326 565 271 542 q 442 588 381 588 l 1269 588 l 1269 653 q 1253 732 1269 694 q 1208 797 1236 769 q 1142 840 1179 824 q 1064 857 1106 857 l 365 857 l 365 963 l 1064 963 q 1185 938 1128 963 q 1283 872 1242 914 q 1350 773 1325 829 q 1375 653 1375 717 l 1375 -1 l 447 0 m 333 449 q 268 382 292 422 q 244 293 244 342 q 260 219 244 253 q 303 160 276 185 q 366 120 331 135 q 442 106 401 106 l 1269 106 l 1269 482 l 447 482 q 386 473 415 482 q 333 449 357 464 z "},"b":{"ha":1535,"x_min":139,"x_max":1401,"o":"m 1283 497 q 1369 401 1336 460 q 1401 276 1401 343 q 1378 168 1401 218 q 1314 81 1354 118 q 1221 22 1274 43 q 1110 0 1168 0 l 139 0 l 139 963 l 1106 963 q 1188 953 1147 963 q 1265 923 1229 943 q 1329 874 1300 903 q 1376 808 1358 846 q 1401 706 1401 758 q 1378 603 1401 653 q 1313 518 1356 553 l 1283 497 m 244 553 l 1111 553 q 1176 563 1143 553 q 1236 594 1210 574 q 1279 642 1263 614 q 1296 704 1296 669 q 1279 769 1296 740 q 1235 817 1263 797 q 1174 847 1208 836 q 1106 857 1140 857 l 244 857 l 244 553 m 1282 211 q 1296 275 1296 240 q 1281 340 1296 310 q 1242 394 1267 371 q 1183 432 1217 418 q 1113 446 1150 446 l 244 446 l 244 106 l 1113 106 q 1213 135 1165 106 q 1282 211 1261 164 z "},"c":{"ha":1436,"x_min":139,"x_max":1346,"o":"m 256 115 q 170 241 201 169 q 139 394 139 313 l 139 568 q 170 721 139 649 q 255 847 201 793 q 381 931 308 900 q 535 963 453 963 l 1346 963 l 1346 857 l 535 857 q 422 834 475 857 q 330 772 369 811 q 267 680 290 732 q 244 568 244 628 l 244 394 q 267 283 244 336 q 329 191 290 231 q 420 128 368 151 q 532 106 472 106 l 1346 106 l 1346 0 l 535 0 q 381 31 453 0 q 256 115 308 63 z "},"d":{"ha":1454,"x_min":139,"x_max":1393,"o":"m 139 963 l 999 963 q 1152 931 1081 963 q 1277 846 1224 900 q 1362 720 1331 792 q 1393 568 1393 649 l 1393 394 q 1362 241 1393 313 q 1276 116 1331 169 q 1151 31 1222 63 q 999 0 1079 0 l 139 0 l 139 963 m 1288 571 q 1265 681 1288 629 q 1202 772 1242 733 q 1110 834 1163 811 q 999 857 1057 857 l 244 857 l 244 106 l 1001 106 q 1112 128 1060 106 q 1203 191 1164 151 q 1265 283 1242 231 q 1288 394 1288 335 l 1288 571 z "},"e":{"ha":1511,"x_min":140,"x_max":1404,"o":"m 140 671 q 166 785 140 732 q 234 878 192 839 q 332 939 276 917 q 450 961 388 961 l 1100 961 q 1216 938 1161 961 q 1313 875 1271 915 q 1379 781 1354 835 q 1404 667 1404 728 q 1379 551 1404 604 q 1311 458 1354 497 q 1213 395 1268 418 q 1094 372 1157 372 l 246 372 l 246 240 q 270 179 251 204 q 317 138 289 154 q 379 113 344 121 q 450 106 414 106 l 1331 106 l 1331 0 l 443 0 q 337 17 390 0 q 240 64 283 33 q 169 139 197 94 q 140 240 142 183 l 140 671 m 450 856 q 383 842 419 856 q 317 803 347 828 q 266 745 286 779 q 246 671 246 711 l 246 478 l 1100 478 q 1175 492 1139 478 q 1239 533 1211 507 q 1283 592 1267 558 q 1299 667 1299 626 q 1282 742 1299 707 q 1237 801 1265 776 q 1172 841 1208 826 q 1094 856 1135 856 l 450 856 z "},"f":{"ha":1435,"x_min":139,"x_max":1344,"o":"m 329 771 q 267 680 289 732 q 244 567 244 628 l 244 529 l 1282 529 l 1282 424 l 244 424 l 244 0 l 139 0 l 139 567 q 170 722 139 650 q 254 846 201 793 q 380 931 308 900 q 533 963 451 963 l 1344 963 l 1344 857 l 533 857 q 422 834 474 857 q 329 771 369 811 z "},"h":{"ha":1413,"x_min":139,"x_max":1322,"o":"m 1206 846 q 1291 721 1260 793 q 1322 567 1322 649 l 1322 0 l 1217 0 l 1217 567 q 1194 679 1217 626 q 1131 772 1171 732 q 1039 834 1092 811 q 926 857 986 857 l 533 857 q 422 834 474 857 q 330 772 369 811 q 267 679 290 732 q 244 567 244 626 l 244 0 l 139 0 l 139 1193 l 244 1193 l 244 835 q 249 840 247 838 q 254 846 251 843 q 380 931 308 900 q 533 963 451 963 l 926 963 q 1081 931 1008 963 q 1206 846 1153 900 z "},"i":{"ha":368,"x_min":139,"x_max":244,"o":"m 139 0 l 139 963 l 244 963 l 244 0 l 139 0 z "},"j":{"ha":1472,"x_min":139,"x_max":1322,"o":"m 311 963 l 1322 963 l 1322 394 q 1291 241 1322 313 q 1206 115 1260 169 q 1081 31 1153 63 q 928 0 1010 0 l 535 0 q 380 31 451 0 q 256 115 308 63 q 170 241 201 169 q 139 394 139 313 l 139 476 l 244 476 l 244 394 q 267 283 244 336 q 329 191 290 231 q 420 128 368 151 q 532 106 472 106 l 928 106 q 1039 128 986 106 q 1131 190 1092 151 q 1194 281 1171 229 q 1217 392 1217 333 l 1217 857 l 311 857 l 311 963 z "},"k":{"ha":1510,"x_min":139,"x_max":1406,"o":"m 1026 533 q 1160 488 1099 522 q 1265 401 1221 453 q 1335 283 1310 349 q 1361 143 1361 217 l 1361 0 l 1256 0 l 1256 146 q 1233 256 1256 204 q 1170 347 1210 308 q 1078 409 1131 386 q 967 432 1025 432 l 244 432 l 244 0 l 139 0 l 139 974 l 244 974 l 244 539 l 890 539 l 1260 975 l 1406 975 l 1026 533 l 1026 533 z "},"l":{"ha":1346,"x_min":139,"x_max":1344,"o":"m 244 963 l 244 396 q 267 283 244 335 q 329 192 289 231 q 422 128 369 151 q 533 106 474 106 l 1344 106 l 1344 0 l 533 0 q 380 31 451 0 q 254 117 308 63 q 170 241 201 169 q 139 396 139 313 l 139 963 l 244 963 z "},"m":{"ha":2094,"x_min":139,"x_max":2004,"o":"m 1610 963 q 1763 931 1690 963 q 1888 847 1835 900 q 1973 721 1942 793 q 2004 567 2004 649 l 2004 0 l 1899 0 l 1899 567 q 1876 678 1899 625 q 1814 770 1853 731 q 1723 833 1775 810 q 1613 857 1671 857 l 1079 857 l 1079 0 l 974 0 l 974 857 l 244 857 l 244 0 l 139 0 l 139 963 l 1610 963 l 1610 963 z "},"n":{"ha":1413,"x_min":139,"x_max":1322,"o":"m 928 963 q 1081 931 1008 963 q 1206 847 1153 900 q 1291 721 1260 793 q 1322 567 1322 649 l 1322 0 l 1217 0 l 1217 567 q 1194 678 1217 625 q 1132 770 1171 731 q 1041 833 1093 810 q 931 857 989 857 l 244 857 l 244 0 l 139 0 l 139 963 l 928 963 z "},"p":{"ha":1543,"x_min":139,"x_max":1453,"o":"m 246 0 l 139 0 l 139 963 l 1150 963 q 1265 939 1210 963 q 1361 875 1319 915 q 1428 781 1403 835 q 1453 668 1453 728 q 1427 553 1453 607 q 1359 459 1401 499 q 1260 397 1317 419 q 1143 374 1204 374 l 246 374 l 246 0 m 1146 479 q 1222 494 1186 479 q 1285 534 1258 508 q 1329 594 1313 560 q 1347 668 1346 629 q 1329 742 1346 707 q 1285 802 1313 776 q 1220 842 1257 828 q 1143 857 1183 857 l 246 857 l 246 479 l 1146 479 z "},"q":{"ha":1733,"x_min":139,"x_max":1643,"o":"m 833 -208 l 833 0 l 533 0 q 380 31 451 0 q 255 116 308 63 q 170 241 201 169 q 139 394 139 313 l 139 571 q 170 724 139 651 q 255 849 201 796 q 380 934 308 903 q 533 965 451 965 l 1247 965 q 1401 934 1329 965 q 1527 849 1474 903 q 1612 724 1581 796 q 1643 571 1643 651 l 1643 394 q 1612 241 1643 313 q 1527 116 1581 169 q 1401 31 1474 63 q 1247 0 1329 0 l 939 0 l 939 -208 l 833 -208 m 244 571 l 244 394 q 267 283 244 335 q 330 191 290 231 q 422 128 369 151 q 533 106 474 106 l 833 106 l 833 296 l 939 296 l 939 106 l 1247 106 q 1360 128 1307 106 q 1452 191 1413 151 q 1515 283 1492 231 q 1538 394 1538 335 l 1538 571 q 1515 683 1538 631 q 1452 774 1492 735 q 1360 837 1413 814 q 1247 860 1307 860 l 533 860 q 422 837 474 860 q 330 774 369 814 q 267 683 290 735 q 244 571 244 631 z "},"r":{"ha":1236,"x_min":139,"x_max":1247,"o":"m 139 0 l 139 568 q 170 721 139 649 q 255 847 201 793 q 380 931 308 900 q 533 963 451 963 l 1247 963 l 1247 857 l 533 857 q 422 834 474 857 q 330 772 369 811 q 267 680 290 732 q 244 568 244 628 l 244 0 l 139 0 z "},"s":{"ha":1414,"x_min":86,"x_max":1324,"o":"m 1057 0 l 139 0 l 139 106 l 1057 106 q 1119 118 1090 106 q 1171 153 1149 131 q 1206 204 1193 175 q 1218 267 1218 233 q 1206 330 1218 300 q 1172 382 1193 360 q 1120 417 1150 404 q 1057 429 1090 429 l 353 429 q 250 450 299 429 q 165 507 201 471 q 107 592 128 543 q 86 696 86 640 q 107 801 86 751 q 164 886 128 850 q 249 944 200 922 q 353 965 297 965 l 1271 965 l 1271 860 l 353 860 q 290 847 318 860 q 240 812 261 833 q 206 761 218 790 q 192 699 193 732 q 242 582 197 629 q 353 535 286 535 l 1057 535 q 1161 514 1113 535 q 1246 457 1210 493 q 1303 372 1282 421 q 1324 268 1324 324 q 1303 164 1324 213 q 1246 78 1282 115 q 1161 21 1210 42 q 1057 0 1113 0 z "},"t":{"ha":1449,"x_min":139,"x_max":1344,"o":"m 1164 722 l 244 722 l 244 396 q 267 283 244 335 q 329 192 289 231 q 422 128 369 151 q 533 106 474 106 l 1344 106 l 1344 0 l 533 0 q 380 31 451 0 q 254 117 308 63 q 170 241 201 169 q 139 396 139 313 l 139 963 l 244 963 l 244 828 l 1164 828 l 1164 722 z "},"u":{"ha":1432,"x_min":139,"x_max":1322,"o":"m 533 0 q 380 31 451 0 q 255 116 308 63 q 170 242 201 169 q 139 396 139 314 l 139 963 l 244 963 l 244 396 q 267 285 244 338 q 329 192 290 232 q 420 129 368 153 q 531 106 472 106 l 1217 106 l 1217 963 l 1322 963 l 1322 0 l 533 0 z "},"v":{"ha":1628,"x_min":19,"x_max":1542,"o":"m 779 0 l 747 0 l 19 963 l 151 963 l 776 135 l 1408 963 l 1542 963 l 806 0 l 779 0 z "},"w":{"ha":2094,"x_min":139,"x_max":2004,"o":"m 533 0 q 380 31 451 0 q 255 116 308 63 q 170 242 201 169 q 139 396 139 314 l 139 963 l 244 963 l 244 396 q 267 285 244 338 q 329 192 290 232 q 420 129 368 153 q 531 106 472 106 l 1064 106 l 1064 963 l 1169 963 l 1169 106 l 1899 106 l 1899 963 l 2004 963 l 2004 0 l 533 0 l 533 0 z "},"x":{"ha":1413,"x_min":139,"x_max":1322,"o":"m 1206 422 q 1291 297 1260 368 q 1322 143 1322 225 l 1322 0 l 1217 0 l 1217 143 q 1194 254 1217 201 q 1132 347 1171 307 q 1041 409 1093 386 q 929 432 989 432 l 533 432 q 422 409 475 432 q 330 347 369 386 q 267 256 290 308 q 244 146 244 204 l 244 0 l 139 0 l 139 143 q 170 297 139 225 q 256 422 201 368 q 294 456 274 440 q 336 485 314 471 q 256 547 289 511 q 170 673 201 601 q 139 826 139 744 l 139 963 l 244 963 l 244 826 q 267 715 244 768 q 329 623 290 663 q 420 560 368 583 q 532 538 472 538 l 939 538 q 1047 560 996 538 q 1135 623 1097 583 q 1194 715 1172 663 q 1217 824 1217 767 l 1217 963 l 1322 963 l 1322 826 q 1291 673 1322 744 q 1206 547 1260 601 q 1124 485 1167 508 q 1167 456 1147 471 q 1206 422 1186 440 z "},"y":{"ha":1413,"x_min":139,"x_max":1322,"o":"m 1322 963 l 1322 394 q 1291 241 1322 313 q 1206 116 1260 169 q 1081 31 1153 63 q 928 0 1010 0 l 214 0 l 214 106 l 928 106 q 1040 128 988 106 q 1131 191 1092 151 q 1194 283 1171 231 q 1217 394 1217 335 l 1217 417 l 533 417 q 380 448 451 417 q 255 533 308 479 q 170 658 201 586 q 139 813 139 731 l 139 963 l 244 963 l 244 813 q 267 701 244 754 q 329 609 290 649 q 420 546 368 569 q 531 522 472 522 l 1217 522 l 1217 963 l 1322 963 z "},"z":{"ha":1571,"x_min":140,"x_max":1485,"o":"m 140 0 l 140 107 l 1281 857 l 143 857 l 143 963 l 1485 963 l 1485 864 l 331 106 l 1465 106 l 1465 0 l 140 0 z "},"{":{"ha":869,"x_min":63,"x_max":731,"o":"m 425 213 q 431 117 425 154 q 455 57 436 79 q 509 26 474 35 q 603 17 544 17 l 731 17 l 731 -69 l 581 -69 q 459 -53 507 -69 q 383 -5 411 -37 q 345 78 356 28 q 335 197 335 128 l 335 340 q 307 430 335 399 q 200 461 279 461 l 63 461 l 63 542 l 200 542 q 307 573 279 542 q 335 663 335 604 l 335 775 q 345 894 335 844 q 383 977 356 944 q 459 1026 411 1010 q 581 1042 507 1042 l 731 1042 l 731 956 l 603 956 q 509 947 544 956 q 455 915 474 938 q 431 856 436 893 q 425 760 425 818 l 425 654 q 391 542 425 575 q 285 503 357 508 l 285 500 q 391 461 357 494 q 425 349 425 428 l 425 213 z "},"|":{"ha":590,"x_min":250,"x_max":340,"o":"m 250 1042 l 340 1042 l 340 -69 l 250 -69 l 250 1042 z "},"}":{"ha":869,"x_min":139,"x_max":807,"o":"m 444 349 q 478 461 444 428 q 585 500 513 494 l 585 503 q 478 542 513 508 q 444 654 444 575 l 444 760 q 439 856 444 818 q 415 915 433 893 q 360 947 396 938 q 267 956 325 956 l 139 956 l 139 1042 l 289 1042 q 410 1026 363 1042 q 486 977 458 1010 q 524 894 514 944 q 535 775 535 844 l 535 663 q 560 576 535 607 q 654 542 585 544 l 807 542 l 807 461 l 669 461 q 563 430 590 461 q 535 340 535 399 l 535 197 q 524 78 535 128 q 486 -5 514 28 q 410 -53 458 -37 q 289 -69 363 -69 l 139 -69 l 139 17 l 267 17 q 360 26 325 17 q 415 57 396 35 q 439 117 433 79 q 444 213 444 154 l 444 349 z "},"~":{"ha":979,"x_min":139,"x_max":947,"o":"m 807 649 q 678 683 743 649 l 353 849 q 286 868 315 868 q 260 858 274 868 q 246 808 246 849 l 246 672 l 139 672 l 139 799 q 179 924 139 881 q 279 963 218 963 q 408 928 339 963 l 733 763 q 800 742 775 742 q 813 744 806 742 q 826 752 821 746 q 836 770 832 758 q 840 801 840 782 l 840 939 l 947 939 l 947 811 q 907 688 947 731 q 807 649 869 649 z "},"¡":{"ha":540,"x_min":222,"x_max":318,"o":"m 222 0 l 222 681 l 318 681 l 318 0 l 222 0 m 222 800 l 222 972 l 318 972 l 318 800 l 222 800 z "},"£":{"ha":1564,"x_min":171,"x_max":1421,"o":"m 1421 106 l 1421 0 l 171 0 l 171 106 q 253 114 222 106 q 301 144 285 122 q 324 203 318 167 q 331 296 331 239 l 196 296 l 196 401 l 331 401 l 331 463 l 196 463 l 196 568 l 331 568 l 331 575 q 362 728 331 656 q 447 853 393 800 q 572 938 500 907 q 725 969 643 969 l 1386 969 l 1386 864 l 725 864 q 613 841 665 864 q 522 778 561 818 q 459 687 482 739 q 436 575 436 635 l 436 568 l 1182 568 l 1182 463 l 436 463 l 436 401 l 1182 401 l 1182 296 l 436 296 q 428 186 435 233 q 406 106 421 139 l 1421 106 z "},"⁄":{"ha":1086,"x_min":42,"x_max":1044,"o":"m 940 972 l 1044 972 l 146 0 l 42 0 l 940 972 z "},"'":{"ha":313,"x_min":111,"x_max":201,"o":"m 111 663 l 111 972 l 201 972 l 201 663 l 111 663 z "},"“":{"ha":661,"x_min":111,"x_max":564,"o":"m 446 663 l 361 972 l 479 972 l 564 663 l 446 663 m 196 663 l 111 972 l 229 972 l 314 663 l 196 663 z "},"ﬁ":{"ha":1638,"x_min":139,"x_max":1517,"o":"m 329 771 q 267 680 289 732 q 244 567 244 628 l 244 529 l 1282 529 l 1282 424 l 244 424 l 244 0 l 139 0 l 139 567 q 170 722 139 650 q 254 846 201 793 q 380 931 308 900 q 533 963 451 963 l 1344 963 l 1344 857 l 533 857 q 422 834 474 857 q 329 771 369 811 m 1411 0 l 1411 963 l 1517 963 l 1517 0 l 1411 0 z "},"–":{"ha":1321,"x_min":111,"x_max":1210,"o":"m 111 536 l 1210 536 l 1210 453 l 111 453 l 111 536 z "},"†":{"ha":715,"x_min":0,"x_max":0,"o":""},"‡":{"ha":715,"x_min":0,"x_max":0,"o":""},"·":{"ha":406,"x_min":139,"x_max":267,"o":"m 139 404 l 139 528 l 267 528 l 267 404 l 139 404 z "},"•":{"ha":653,"x_min":111,"x_max":542,"o":"m 111 486 q 128 570 111 531 q 174 639 144 610 q 242 685 203 668 q 326 701 282 701 q 410 685 371 701 q 479 639 450 668 q 525 570 508 610 q 542 486 542 531 q 525 402 542 442 q 479 333 508 363 q 410 288 450 304 q 326 271 371 271 q 242 288 282 271 q 174 333 203 304 q 128 402 144 363 q 111 486 111 442 m 326 638 q 267 626 294 638 q 219 593 240 614 q 187 544 199 572 q 175 486 175 517 q 187 427 175 454 q 219 379 199 400 q 267 347 240 358 q 326 335 294 335 q 385 347 357 335 q 433 379 413 358 q 466 427 454 400 q 478 486 478 454 q 466 544 478 517 q 433 593 454 572 q 385 626 413 614 q 326 638 357 638 z "},"‚":{"ha":389,"x_min":111,"x_max":278,"o":"m 111 -158 l 188 124 l 278 124 l 201 -158 l 111 -158 z "},"„":{"ha":708,"x_min":111,"x_max":597,"o":"m 111 -158 l 188 124 l 278 124 l 201 -158 l 111 -158 m 431 -158 l 507 124 l 597 124 l 521 -158 l 431 -158 z "},"”":{"ha":682,"x_min":111,"x_max":564,"o":"m 111 663 l 196 972 l 314 972 l 229 663 l 111 663 m 361 663 l 446 972 l 564 972 l 479 663 l 361 663 z "},"…":{"ha":1078,"x_min":125,"x_max":953,"o":"m 125 0 l 125 124 l 253 124 l 253 0 l 125 0 m 475 0 l 475 124 l 603 124 l 603 0 l 475 0 m 825 0 l 825 124 l 953 124 l 953 0 l 825 0 z "},"‰":{"ha":2307,"x_min":99,"x_max":2183,"o":"m 393 -15 l 1028 983 l 1146 983 l 511 -15 l 393 -15 m 1254 0 l 1014 0 q 933 16 971 0 q 868 60 896 32 q 824 126 840 88 q 807 207 807 164 l 807 228 q 823 308 807 271 q 867 374 839 346 q 933 419 896 403 q 1014 436 971 436 l 1254 436 q 1335 419 1297 436 q 1400 375 1372 403 q 1444 309 1428 347 q 1461 228 1461 271 l 1461 207 q 1445 127 1461 165 q 1401 61 1429 89 q 1335 17 1372 33 q 1254 0 1297 0 m 935 307 q 911 272 919 292 q 903 228 903 251 l 903 207 q 935 128 903 161 q 1014 96 968 96 l 1254 96 q 1333 128 1300 96 q 1365 207 1365 161 l 1365 228 q 1333 308 1365 275 q 1254 340 1300 340 l 1014 340 q 935 307 968 340 m 546 533 l 306 533 q 225 549 263 533 q 160 593 188 565 q 115 659 132 621 q 99 740 99 697 l 99 761 q 115 842 99 804 q 159 908 131 879 q 225 953 188 936 q 306 969 263 969 l 546 969 q 626 953 589 969 q 692 908 664 936 q 736 842 719 881 q 753 761 753 804 l 753 740 q 737 660 753 699 q 692 594 721 622 q 626 550 664 567 q 546 533 589 533 m 226 840 q 203 805 211 825 q 194 761 194 785 l 194 740 q 227 662 194 694 q 306 629 260 629 l 546 629 q 624 662 592 629 q 657 740 657 694 l 657 761 q 624 841 657 808 q 546 874 592 874 l 306 874 q 226 840 260 874 m 1976 0 l 1736 0 q 1656 16 1693 0 q 1590 60 1618 32 q 1546 126 1563 88 q 1529 207 1529 164 l 1529 228 q 1545 308 1529 271 q 1590 374 1561 346 q 1656 419 1618 403 q 1736 436 1693 436 l 1976 436 q 2057 419 2019 436 q 2122 375 2094 403 q 2167 309 2150 347 q 2183 228 2183 271 l 2183 207 q 2167 127 2183 165 q 2123 61 2151 89 q 2057 17 2094 33 q 1976 0 2019 0 m 1657 307 q 1633 272 1642 292 q 1625 228 1625 251 l 1625 207 q 1658 128 1625 161 q 1736 96 1690 96 l 1976 96 q 2055 128 2022 96 q 2088 207 2088 161 l 2088 228 q 2055 308 2088 275 q 1976 340 2022 340 l 1736 340 q 1657 307 1690 340 z "},"¿":{"ha":1438,"x_min":139,"x_max":1336,"o":"m 1231 308 q 1220 341 1231 329 q 1199 360 1210 353 q 1167 369 1183 367 l 774 369 q 745 371 765 369 q 701 379 725 372 q 650 400 676 386 q 602 438 624 414 q 567 498 581 461 q 553 586 553 535 l 553 722 l 658 722 l 658 586 q 660 561 658 579 q 674 524 663 543 q 708 490 685 504 q 772 475 731 475 l 1174 475 q 1254 454 1218 471 q 1310 407 1285 439 q 1336 318 1336 375 l 1336 208 q 1322 124 1336 158 q 1284 65 1307 89 q 1234 29 1261 42 q 1182 10 1207 17 q 1137 1 1157 3 q 1108 0 1117 0 l 358 0 q 304 5 340 0 q 231 31 268 10 q 167 93 194 51 q 139 208 139 135 l 139 332 l 244 332 l 244 208 q 247 184 244 201 q 262 149 250 167 q 298 119 274 132 q 367 106 322 106 l 1108 106 q 1176 119 1151 106 q 1213 149 1201 132 q 1228 183 1225 167 q 1231 206 1231 199 l 1231 308 m 660 963 l 660 806 l 554 806 l 554 963 l 660 963 z "},"`":{"ha":724,"x_min":222,"x_max":561,"o":"m 297 1331 l 561 1068 l 486 993 l 222 1256 l 297 1331 z "},"´":{"ha":724,"x_min":232,"x_max":571,"o":"m 571 1256 l 307 993 l 232 1068 l 496 1331 l 571 1256 z "},"ˆ":{"ha":1089,"x_min":121,"x_max":1001,"o":"m 561 1222 l 167 1035 l 121 1131 l 561 1339 l 1001 1131 l 956 1035 l 561 1222 z "},"˜":{"ha":921,"x_min":142,"x_max":869,"o":"m 743 994 q 686 1002 715 994 q 626 1026 657 1010 l 333 1175 q 301 1188 315 1185 q 274 1192 286 1192 q 250 1183 263 1192 q 238 1139 238 1175 l 238 1015 l 142 1015 l 142 1140 q 178 1253 142 1214 q 268 1288 213 1288 q 383 1256 324 1288 l 676 1107 q 736 1089 713 1089 q 760 1097 747 1089 q 772 1142 772 1106 l 772 1265 l 869 1265 l 869 1140 q 832 1029 869 1067 q 743 994 799 994 z "},"¯":{"ha":914,"x_min":139,"x_max":782,"o":"m 139 1163 l 782 1163 l 782 1057 l 139 1057 l 139 1163 z "},"˘":{"ha":953,"x_min":222,"x_max":810,"o":"m 304 1157 l 304 1139 q 331 1072 304 1099 q 399 1044 358 1044 l 632 1044 q 699 1072 671 1044 q 728 1139 728 1099 l 728 1157 l 810 1157 l 810 1139 q 796 1071 810 1103 q 758 1015 782 1039 q 701 976 733 990 q 632 963 669 963 l 399 963 q 274 1014 325 963 q 236 1070 250 1038 q 222 1139 222 1103 l 222 1157 l 304 1157 z "},"˙":{"ha":461,"x_min":139,"x_max":322,"o":"m 139 1253 l 322 1253 l 322 1101 l 139 1101 l 139 1253 z "},"¨":{"ha":824,"x_min":140,"x_max":663,"o":"m 140 1097 l 140 1222 l 260 1222 l 260 1097 l 140 1097 m 543 1097 l 543 1222 l 663 1222 l 663 1097 l 543 1097 z "},"˚":{"ha":757,"x_min":136,"x_max":696,"o":"m 518 968 l 313 968 q 188 1019 239 968 q 150 1076 164 1043 q 136 1144 136 1108 l 136 1163 q 150 1232 136 1200 q 188 1288 164 1264 q 244 1327 211 1313 q 313 1342 276 1342 l 518 1342 q 587 1328 554 1342 q 644 1290 619 1314 q 682 1233 668 1265 q 696 1163 696 1200 l 696 1144 q 682 1076 696 1108 q 644 1020 668 1044 q 588 982 619 996 q 518 968 556 968 m 246 1231 q 218 1163 218 1203 l 218 1144 q 245 1077 218 1104 q 313 1050 272 1050 l 518 1050 q 585 1077 557 1050 q 614 1144 614 1104 l 614 1163 q 585 1231 614 1203 q 518 1258 557 1258 l 313 1258 q 246 1231 274 1258 z "},"¸":{"ha":663,"x_min":161,"x_max":486,"o":"m 297 -333 l 161 -333 l 161 -235 l 303 -235 q 363 -207 339 -235 q 386 -144 386 -179 l 386 0 l 486 0 l 486 -144 q 472 -215 486 -181 q 431 -275 457 -249 q 371 -317 406 -301 q 297 -333 336 -333 z "},"˝":{"ha":1072,"x_min":288,"x_max":932,"o":"m 626 1256 l 363 993 l 288 1068 l 551 1331 l 626 1256 m 932 1256 l 668 993 l 593 1068 l 857 1331 l 932 1256 z "},"˛":{"ha":663,"x_min":139,"x_max":565,"o":"m 294 -278 q 238 -267 265 -278 q 188 -239 210 -257 q 152 -195 165 -221 q 139 -139 139 -169 l 139 -136 q 161 -48 139 -89 q 219 21 183 -7 l 250 49 l 403 49 l 288 -61 q 259 -94 272 -76 q 246 -129 246 -111 q 250 -146 246 -137 q 269 -165 258 -161 q 299 -171 281 -168 l 565 -171 l 565 -278 l 294 -278 z "},"ˇ":{"ha":1089,"x_min":121,"x_max":1001,"o":"m 956 1339 l 1001 1243 l 561 1035 l 121 1243 l 167 1339 l 561 1151 l 956 1339 z "},"—":{"ha":1707,"x_min":111,"x_max":1596,"o":"m 111 536 l 1596 536 l 1596 453 l 111 453 l 111 536 z "},"Ł":{"ha":1435,"x_min":-53,"x_max":1463,"o":"m 1463 106 l 1463 0 l 651 0 q 498 31 569 0 q 372 117 426 63 q 295 225 325 164 q 258 357 265 286 l 0 208 l -53 300 l 257 476 l 257 963 l 363 963 l 363 538 l 721 743 l 774 651 l 363 417 l 363 396 q 385 283 363 335 q 447 192 407 231 q 540 128 488 151 q 651 106 592 106 l 1463 106 z "},"Ø":{"ha":1756,"x_min":138,"x_max":1642,"o":"m 1246 967 q 1400 935 1328 967 q 1526 851 1472 904 q 1610 725 1579 797 q 1642 572 1642 653 l 1642 396 q 1610 242 1642 314 q 1526 117 1579 171 q 1400 33 1472 64 q 1246 1 1328 1 l 532 1 q 378 33 450 1 q 253 117 307 64 q 169 242 200 171 q 138 396 138 314 l 138 572 q 169 725 138 653 q 253 851 200 797 q 378 935 307 904 q 532 967 450 967 l 1246 967 m 243 396 q 259 302 243 347 q 303 221 275 257 l 1392 822 q 1246 861 1325 861 l 532 861 q 420 838 472 861 q 328 776 368 815 q 266 684 289 736 q 243 572 243 632 l 243 396 m 1536 572 q 1518 672 1536 625 q 1468 757 1500 719 l 375 153 q 449 119 410 131 q 532 107 489 107 l 1246 107 q 1358 130 1306 107 q 1451 192 1411 153 q 1513 284 1490 232 q 1536 396 1536 336 l 1536 572 z "},"Œ":{"ha":2649,"x_min":140,"x_max":2510,"o":"m 1506 531 l 2510 531 l 2510 425 l 1506 425 l 1506 386 q 1529 276 1506 328 q 1592 186 1553 225 q 1683 125 1631 147 q 1794 103 1736 103 l 2510 103 l 2510 -3 l 1794 -3 q 1594 52 1685 -3 q 1453 196 1504 107 q 1311 52 1401 107 q 1110 -3 1221 -3 l 535 -3 q 381 28 453 -3 q 256 113 310 60 q 172 238 203 167 q 140 392 140 310 l 140 568 q 172 722 140 650 q 256 847 203 793 q 381 931 310 900 q 535 963 453 963 l 1110 963 q 1311 908 1221 963 q 1453 764 1401 853 q 1515 843 1479 807 q 1595 906 1551 879 q 1690 946 1639 932 q 1794 960 1740 960 l 2510 960 l 2510 854 l 1794 854 q 1683 832 1735 854 q 1590 769 1631 810 q 1529 680 1551 731 q 1506 571 1507 629 l 1506 531 m 1400 568 q 1377 680 1400 628 q 1315 772 1354 732 q 1222 834 1275 811 q 1110 857 1169 857 l 535 857 q 423 834 475 857 q 331 772 371 811 q 269 680 292 732 q 246 568 246 628 l 246 392 q 269 280 246 332 q 331 188 292 228 q 423 126 371 149 q 535 103 475 103 l 1110 103 q 1222 126 1169 103 q 1315 188 1275 149 q 1377 280 1354 228 q 1400 392 1400 332 l 1400 568 z "},"æ":{"ha":2619,"x_min":125,"x_max":2519,"o":"m 1361 239 q 1385 178 1367 203 q 1432 136 1404 153 q 1494 112 1460 119 q 1565 104 1529 104 l 2446 104 l 2446 -1 l 1558 -1 q 1455 14 1506 -1 q 1361 58 1404 29 l 1361 0 l 433 0 q 263 48 339 0 q 150 178 186 96 q 125 293 125 232 q 149 409 125 356 q 215 502 174 463 q 312 565 257 542 q 428 588 367 588 l 1256 588 l 1256 653 q 1239 732 1256 694 q 1194 797 1222 769 q 1128 841 1165 825 q 1050 857 1092 857 l 351 857 l 351 963 l 1050 963 q 1197 926 1131 963 q 1306 828 1264 889 q 1417 924 1349 889 q 1565 960 1486 960 l 2215 960 q 2331 937 2276 960 q 2428 874 2386 914 q 2494 780 2469 833 q 2519 665 2519 726 q 2494 549 2519 603 q 2426 456 2469 496 q 2328 394 2383 417 q 2210 371 2272 371 l 1361 371 l 1361 239 m 1361 476 l 2215 476 q 2290 491 2254 476 q 2354 531 2326 506 q 2398 591 2382 557 q 2414 665 2414 625 q 2397 740 2414 706 q 2352 800 2381 775 q 2287 840 2324 825 q 2210 854 2250 854 l 1565 854 q 1499 840 1535 854 q 1432 802 1463 826 q 1381 744 1401 778 q 1361 669 1361 710 l 1361 476 m 1256 482 l 433 482 q 372 473 401 482 q 319 449 343 464 q 254 382 278 422 q 231 293 231 342 q 247 219 231 253 q 290 160 263 185 q 352 120 317 135 q 428 106 388 106 l 1256 106 l 1256 482 z "},"ı":{"ha":335,"x_min":139,"x_max":244,"o":"m 139 0 l 139 963 l 244 963 l 244 0 l 139 0 z "},"ł":{"ha":1485,"x_min":-53,"x_max":1463,"o":"m 1463 106 l 1463 0 l 651 0 q 498 31 569 0 q 372 117 426 63 q 295 225 325 164 q 258 357 265 286 l 0 208 l -53 300 l 257 476 l 257 963 l 363 963 l 363 538 l 721 743 l 774 651 l 363 417 l 363 396 q 385 283 363 335 q 447 192 407 231 q 540 128 488 151 q 651 106 592 106 l 1463 106 z "},"ø":{"ha":1756,"x_min":138,"x_max":1642,"o":"m 1246 967 q 1400 935 1328 967 q 1526 851 1472 904 q 1610 725 1579 797 q 1642 572 1642 653 l 1642 396 q 1610 242 1642 314 q 1526 117 1579 171 q 1400 33 1472 64 q 1246 1 1328 1 l 532 1 q 378 33 450 1 q 253 117 307 64 q 169 242 200 171 q 138 396 138 314 l 138 572 q 169 725 138 653 q 253 851 200 797 q 378 935 307 904 q 532 967 450 967 l 1246 967 m 243 396 q 259 302 243 347 q 303 221 275 257 l 1392 822 q 1246 861 1325 861 l 532 861 q 420 838 472 861 q 328 776 368 815 q 266 684 289 736 q 243 572 243 632 l 243 396 m 1536 572 q 1518 672 1536 625 q 1468 757 1500 719 l 375 153 q 449 119 410 131 q 532 107 489 107 l 1246 107 q 1358 130 1306 107 q 1451 192 1411 153 q 1513 284 1490 232 q 1536 396 1536 336 l 1536 572 z "},"œ":{"ha":2801,"x_min":139,"x_max":2635,"o":"m 1476 240 q 1501 179 1482 204 q 1547 138 1519 154 q 1610 113 1575 121 q 1681 106 1644 106 l 2561 106 l 2561 0 l 1674 0 q 1590 10 1632 0 q 1510 40 1547 21 q 1442 88 1472 60 q 1393 153 1411 117 q 1258 41 1339 82 q 1081 0 1176 0 l 533 0 q 380 31 451 0 q 255 116 308 63 q 170 241 201 169 q 139 394 139 313 l 139 568 q 170 722 139 650 q 255 847 201 793 q 380 931 308 900 q 533 963 451 963 l 1081 963 q 1265 917 1181 963 q 1403 796 1350 872 q 1517 914 1443 869 q 1681 958 1592 958 l 2331 958 q 2447 935 2392 958 q 2543 872 2501 913 q 2610 778 2585 832 q 2635 664 2635 725 q 2610 549 2635 601 q 2542 456 2585 496 q 2443 394 2499 417 q 2325 372 2388 372 l 1476 372 l 1476 240 m 1476 478 l 2331 478 q 2406 492 2369 478 q 2469 531 2442 506 q 2513 590 2497 556 q 2529 664 2529 624 q 2513 739 2529 704 q 2467 799 2496 774 q 2402 838 2439 824 q 2325 853 2365 853 l 1681 853 q 1614 839 1650 853 q 1547 801 1578 825 q 1497 742 1517 776 q 1476 668 1476 708 l 1476 478 m 1371 568 q 1348 680 1371 628 q 1285 772 1325 732 q 1193 834 1246 811 q 1081 857 1140 857 l 533 857 q 422 834 474 857 q 330 772 369 811 q 267 680 290 732 q 244 568 244 628 l 244 394 q 267 283 244 335 q 330 191 290 231 q 422 128 369 151 q 533 106 474 106 l 1081 106 q 1193 128 1140 106 q 1285 191 1246 151 q 1348 283 1325 231 q 1371 394 1371 335 l 1371 568 z "},"ß":{"ha":3039,"x_min":0,"x_max":0,"o":""},"Ð":{"ha":1713,"x_min":71,"x_max":1593,"o":"m 1199 963 q 1352 931 1281 963 q 1477 846 1424 900 q 1562 720 1531 792 q 1593 568 1593 649 l 1593 394 q 1562 241 1593 313 q 1476 116 1531 169 q 1351 31 1422 63 q 1199 0 1279 0 l 339 0 l 339 429 l 71 429 l 71 535 l 339 535 l 339 963 l 1199 963 m 1488 571 q 1465 681 1488 629 q 1402 772 1442 733 q 1310 834 1363 811 q 1199 857 1257 857 l 444 857 l 444 535 l 785 535 l 785 429 l 444 429 l 444 106 l 1201 106 q 1312 128 1260 106 q 1403 191 1364 151 q 1465 283 1442 231 q 1488 394 1488 335 l 1488 571 z "},"½":{"ha":1556,"x_min":0,"x_max":0,"o":""},"Þ":{"ha":1576,"x_min":0,"x_max":0,"o":""},"¼":{"ha":1539,"x_min":0,"x_max":0,"o":""},"¾":{"ha":1761,"x_min":0,"x_max":0,"o":""},"²":{"ha":821,"x_min":0,"x_max":0,"o":""},"ð":{"ha":1713,"x_min":71,"x_max":1593,"o":"m 1199 963 q 1352 931 1281 963 q 1477 846 1424 900 q 1562 720 1531 792 q 1593 568 1593 649 l 1593 394 q 1562 241 1593 313 q 1476 116 1531 169 q 1351 31 1422 63 q 1199 0 1279 0 l 339 0 l 339 429 l 71 429 l 71 535 l 339 535 l 339 963 l 1199 963 m 1488 571 q 1465 681 1488 629 q 1402 772 1442 733 q 1310 834 1363 811 q 1199 857 1257 857 l 444 857 l 444 535 l 785 535 l 785 429 l 444 429 l 444 106 l 1201 106 q 1312 128 1260 106 q 1403 191 1364 151 q 1465 283 1442 231 q 1488 394 1488 335 l 1488 571 z "},"³":{"ha":821,"x_min":0,"x_max":0,"o":""},"©":{"ha":1694,"x_min":0,"x_max":0,"o":""},"Á":{"ha":1489,"x_min":139,"x_max":1397,"o":"m 940 1258 l 676 996 l 601 1071 l 865 1333 l 940 1258 m 1282 847 q 1366 722 1335 793 q 1397 568 1397 650 l 1397 0 l 1292 0 l 1292 417 l 244 417 l 244 0 l 139 0 l 139 568 q 170 722 139 650 q 256 847 201 793 q 381 931 310 900 q 533 963 453 963 l 1003 963 q 1156 931 1085 963 q 1282 847 1228 900 m 1292 522 l 1292 571 q 1269 681 1292 629 q 1206 772 1246 733 q 1114 834 1167 811 q 1003 857 1061 857 l 531 857 q 420 834 472 857 q 329 772 368 811 q 267 680 290 732 q 244 568 244 628 l 244 522 l 1292 522 z "},"Â":{"ha":1489,"x_min":139,"x_max":1397,"o":"m 761 1185 l 367 997 l 321 1093 l 761 1301 l 1201 1093 l 1156 997 l 761 1185 m 1282 847 q 1366 722 1335 793 q 1397 568 1397 650 l 1397 0 l 1292 0 l 1292 417 l 244 417 l 244 0 l 139 0 l 139 568 q 170 722 139 650 q 256 847 201 793 q 381 931 310 900 q 533 963 453 963 l 1003 963 q 1156 931 1085 963 q 1282 847 1228 900 m 1292 522 l 1292 571 q 1269 681 1292 629 q 1206 772 1246 733 q 1114 834 1167 811 q 1003 857 1061 857 l 531 857 q 420 834 472 857 q 329 772 368 811 q 267 680 290 732 q 244 568 244 628 l 244 522 l 1292 522 z "},"Ä":{"ha":1494,"x_min":139,"x_max":1397,"o":"m 1282 847 q 1366 722 1335 793 q 1397 568 1397 650 l 1397 0 l 1292 0 l 1292 417 l 244 417 l 244 0 l 139 0 l 139 568 q 170 722 139 650 q 256 847 201 793 q 381 931 310 900 q 533 963 453 963 l 1003 963 q 1156 931 1085 963 q 1282 847 1228 900 m 1292 522 l 1292 571 q 1269 681 1292 629 q 1206 772 1246 733 q 1114 834 1167 811 q 1003 857 1061 857 l 531 857 q 420 834 472 857 q 329 772 368 811 q 267 680 290 732 q 244 568 244 628 l 244 522 l 1292 522 m 514 1097 l 514 1222 l 633 1222 l 633 1097 l 514 1097 m 917 1097 l 917 1222 l 1036 1222 l 1036 1097 l 917 1097 z "},"À":{"ha":1489,"x_min":139,"x_max":1397,"o":"m 639 1333 l 903 1071 l 828 996 l 564 1258 l 639 1333 m 1282 847 q 1366 722 1335 793 q 1397 568 1397 650 l 1397 0 l 1292 0 l 1292 417 l 244 417 l 244 0 l 139 0 l 139 568 q 170 722 139 650 q 256 847 201 793 q 381 931 310 900 q 533 963 453 963 l 1003 963 q 1156 931 1085 963 q 1282 847 1228 900 m 1292 522 l 1292 571 q 1269 681 1292 629 q 1206 772 1246 733 q 1114 834 1167 811 q 1003 857 1061 857 l 531 857 q 420 834 472 857 q 329 772 368 811 q 267 680 290 732 q 244 568 244 628 l 244 522 l 1292 522 z "},"Å":{"ha":1488,"x_min":139,"x_max":1397,"o":"m 1282 847 q 1366 722 1335 793 q 1397 568 1397 650 l 1397 0 l 1292 0 l 1292 417 l 244 417 l 244 0 l 139 0 l 139 568 q 170 722 139 650 q 256 847 201 793 q 381 931 310 900 q 533 963 453 963 l 1003 963 q 1156 931 1085 963 q 1282 847 1228 900 m 1292 522 l 1292 571 q 1269 681 1292 629 q 1206 772 1246 733 q 1114 834 1167 811 q 1003 857 1061 857 l 531 857 q 420 834 472 857 q 329 772 368 811 q 267 680 290 732 q 244 568 244 628 l 244 522 l 1292 522 m 845 1005 l 664 1005 q 553 1051 599 1005 q 520 1100 532 1071 q 508 1161 508 1129 l 508 1177 q 520 1239 508 1210 q 553 1288 532 1267 q 603 1323 574 1310 q 664 1336 632 1336 l 845 1336 q 906 1323 877 1336 q 956 1290 935 1311 q 990 1239 978 1268 q 1002 1177 1002 1210 l 1002 1161 q 990 1101 1002 1129 q 956 1051 978 1073 q 906 1017 935 1030 q 845 1005 878 1005 m 605 1237 q 580 1177 580 1213 l 580 1161 q 604 1102 580 1126 q 664 1078 628 1078 l 845 1078 q 905 1102 879 1078 q 930 1161 930 1126 l 930 1177 q 905 1237 930 1213 q 845 1262 879 1262 l 664 1262 q 605 1237 629 1262 z "},"Ã":{"ha":1489,"x_min":139,"x_max":1397,"o":"m 976 1022 q 919 1030 949 1022 q 860 1054 890 1038 l 567 1203 q 534 1216 549 1213 q 507 1219 519 1219 q 483 1211 496 1219 q 471 1167 471 1203 l 471 1043 l 375 1043 l 375 1168 q 411 1281 375 1242 q 501 1315 446 1315 q 617 1283 557 1315 l 910 1135 q 969 1117 946 1117 q 993 1125 981 1117 q 1006 1169 1006 1133 l 1006 1293 l 1103 1293 l 1103 1168 q 1065 1057 1103 1094 q 976 1022 1032 1022 m 1282 847 q 1366 722 1335 793 q 1397 568 1397 650 l 1397 0 l 1292 0 l 1292 417 l 244 417 l 244 0 l 139 0 l 139 568 q 170 722 139 650 q 256 847 201 793 q 381 931 310 900 q 533 963 453 963 l 1003 963 q 1156 931 1085 963 q 1282 847 1228 900 m 1292 522 l 1292 571 q 1269 681 1292 629 q 1206 772 1246 733 q 1114 834 1167 811 q 1003 857 1061 857 l 531 857 q 420 834 472 857 q 329 772 368 811 q 267 680 290 732 q 244 568 244 628 l 244 522 l 1292 522 z "},"Ç":{"ha":1588,"x_min":139,"x_max":1346,"o":"m 721 -331 l 585 -331 l 585 -232 l 726 -232 q 786 -204 763 -232 q 810 -142 810 -176 l 810 3 l 910 3 l 910 -142 q 895 -212 910 -178 q 855 -272 881 -246 q 794 -315 829 -299 q 721 -331 760 -331 m 256 115 q 170 241 201 169 q 139 394 139 313 l 139 568 q 170 721 139 649 q 255 847 201 793 q 381 931 308 900 q 535 963 453 963 l 1346 963 l 1346 857 l 535 857 q 422 834 475 857 q 330 772 369 811 q 267 680 290 732 q 244 568 244 628 l 244 394 q 267 283 244 336 q 329 191 290 231 q 420 128 368 151 q 532 106 472 106 l 1346 106 l 1346 0 l 535 0 q 381 31 453 0 q 256 115 308 63 z "},"É":{"ha":1468,"x_min":139,"x_max":1346,"o":"m 1013 1258 l 749 996 l 674 1071 l 938 1333 l 1013 1258 m 329 772 q 267 680 289 732 q 244 568 244 628 l 244 533 l 1346 533 l 1346 428 l 244 428 l 244 392 q 267 281 244 333 q 330 190 290 229 q 422 128 369 151 q 533 106 475 106 l 1346 106 l 1346 0 l 533 0 q 380 31 451 0 q 255 117 308 63 q 170 242 201 171 q 139 394 139 314 l 139 568 q 170 722 139 650 q 256 847 201 793 q 381 931 310 900 q 533 963 453 963 l 1346 963 l 1346 857 l 533 857 q 422 835 474 857 q 329 772 369 813 z "},"Ê":{"ha":1468,"x_min":139,"x_max":1346,"o":"m 818 1225 l 424 1038 l 378 1133 l 818 1342 l 1258 1133 l 1213 1038 l 818 1225 m 329 772 q 267 680 289 732 q 244 568 244 628 l 244 533 l 1346 533 l 1346 428 l 244 428 l 244 392 q 267 281 244 333 q 330 190 290 229 q 422 128 369 151 q 533 106 475 106 l 1346 106 l 1346 0 l 533 0 q 380 31 451 0 q 255 117 308 63 q 170 242 201 171 q 139 394 139 314 l 139 568 q 170 722 139 650 q 256 847 201 793 q 381 931 310 900 q 533 963 453 963 l 1346 963 l 1346 857 l 533 857 q 422 835 474 857 q 329 772 369 813 z "},"Ë":{"ha":1468,"x_min":139,"x_max":1346,"o":"m 579 1124 l 579 1249 l 699 1249 l 699 1124 l 579 1124 m 982 1124 l 982 1249 l 1101 1249 l 1101 1124 l 982 1124 m 329 772 q 267 680 289 732 q 244 568 244 628 l 244 533 l 1346 533 l 1346 428 l 244 428 l 244 392 q 267 281 244 333 q 330 190 290 229 q 422 128 369 151 q 533 106 475 106 l 1346 106 l 1346 0 l 533 0 q 380 31 451 0 q 255 117 308 63 q 170 242 201 171 q 139 394 139 314 l 139 568 q 170 722 139 650 q 256 847 201 793 q 381 931 310 900 q 533 963 453 963 l 1346 963 l 1346 857 l 533 857 q 422 835 474 857 q 329 772 369 813 z "},"È":{"ha":1468,"x_min":139,"x_max":1346,"o":"m 664 1333 l 928 1071 l 853 996 l 589 1258 l 664 1333 m 329 772 q 267 680 289 732 q 244 568 244 628 l 244 533 l 1346 533 l 1346 428 l 244 428 l 244 392 q 267 281 244 333 q 330 190 290 229 q 422 128 369 151 q 533 106 475 106 l 1346 106 l 1346 0 l 533 0 q 380 31 451 0 q 255 117 308 63 q 170 242 201 171 q 139 394 139 314 l 139 568 q 170 722 139 650 q 256 847 201 793 q 381 931 310 900 q 533 963 453 963 l 1346 963 l 1346 857 l 533 857 q 422 835 474 857 q 329 772 369 813 z "},"Í":{"ha":335,"x_min":-3,"x_max":336,"o":"m 139 0 l 139 963 l 244 963 l 244 0 l 139 0 m 336 1256 l 72 993 l -3 1068 l 261 1331 l 336 1256 z "},"Î":{"ha":335,"x_min":-242,"x_max":639,"o":"m 139 0 l 139 963 l 244 963 l 244 0 l 139 0 m 199 1194 l -196 1007 l -242 1103 l 199 1311 l 639 1103 l 593 1007 l 199 1194 z "},"Ï":{"ha":643,"x_min":49,"x_max":594,"o":"m 276 0 l 276 972 l 367 972 l 367 0 l 276 0 m 49 1249 l 183 1249 l 183 1125 l 49 1125 l 49 1249 m 460 1249 l 594 1249 l 594 1125 l 460 1125 l 460 1249 z "},"Ì":{"ha":335,"x_min":1,"x_max":340,"o":"m 139 0 l 139 963 l 244 963 l 244 0 l 139 0 m 76 1331 l 340 1068 l 265 993 l 1 1256 l 76 1331 z "},"Ñ":{"ha":1615,"x_min":139,"x_max":1403,"o":"m 1025 1022 q 968 1030 997 1022 q 908 1054 939 1038 l 615 1203 q 583 1216 597 1213 q 556 1219 568 1219 q 532 1211 544 1219 q 519 1167 519 1203 l 519 1043 l 424 1043 l 424 1168 q 460 1281 424 1242 q 550 1315 494 1315 q 665 1283 606 1315 l 958 1135 q 1018 1117 994 1117 q 1042 1125 1029 1117 q 1054 1169 1054 1133 l 1054 1293 l 1151 1293 l 1151 1168 q 1114 1057 1151 1094 q 1025 1022 1081 1022 m 1126 8 q 1094 26 1107 17 q 1061 60 1081 36 l 399 840 q 369 862 386 856 q 333 868 353 868 q 274 849 301 868 q 244 793 246 829 l 244 0 l 139 0 l 139 803 l 140 807 q 161 877 143 846 q 206 931 179 908 q 267 964 233 953 q 336 975 301 975 q 415 959 376 975 q 481 907 453 943 l 1143 126 q 1173 104 1156 111 q 1208 97 1190 97 q 1267 117 1240 97 q 1296 174 1293 138 l 1296 965 l 1403 965 l 1403 164 q 1381 93 1399 125 q 1335 38 1363 61 q 1275 3 1308 15 q 1207 -10 1242 -10 q 1126 8 1164 -10 z "},"Ó":{"ha":1700,"x_min":139,"x_max":1643,"o":"m 1129 1258 l 865 996 l 790 1071 l 1054 1333 l 1129 1258 m 533 0 q 380 31 451 0 q 255 116 308 63 q 170 241 201 169 q 139 394 139 313 l 139 568 q 170 721 139 649 q 255 847 201 793 q 380 931 308 900 q 533 963 451 963 l 1247 963 q 1401 931 1329 963 q 1527 847 1474 900 q 1612 721 1581 793 q 1643 568 1643 649 l 1643 394 q 1612 241 1643 313 q 1527 116 1581 169 q 1401 31 1474 63 q 1247 0 1329 0 l 533 0 m 244 568 l 244 394 q 267 283 244 335 q 330 191 290 231 q 422 128 369 151 q 533 106 474 106 l 1247 106 q 1360 128 1307 106 q 1452 191 1413 151 q 1515 283 1492 231 q 1538 394 1538 335 l 1538 568 q 1515 680 1538 628 q 1452 772 1492 732 q 1360 834 1413 811 q 1247 857 1307 857 l 533 857 q 422 834 474 857 q 330 772 369 811 q 267 680 290 732 q 244 568 244 628 z "},"Ô":{"ha":1700,"x_min":139,"x_max":1643,"o":"m 867 1225 l 472 1038 l 426 1133 l 867 1342 l 1307 1133 l 1261 1038 l 867 1225 m 533 0 q 380 31 451 0 q 255 116 308 63 q 170 241 201 169 q 139 394 139 313 l 139 568 q 170 721 139 649 q 255 847 201 793 q 380 931 308 900 q 533 963 451 963 l 1247 963 q 1401 931 1329 963 q 1527 847 1474 900 q 1612 721 1581 793 q 1643 568 1643 649 l 1643 394 q 1612 241 1643 313 q 1527 116 1581 169 q 1401 31 1474 63 q 1247 0 1329 0 l 533 0 m 244 568 l 244 394 q 267 283 244 335 q 330 191 290 231 q 422 128 369 151 q 533 106 474 106 l 1247 106 q 1360 128 1307 106 q 1452 191 1413 151 q 1515 283 1492 231 q 1538 394 1538 335 l 1538 568 q 1515 680 1538 628 q 1452 772 1492 732 q 1360 834 1413 811 q 1247 857 1307 857 l 533 857 q 422 834 474 857 q 330 772 369 811 q 267 680 290 732 q 244 568 244 628 z "},"Ö":{"ha":1700,"x_min":139,"x_max":1643,"o":"m 621 1124 l 621 1249 l 740 1249 l 740 1124 l 621 1124 m 1024 1124 l 1024 1249 l 1143 1249 l 1143 1124 l 1024 1124 m 533 0 q 380 31 451 0 q 255 116 308 63 q 170 241 201 169 q 139 394 139 313 l 139 568 q 170 721 139 649 q 255 847 201 793 q 380 931 308 900 q 533 963 451 963 l 1247 963 q 1401 931 1329 963 q 1527 847 1474 900 q 1612 721 1581 793 q 1643 568 1643 649 l 1643 394 q 1612 241 1643 313 q 1527 116 1581 169 q 1401 31 1474 63 q 1247 0 1329 0 l 533 0 m 244 568 l 244 394 q 267 283 244 335 q 330 191 290 231 q 422 128 369 151 q 533 106 474 106 l 1247 106 q 1360 128 1307 106 q 1452 191 1413 151 q 1515 283 1492 231 q 1538 394 1538 335 l 1538 568 q 1515 680 1538 628 q 1452 772 1492 732 q 1360 834 1413 811 q 1247 857 1307 857 l 533 857 q 422 834 474 857 q 330 772 369 811 q 267 680 290 732 q 244 568 244 628 z "},"Ò":{"ha":1700,"x_min":139,"x_max":1643,"o":"m 717 1333 l 981 1071 l 906 996 l 642 1258 l 717 1333 m 533 0 q 380 31 451 0 q 255 116 308 63 q 170 241 201 169 q 139 394 139 313 l 139 568 q 170 721 139 649 q 255 847 201 793 q 380 931 308 900 q 533 963 451 963 l 1247 963 q 1401 931 1329 963 q 1527 847 1474 900 q 1612 721 1581 793 q 1643 568 1643 649 l 1643 394 q 1612 241 1643 313 q 1527 116 1581 169 q 1401 31 1474 63 q 1247 0 1329 0 l 533 0 m 244 568 l 244 394 q 267 283 244 335 q 330 191 290 231 q 422 128 369 151 q 533 106 474 106 l 1247 106 q 1360 128 1307 106 q 1452 191 1413 151 q 1515 283 1492 231 q 1538 394 1538 335 l 1538 568 q 1515 680 1538 628 q 1452 772 1492 732 q 1360 834 1413 811 q 1247 857 1307 857 l 533 857 q 422 834 474 857 q 330 772 369 811 q 267 680 290 732 q 244 568 244 628 z "},"Õ":{"ha":1700,"x_min":139,"x_max":1643,"o":"m 1082 1022 q 1025 1030 1054 1022 q 965 1054 996 1038 l 672 1203 q 640 1216 654 1213 q 613 1219 625 1219 q 589 1211 601 1219 q 576 1167 576 1203 l 576 1043 l 481 1043 l 481 1168 q 517 1281 481 1242 q 607 1315 551 1315 q 722 1283 663 1315 l 1015 1135 q 1075 1117 1051 1117 q 1099 1125 1086 1117 q 1111 1169 1111 1133 l 1111 1293 l 1208 1293 l 1208 1168 q 1171 1057 1208 1094 q 1082 1022 1138 1022 m 533 0 q 380 31 451 0 q 255 116 308 63 q 170 241 201 169 q 139 394 139 313 l 139 568 q 170 721 139 649 q 255 847 201 793 q 380 931 308 900 q 533 963 451 963 l 1247 963 q 1401 931 1329 963 q 1527 847 1474 900 q 1612 721 1581 793 q 1643 568 1643 649 l 1643 394 q 1612 241 1643 313 q 1527 116 1581 169 q 1401 31 1474 63 q 1247 0 1329 0 l 533 0 m 244 568 l 244 394 q 267 283 244 335 q 330 191 290 231 q 422 128 369 151 q 533 106 474 106 l 1247 106 q 1360 128 1307 106 q 1452 191 1413 151 q 1515 283 1492 231 q 1538 394 1538 335 l 1538 568 q 1515 680 1538 628 q 1452 772 1492 732 q 1360 834 1413 811 q 1247 857 1307 857 l 533 857 q 422 834 474 857 q 330 772 369 811 q 267 680 290 732 q 244 568 244 628 z "},"Š":{"ha":1486,"x_min":86,"x_max":1324,"o":"m 1096 1342 l 1142 1246 l 701 1038 l 261 1246 l 307 1342 l 701 1154 l 1096 1342 m 1057 0 l 139 0 l 139 106 l 1057 106 q 1119 118 1090 106 q 1171 153 1149 131 q 1206 204 1193 175 q 1218 267 1218 233 q 1206 330 1218 300 q 1172 382 1193 360 q 1120 417 1150 404 q 1057 429 1090 429 l 353 429 q 250 450 299 429 q 165 507 201 471 q 107 592 128 543 q 86 696 86 640 q 107 801 86 751 q 164 886 128 850 q 249 944 200 922 q 353 965 297 965 l 1271 965 l 1271 860 l 353 860 q 290 847 318 860 q 240 812 261 833 q 206 761 218 790 q 192 699 193 732 q 242 582 197 629 q 353 535 286 535 l 1057 535 q 1161 514 1113 535 q 1246 457 1210 493 q 1303 372 1282 421 q 1324 268 1324 324 q 1303 164 1324 213 q 1246 78 1282 115 q 1161 21 1210 42 q 1057 0 1113 0 z "},"Ú":{"ha":1475,"x_min":139,"x_max":1322,"o":"m 910 1225 l 646 963 l 571 1038 l 835 1300 l 910 1225 m 256 115 q 170 241 201 169 q 139 394 139 313 l 139 963 l 244 963 l 244 394 q 267 283 244 336 q 329 191 290 231 q 420 128 368 151 q 532 106 472 106 l 928 106 q 1039 128 986 106 q 1131 190 1092 151 q 1194 281 1171 229 q 1217 392 1217 333 l 1217 963 l 1322 963 l 1322 394 q 1291 241 1322 313 q 1206 115 1260 169 q 1081 31 1153 63 q 928 0 1010 0 l 535 0 q 380 31 451 0 q 256 115 308 63 z "},"Û":{"ha":1506,"x_min":139,"x_max":1322,"o":"m 739 1225 l 344 1038 l 299 1133 l 739 1342 l 1179 1133 l 1133 1038 l 739 1225 m 256 115 q 170 241 201 169 q 139 394 139 313 l 139 963 l 244 963 l 244 394 q 267 283 244 336 q 329 191 290 231 q 420 128 368 151 q 532 106 472 106 l 928 106 q 1039 128 986 106 q 1131 190 1092 151 q 1194 281 1171 229 q 1217 392 1217 333 l 1217 963 l 1322 963 l 1322 394 q 1291 241 1322 313 q 1206 115 1260 169 q 1081 31 1153 63 q 928 0 1010 0 l 535 0 q 380 31 451 0 q 256 115 308 63 z "},"Ü":{"ha":1529,"x_min":139,"x_max":1322,"o":"m 469 849 l 469 974 l 589 974 l 589 849 l 469 849 m 872 849 l 872 974 l 992 974 l 992 849 l 872 849 m 256 115 q 170 241 201 169 q 139 394 139 313 l 139 963 l 244 963 l 244 394 q 267 283 244 336 q 329 191 290 231 q 420 128 368 151 q 532 106 472 106 l 928 106 q 1039 128 986 106 q 1131 190 1092 151 q 1194 281 1171 229 q 1217 392 1217 333 l 1217 963 l 1322 963 l 1322 394 q 1291 241 1322 313 q 1206 115 1260 169 q 1081 31 1153 63 q 928 0 1010 0 l 535 0 q 380 31 451 0 q 256 115 308 63 z "},"Ù":{"ha":1429,"x_min":139,"x_max":1322,"o":"m 596 1333 l 860 1071 l 785 996 l 521 1258 l 596 1333 m 256 115 q 170 241 201 169 q 139 394 139 313 l 139 963 l 244 963 l 244 394 q 267 283 244 336 q 329 191 290 231 q 420 128 368 151 q 532 106 472 106 l 928 106 q 1039 128 986 106 q 1131 190 1092 151 q 1194 281 1171 229 q 1217 392 1217 333 l 1217 963 l 1322 963 l 1322 394 q 1291 241 1322 313 q 1206 115 1260 169 q 1081 31 1153 63 q 928 0 1010 0 l 535 0 q 380 31 451 0 q 256 115 308 63 z "},"Ý":{"ha":1508,"x_min":139,"x_max":1322,"o":"m 907 1224 l 643 961 l 568 1036 l 832 1299 l 907 1224 m 682 0 l 682 306 l 535 306 q 380 337 451 306 q 256 421 308 368 q 170 547 201 475 q 139 700 139 618 l 139 963 l 244 963 l 244 700 q 267 589 244 642 q 329 497 290 536 q 420 434 368 457 q 532 411 472 411 l 928 411 q 1039 434 986 411 q 1131 496 1092 457 q 1194 587 1171 535 q 1217 697 1217 639 l 1217 963 l 1322 963 l 1322 700 q 1291 547 1322 618 q 1206 421 1260 475 q 1081 337 1153 368 q 928 306 1010 306 l 788 306 l 788 0 l 682 0 z "},"Ÿ":{"ha":1508,"x_min":139,"x_max":1322,"o":"m 476 849 l 476 974 l 596 974 l 596 849 l 476 849 m 879 849 l 879 974 l 999 974 l 999 849 l 879 849 m 682 0 l 682 306 l 535 306 q 380 337 451 306 q 256 421 308 368 q 170 547 201 475 q 139 700 139 618 l 139 963 l 244 963 l 244 700 q 267 589 244 642 q 329 497 290 536 q 420 434 368 457 q 532 411 472 411 l 928 411 q 1039 434 986 411 q 1131 496 1092 457 q 1194 587 1171 535 q 1217 697 1217 639 l 1217 963 l 1322 963 l 1322 700 q 1291 547 1322 618 q 1206 421 1260 475 q 1081 337 1153 368 q 928 306 1010 306 l 788 306 l 788 0 l 682 0 z "},"Ž":{"ha":1514,"x_min":124,"x_max":1361,"o":"m 1119 1342 l 1165 1246 l 725 1038 l 285 1246 l 331 1342 l 725 1154 l 1119 1342 m 303 0 q 225 18 258 0 q 169 65 192 36 q 135 128 146 93 q 124 199 124 164 q 141 280 124 249 q 181 331 158 311 q 238 363 206 351 l 1190 694 q 1203 700 1192 696 q 1225 713 1214 704 q 1246 735 1236 721 q 1256 772 1256 750 q 1253 792 1256 778 q 1244 820 1251 806 q 1222 846 1238 835 q 1179 857 1206 857 l 133 857 l 133 963 l 1189 963 q 1281 935 1247 963 q 1333 874 1315 908 q 1356 810 1350 840 q 1361 772 1361 779 q 1347 693 1361 724 q 1315 644 1332 663 q 1271 613 1296 624 l 275 264 q 238 232 247 251 q 228 193 228 213 q 248 135 228 161 q 304 106 268 108 l 1351 106 l 1351 0 l 303 0 z "},"á":{"ha":1611,"x_min":139,"x_max":1375,"o":"m 447 0 q 276 48 353 0 q 164 178 200 96 q 139 293 139 232 q 163 409 139 356 q 229 502 188 463 q 326 565 271 542 q 442 588 381 588 l 1269 588 l 1269 653 q 1253 732 1269 694 q 1208 797 1236 769 q 1142 840 1179 824 q 1064 857 1106 857 l 365 857 l 365 963 l 1064 963 q 1185 938 1128 963 q 1283 872 1242 914 q 1350 773 1325 829 q 1375 653 1375 717 l 1375 -1 l 447 0 m 333 449 q 268 382 292 422 q 244 293 244 342 q 260 219 244 253 q 303 160 276 185 q 366 120 331 135 q 442 106 401 106 l 1269 106 l 1269 482 l 447 482 q 386 473 415 482 q 333 449 357 464 m 1071 1258 l 807 996 l 732 1071 l 996 1333 l 1071 1258 z "},"â":{"ha":1611,"x_min":139,"x_max":1375,"o":"m 447 0 q 276 48 353 0 q 164 178 200 96 q 139 293 139 232 q 163 409 139 356 q 229 502 188 463 q 326 565 271 542 q 442 588 381 588 l 1269 588 l 1269 653 q 1253 732 1269 694 q 1208 797 1236 769 q 1142 840 1179 824 q 1064 857 1106 857 l 365 857 l 365 963 l 1064 963 q 1185 938 1128 963 q 1283 872 1242 914 q 1350 773 1325 829 q 1375 653 1375 717 l 1375 -1 l 447 0 m 333 449 q 268 382 292 422 q 244 293 244 342 q 260 219 244 253 q 303 160 276 185 q 366 120 331 135 q 442 106 401 106 l 1269 106 l 1269 482 l 447 482 q 386 473 415 482 q 333 449 357 464 m 808 1225 l 414 1038 l 368 1133 l 808 1342 l 1249 1133 l 1203 1038 l 808 1225 z "},"ä":{"ha":1611,"x_min":139,"x_max":1375,"o":"m 447 0 q 276 48 353 0 q 164 178 200 96 q 139 293 139 232 q 163 409 139 356 q 229 502 188 463 q 326 565 271 542 q 442 588 381 588 l 1269 588 l 1269 653 q 1253 732 1269 694 q 1208 797 1236 769 q 1142 840 1179 824 q 1064 857 1106 857 l 365 857 l 365 963 l 1064 963 q 1185 938 1128 963 q 1283 872 1242 914 q 1350 773 1325 829 q 1375 653 1375 717 l 1375 -1 l 447 0 m 333 449 q 268 382 292 422 q 244 293 244 342 q 260 219 244 253 q 303 160 276 185 q 366 120 331 135 q 442 106 401 106 l 1269 106 l 1269 482 l 447 482 q 386 473 415 482 q 333 449 357 464 m 535 1079 l 535 1204 l 654 1204 l 654 1079 l 535 1079 m 938 1079 l 938 1204 l 1057 1204 l 1057 1079 l 938 1079 z "},"à":{"ha":1611,"x_min":139,"x_max":1375,"o":"m 447 0 q 276 48 353 0 q 164 178 200 96 q 139 293 139 232 q 163 409 139 356 q 229 502 188 463 q 326 565 271 542 q 442 588 381 588 l 1269 588 l 1269 653 q 1253 732 1269 694 q 1208 797 1236 769 q 1142 840 1179 824 q 1064 857 1106 857 l 365 857 l 365 963 l 1064 963 q 1185 938 1128 963 q 1283 872 1242 914 q 1350 773 1325 829 q 1375 653 1375 717 l 1375 -1 l 447 0 m 333 449 q 268 382 292 422 q 244 293 244 342 q 260 219 244 253 q 303 160 276 185 q 366 120 331 135 q 442 106 401 106 l 1269 106 l 1269 482 l 447 482 q 386 473 415 482 q 333 449 357 464 m 658 1333 l 922 1071 l 847 996 l 583 1258 l 658 1333 z "},"å":{"ha":1611,"x_min":139,"x_max":1375,"o":"m 447 0 q 276 48 353 0 q 164 178 200 96 q 139 293 139 232 q 163 409 139 356 q 229 502 188 463 q 326 565 271 542 q 442 588 381 588 l 1269 588 l 1269 653 q 1253 732 1269 694 q 1208 797 1236 769 q 1142 840 1179 824 q 1064 857 1106 857 l 365 857 l 365 963 l 1064 963 q 1185 938 1128 963 q 1283 872 1242 914 q 1350 773 1325 829 q 1375 653 1375 717 l 1375 -1 l 447 0 m 333 449 q 268 382 292 422 q 244 293 244 342 q 260 219 244 253 q 303 160 276 185 q 366 120 331 135 q 442 106 401 106 l 1269 106 l 1269 482 l 447 482 q 386 473 415 482 q 333 449 357 464 m 911 1049 l 706 1049 q 581 1100 632 1049 q 543 1156 557 1124 q 529 1225 529 1189 l 529 1243 q 543 1313 529 1281 q 581 1369 557 1344 q 637 1408 604 1393 q 706 1422 669 1422 l 911 1422 q 980 1408 947 1422 q 1037 1370 1013 1394 q 1075 1313 1061 1346 q 1089 1243 1089 1281 l 1089 1225 q 1075 1157 1089 1189 q 1037 1101 1061 1125 q 981 1063 1013 1076 q 911 1049 949 1049 m 639 1311 q 611 1243 611 1283 l 611 1225 q 638 1158 611 1185 q 706 1131 665 1131 l 911 1131 q 978 1158 950 1131 q 1007 1225 1007 1185 l 1007 1243 q 978 1311 1007 1283 q 911 1339 950 1339 l 706 1339 q 639 1311 667 1339 z "},"ã":{"ha":1611,"x_min":139,"x_max":1375,"o":"m 447 0 q 276 48 353 0 q 164 178 200 96 q 139 293 139 232 q 163 409 139 356 q 229 502 188 463 q 326 565 271 542 q 442 588 381 588 l 1269 588 l 1269 653 q 1253 732 1269 694 q 1208 797 1236 769 q 1142 840 1179 824 q 1064 857 1106 857 l 365 857 l 365 963 l 1064 963 q 1185 938 1128 963 q 1283 872 1242 914 q 1350 773 1325 829 q 1375 653 1375 717 l 1375 -1 l 447 0 m 333 449 q 268 382 292 422 q 244 293 244 342 q 260 219 244 253 q 303 160 276 185 q 366 120 331 135 q 442 106 401 106 l 1269 106 l 1269 482 l 447 482 q 386 473 415 482 q 333 449 357 464 m 1024 1022 q 967 1030 996 1022 q 907 1054 938 1038 l 614 1203 q 581 1216 596 1213 q 554 1219 567 1219 q 531 1211 543 1219 q 518 1167 518 1203 l 518 1043 l 422 1043 l 422 1168 q 458 1281 422 1242 q 549 1315 493 1315 q 664 1283 604 1315 l 957 1135 q 1017 1117 993 1117 q 1040 1125 1028 1117 q 1053 1169 1053 1133 l 1053 1293 l 1150 1293 l 1150 1168 q 1113 1057 1150 1094 q 1024 1022 1079 1022 z "},"ç":{"ha":1588,"x_min":139,"x_max":1346,"o":"m 721 -333 l 585 -333 l 585 -235 l 726 -235 q 786 -207 763 -235 q 810 -144 810 -179 l 810 0 l 910 0 l 910 -144 q 895 -215 910 -181 q 855 -275 881 -249 q 794 -317 829 -301 q 721 -333 760 -333 m 256 115 q 170 241 201 169 q 139 394 139 313 l 139 568 q 170 721 139 649 q 255 847 201 793 q 381 931 308 900 q 535 963 453 963 l 1346 963 l 1346 857 l 535 857 q 422 834 475 857 q 330 772 369 811 q 267 680 290 732 q 244 568 244 628 l 244 394 q 267 283 244 336 q 329 191 290 231 q 420 128 368 151 q 532 106 472 106 l 1346 106 l 1346 0 l 535 0 q 381 31 453 0 q 256 115 308 63 z "},"é":{"ha":1478,"x_min":140,"x_max":1404,"o":"m 140 671 q 166 785 140 732 q 234 878 192 839 q 332 939 276 917 q 450 961 388 961 l 1100 961 q 1216 938 1161 961 q 1313 875 1271 915 q 1379 781 1354 835 q 1404 667 1404 728 q 1379 551 1404 604 q 1311 458 1354 497 q 1213 395 1268 418 q 1094 372 1157 372 l 246 372 l 246 240 q 270 179 251 204 q 317 138 289 154 q 379 113 344 121 q 450 106 414 106 l 1331 106 l 1331 0 l 443 0 q 337 17 390 0 q 240 64 283 33 q 169 139 197 94 q 140 240 142 183 l 140 671 m 450 856 q 383 842 419 856 q 317 803 347 828 q 266 745 286 779 q 246 671 246 711 l 246 478 l 1100 478 q 1175 492 1139 478 q 1239 533 1211 507 q 1283 592 1267 558 q 1299 667 1299 626 q 1282 742 1299 707 q 1237 801 1265 776 q 1172 841 1208 826 q 1094 856 1135 856 l 450 856 m 918 1256 l 654 993 l 579 1068 l 843 1331 l 918 1256 z "},"ê":{"ha":1474,"x_min":142,"x_max":1406,"o":"m 142 671 q 167 785 142 732 q 235 878 193 839 q 333 939 278 917 q 451 961 389 961 l 1101 961 q 1217 938 1163 961 q 1314 875 1272 915 q 1381 781 1356 835 q 1406 667 1406 728 q 1381 551 1406 604 q 1313 458 1356 497 q 1214 395 1269 418 q 1096 372 1158 372 l 247 372 l 247 240 q 272 179 253 204 q 318 138 290 154 q 381 113 346 121 q 451 106 415 106 l 1332 106 l 1332 0 l 444 0 q 338 17 392 0 q 242 64 285 33 q 171 139 199 94 q 142 240 143 183 l 142 671 m 451 856 q 385 842 421 856 q 318 803 349 828 q 267 745 288 779 q 247 671 247 711 l 247 478 l 1101 478 q 1176 492 1140 478 q 1240 533 1213 507 q 1284 592 1268 558 q 1300 667 1300 626 q 1283 742 1300 707 q 1238 801 1267 776 q 1173 841 1210 826 q 1096 856 1136 856 l 451 856 m 824 1225 l 429 1038 l 383 1133 l 824 1342 l 1264 1133 l 1218 1038 l 824 1225 z "},"ë":{"ha":1474,"x_min":142,"x_max":1406,"o":"m 142 671 q 167 785 142 732 q 235 878 193 839 q 333 939 278 917 q 451 961 389 961 l 1101 961 q 1217 938 1163 961 q 1314 875 1272 915 q 1381 781 1356 835 q 1406 667 1406 728 q 1381 551 1406 604 q 1313 458 1356 497 q 1214 395 1269 418 q 1096 372 1158 372 l 247 372 l 247 240 q 272 179 253 204 q 318 138 290 154 q 381 113 346 121 q 451 106 415 106 l 1332 106 l 1332 0 l 444 0 q 338 17 392 0 q 242 64 285 33 q 171 139 199 94 q 142 240 143 183 l 142 671 m 451 856 q 385 842 421 856 q 318 803 349 828 q 267 745 288 779 q 247 671 247 711 l 247 478 l 1101 478 q 1176 492 1140 478 q 1240 533 1213 507 q 1284 592 1268 558 q 1300 667 1300 626 q 1283 742 1300 707 q 1238 801 1267 776 q 1173 841 1210 826 q 1096 856 1136 856 l 451 856 m 483 1121 l 483 1246 l 603 1246 l 603 1121 l 483 1121 m 886 1121 l 886 1246 l 1006 1246 l 1006 1121 l 886 1121 z "},"è":{"ha":1600,"x_min":140,"x_max":1404,"o":"m 674 1333 l 938 1071 l 863 996 l 599 1258 l 674 1333 m 140 671 q 166 785 140 732 q 234 878 192 839 q 332 939 276 917 q 450 961 388 961 l 1100 961 q 1216 938 1161 961 q 1313 875 1271 915 q 1379 781 1354 835 q 1404 667 1404 728 q 1379 551 1404 604 q 1311 458 1354 497 q 1213 395 1268 418 q 1094 372 1157 372 l 246 372 l 246 240 q 270 179 251 204 q 317 138 289 154 q 379 113 344 121 q 450 106 414 106 l 1331 106 l 1331 0 l 443 0 q 337 17 390 0 q 240 64 283 33 q 169 139 197 94 q 140 240 142 183 l 140 671 m 450 856 q 383 842 419 856 q 317 803 347 828 q 266 745 286 779 q 246 671 246 711 l 246 478 l 1100 478 q 1175 492 1139 478 q 1239 533 1211 507 q 1283 592 1267 558 q 1299 667 1299 626 q 1282 742 1299 707 q 1237 801 1265 776 q 1172 841 1208 826 q 1094 856 1135 856 l 450 856 z "},"í":{"ha":368,"x_min":25,"x_max":364,"o":"m 139 0 l 139 963 l 244 963 l 244 0 l 139 0 m 364 1256 l 100 993 l 25 1068 l 289 1331 l 364 1256 z "},"î":{"ha":368,"x_min":-250,"x_max":631,"o":"m 139 0 l 139 963 l 244 963 l 244 0 l 139 0 m 190 1222 l -204 1035 l -250 1131 l 190 1339 l 631 1131 l 585 1035 l 190 1222 z "},"ï":{"ha":368,"x_min":-67,"x_max":456,"o":"m 139 0 l 139 963 l 244 963 l 244 0 l 139 0 m -67 1097 l -67 1222 l 53 1222 l 53 1097 l -67 1097 m 336 1097 l 336 1222 l 456 1222 l 456 1097 l 336 1097 z "},"ì":{"ha":368,"x_min":26,"x_max":365,"o":"m 139 0 l 139 963 l 244 963 l 244 0 l 139 0 m 101 1331 l 365 1068 l 290 993 l 26 1256 l 101 1331 z "},"ñ":{"ha":1615,"x_min":139,"x_max":1322,"o":"m 928 963 q 1081 931 1008 963 q 1206 847 1153 900 q 1291 721 1260 793 q 1322 567 1322 649 l 1322 0 l 1217 0 l 1217 567 q 1194 678 1217 625 q 1132 770 1171 731 q 1041 833 1093 810 q 931 857 989 857 l 244 857 l 244 0 l 139 0 l 139 963 l 928 963 m 911 1022 q 854 1030 883 1022 q 794 1054 825 1038 l 501 1203 q 469 1216 483 1213 q 442 1219 454 1219 q 418 1211 431 1219 q 406 1167 406 1203 l 406 1043 l 310 1043 l 310 1168 q 346 1281 310 1242 q 436 1315 381 1315 q 551 1283 492 1315 l 844 1135 q 904 1117 881 1117 q 928 1125 915 1117 q 940 1169 940 1133 l 940 1293 l 1038 1293 l 1038 1168 q 1000 1057 1038 1094 q 911 1022 967 1022 z "},"ó":{"ha":1700,"x_min":139,"x_max":1643,"o":"m 1129 1258 l 865 996 l 790 1071 l 1054 1333 l 1129 1258 m 533 0 q 380 31 451 0 q 255 116 308 63 q 170 241 201 169 q 139 394 139 313 l 139 568 q 170 721 139 649 q 255 847 201 793 q 380 931 308 900 q 533 963 451 963 l 1247 963 q 1401 931 1329 963 q 1527 847 1474 900 q 1612 721 1581 793 q 1643 568 1643 649 l 1643 394 q 1612 241 1643 313 q 1527 116 1581 169 q 1401 31 1474 63 q 1247 0 1329 0 l 533 0 m 244 568 l 244 394 q 267 283 244 335 q 330 191 290 231 q 422 128 369 151 q 533 106 474 106 l 1247 106 q 1360 128 1307 106 q 1452 191 1413 151 q 1515 283 1492 231 q 1538 394 1538 335 l 1538 568 q 1515 680 1538 628 q 1452 772 1492 732 q 1360 834 1413 811 q 1247 857 1307 857 l 533 857 q 422 834 474 857 q 330 772 369 811 q 267 680 290 732 q 244 568 244 628 z "},"ô":{"ha":1700,"x_min":139,"x_max":1643,"o":"m 867 1225 l 472 1038 l 426 1133 l 867 1342 l 1307 1133 l 1261 1038 l 867 1225 m 533 0 q 380 31 451 0 q 255 116 308 63 q 170 241 201 169 q 139 394 139 313 l 139 568 q 170 721 139 649 q 255 847 201 793 q 380 931 308 900 q 533 963 451 963 l 1247 963 q 1401 931 1329 963 q 1527 847 1474 900 q 1612 721 1581 793 q 1643 568 1643 649 l 1643 394 q 1612 241 1643 313 q 1527 116 1581 169 q 1401 31 1474 63 q 1247 0 1329 0 l 533 0 m 244 568 l 244 394 q 267 283 244 335 q 330 191 290 231 q 422 128 369 151 q 533 106 474 106 l 1247 106 q 1360 128 1307 106 q 1452 191 1413 151 q 1515 283 1492 231 q 1538 394 1538 335 l 1538 568 q 1515 680 1538 628 q 1452 772 1492 732 q 1360 834 1413 811 q 1247 857 1307 857 l 533 857 q 422 834 474 857 q 330 772 369 811 q 267 680 290 732 q 244 568 244 628 z "},"ö":{"ha":1788,"x_min":139,"x_max":1643,"o":"m 533 0 q 380 31 451 0 q 255 116 308 63 q 170 241 201 169 q 139 394 139 313 l 139 568 q 170 721 139 649 q 255 847 201 793 q 380 931 308 900 q 533 963 451 963 l 1247 963 q 1401 931 1329 963 q 1527 847 1474 900 q 1612 721 1581 793 q 1643 568 1643 649 l 1643 394 q 1612 241 1643 313 q 1527 116 1581 169 q 1401 31 1474 63 q 1247 0 1329 0 l 533 0 m 244 568 l 244 394 q 267 283 244 335 q 330 191 290 231 q 422 128 369 151 q 533 106 474 106 l 1247 106 q 1360 128 1307 106 q 1452 191 1413 151 q 1515 283 1492 231 q 1538 394 1538 335 l 1538 568 q 1515 680 1538 628 q 1452 772 1492 732 q 1360 834 1413 811 q 1247 857 1307 857 l 533 857 q 422 834 474 857 q 330 772 369 811 q 267 680 290 732 q 244 568 244 628 m 642 1121 l 642 1246 l 761 1246 l 761 1121 l 642 1121 m 1044 1121 l 1044 1246 l 1164 1246 l 1164 1121 l 1044 1121 z "},"ò":{"ha":1700,"x_min":139,"x_max":1643,"o":"m 717 1333 l 981 1071 l 906 996 l 642 1258 l 717 1333 m 533 0 q 380 31 451 0 q 255 116 308 63 q 170 241 201 169 q 139 394 139 313 l 139 568 q 170 721 139 649 q 255 847 201 793 q 380 931 308 900 q 533 963 451 963 l 1247 963 q 1401 931 1329 963 q 1527 847 1474 900 q 1612 721 1581 793 q 1643 568 1643 649 l 1643 394 q 1612 241 1643 313 q 1527 116 1581 169 q 1401 31 1474 63 q 1247 0 1329 0 l 533 0 m 244 568 l 244 394 q 267 283 244 335 q 330 191 290 231 q 422 128 369 151 q 533 106 474 106 l 1247 106 q 1360 128 1307 106 q 1452 191 1413 151 q 1515 283 1492 231 q 1538 394 1538 335 l 1538 568 q 1515 680 1538 628 q 1452 772 1492 732 q 1360 834 1413 811 q 1247 857 1307 857 l 533 857 q 422 834 474 857 q 330 772 369 811 q 267 680 290 732 q 244 568 244 628 z "},"õ":{"ha":1700,"x_min":139,"x_max":1643,"o":"m 1082 1022 q 1025 1030 1054 1022 q 965 1054 996 1038 l 672 1203 q 640 1216 654 1213 q 613 1219 625 1219 q 589 1211 601 1219 q 576 1167 576 1203 l 576 1043 l 481 1043 l 481 1168 q 517 1281 481 1242 q 607 1315 551 1315 q 722 1283 663 1315 l 1015 1135 q 1075 1117 1051 1117 q 1099 1125 1086 1117 q 1111 1169 1111 1133 l 1111 1293 l 1208 1293 l 1208 1168 q 1171 1057 1208 1094 q 1082 1022 1138 1022 m 533 0 q 380 31 451 0 q 255 116 308 63 q 170 241 201 169 q 139 394 139 313 l 139 568 q 170 721 139 649 q 255 847 201 793 q 380 931 308 900 q 533 963 451 963 l 1247 963 q 1401 931 1329 963 q 1527 847 1474 900 q 1612 721 1581 793 q 1643 568 1643 649 l 1643 394 q 1612 241 1643 313 q 1527 116 1581 169 q 1401 31 1474 63 q 1247 0 1329 0 l 533 0 m 244 568 l 244 394 q 267 283 244 335 q 330 191 290 231 q 422 128 369 151 q 533 106 474 106 l 1247 106 q 1360 128 1307 106 q 1452 191 1413 151 q 1515 283 1492 231 q 1538 394 1538 335 l 1538 568 q 1515 680 1538 628 q 1452 772 1492 732 q 1360 834 1413 811 q 1247 857 1307 857 l 533 857 q 422 834 474 857 q 330 772 369 811 q 267 680 290 732 q 244 568 244 628 z "},"š":{"ha":1486,"x_min":86,"x_max":1324,"o":"m 1106 1342 l 1151 1246 l 711 1038 l 271 1246 l 317 1342 l 711 1154 l 1106 1342 m 1057 0 l 139 0 l 139 106 l 1057 106 q 1119 118 1090 106 q 1171 153 1149 131 q 1206 204 1193 175 q 1218 267 1218 233 q 1206 330 1218 300 q 1172 382 1193 360 q 1120 417 1150 404 q 1057 429 1090 429 l 353 429 q 250 450 299 429 q 165 507 201 471 q 107 592 128 543 q 86 696 86 640 q 107 801 86 751 q 164 886 128 850 q 249 944 200 922 q 353 965 297 965 l 1271 965 l 1271 860 l 353 860 q 290 847 318 860 q 240 812 261 833 q 206 761 218 790 q 192 699 193 732 q 242 582 197 629 q 353 535 286 535 l 1057 535 q 1161 514 1113 535 q 1246 457 1210 493 q 1303 372 1282 421 q 1324 268 1324 324 q 1303 164 1324 213 q 1246 78 1282 115 q 1161 21 1210 42 q 1057 0 1113 0 z "},"ú":{"ha":1615,"x_min":139,"x_max":1322,"o":"m 533 0 q 380 31 451 0 q 255 116 308 63 q 170 242 201 169 q 139 396 139 314 l 139 963 l 244 963 l 244 396 q 267 285 244 338 q 329 192 290 232 q 420 129 368 153 q 531 106 472 106 l 1217 106 l 1217 963 l 1322 963 l 1322 0 l 533 0 m 1086 1232 l 822 969 l 747 1044 l 1011 1307 l 1086 1232 z "},"û":{"ha":1615,"x_min":139,"x_max":1322,"o":"m 533 0 q 380 31 451 0 q 255 116 308 63 q 170 242 201 169 q 139 396 139 314 l 139 963 l 244 963 l 244 396 q 267 285 244 338 q 329 192 290 232 q 420 129 368 153 q 531 106 472 106 l 1217 106 l 1217 963 l 1322 963 l 1322 0 l 533 0 m 824 1199 l 429 1011 l 383 1107 l 824 1315 l 1264 1107 l 1218 1011 l 824 1199 z "},"ü":{"ha":1615,"x_min":139,"x_max":1322,"o":"m 533 0 q 380 31 451 0 q 255 116 308 63 q 170 242 201 169 q 139 396 139 314 l 139 963 l 244 963 l 244 396 q 267 285 244 338 q 329 192 290 232 q 420 129 368 153 q 531 106 472 106 l 1217 106 l 1217 963 l 1322 963 l 1322 0 l 533 0 m 492 849 l 492 974 l 611 974 l 611 849 l 492 849 m 894 849 l 894 974 l 1014 974 l 1014 849 l 894 849 z "},"ù":{"ha":1615,"x_min":139,"x_max":1322,"o":"m 674 1307 l 938 1044 l 863 969 l 599 1232 l 674 1307 m 533 0 q 380 31 451 0 q 255 116 308 63 q 170 242 201 169 q 139 396 139 314 l 139 963 l 244 963 l 244 396 q 267 285 244 338 q 329 192 290 232 q 420 129 368 153 q 531 106 472 106 l 1217 106 l 1217 963 l 1322 963 l 1322 0 l 533 0 z "},"ý":{"ha":1642,"x_min":139,"x_max":1322,"o":"m 1322 963 l 1322 394 q 1291 241 1322 313 q 1206 116 1260 169 q 1081 31 1153 63 q 928 0 1010 0 l 214 0 l 214 106 l 928 106 q 1040 128 988 106 q 1131 191 1092 151 q 1194 283 1171 231 q 1217 394 1217 335 l 1217 417 l 533 417 q 380 448 451 417 q 255 533 308 479 q 170 658 201 586 q 139 813 139 731 l 139 963 l 244 963 l 244 813 q 267 701 244 754 q 329 609 290 649 q 420 546 368 569 q 531 522 472 522 l 1217 522 l 1217 963 l 1322 963 m 1086 1258 l 822 996 l 747 1071 l 1011 1333 l 1086 1258 z "},"ÿ":{"ha":1642,"x_min":139,"x_max":1322,"o":"m 1322 963 l 1322 394 q 1291 241 1322 313 q 1206 116 1260 169 q 1081 31 1153 63 q 928 0 1010 0 l 214 0 l 214 106 l 928 106 q 1040 128 988 106 q 1131 191 1092 151 q 1194 283 1171 231 q 1217 394 1217 335 l 1217 417 l 533 417 q 380 448 451 417 q 255 533 308 479 q 170 658 201 586 q 139 813 139 731 l 139 963 l 244 963 l 244 813 q 267 701 244 754 q 329 609 290 649 q 420 546 368 569 q 531 522 472 522 l 1217 522 l 1217 963 l 1322 963 m 482 849 l 482 974 l 601 974 l 601 849 l 482 849 m 885 849 l 885 974 l 1004 974 l 1004 849 l 885 849 z "},"ž":{"ha":1514,"x_min":140,"x_max":1485,"o":"m 140 0 l 140 107 l 1281 857 l 143 857 l 143 963 l 1485 963 l 1485 864 l 331 106 l 1465 106 l 1465 0 l 140 0 m 1175 1342 l 1221 1246 l 781 1038 l 340 1246 l 386 1342 l 781 1154 l 1175 1342 z "}," ":{"ha":521,"x_min":0,"x_max":0,"o":""},"€":{"ha":1560,"x_min":94,"x_max":1415,"o":"m 604 857 q 508 840 554 857 q 426 794 463 824 q 363 725 389 765 q 324 638 336 685 l 1381 638 l 1381 532 l 314 532 l 314 431 l 1381 431 l 1381 325 l 322 325 q 361 238 335 278 q 424 168 388 197 q 506 122 461 139 q 601 106 551 106 l 1415 106 l 1415 0 l 604 0 q 450 31 522 0 q 325 115 378 63 q 255 210 283 157 q 215 325 226 264 l 94 325 l 94 431 l 208 431 l 208 532 l 94 532 l 94 638 l 215 638 q 263 765 228 706 q 349 869 297 825 q 466 938 401 913 q 604 963 531 963 l 1415 963 l 1415 857 l 604 857 l 604 857 z "},"Ă":{"ha":1489,"x_min":139,"x_max":1397,"o":"m 572 1199 l 572 1181 q 599 1113 572 1140 q 667 1086 626 1086 l 900 1086 q 967 1113 939 1086 q 996 1181 996 1140 l 996 1199 l 1078 1199 l 1078 1181 q 1064 1113 1078 1144 q 1026 1056 1050 1081 q 969 1018 1001 1032 q 900 1004 938 1004 l 667 1004 q 542 1056 593 1004 q 504 1112 518 1079 q 490 1181 490 1144 l 490 1199 l 572 1199 m 1282 847 q 1366 722 1335 793 q 1397 568 1397 650 l 1397 0 l 1292 0 l 1292 417 l 244 417 l 244 0 l 139 0 l 139 568 q 170 722 139 650 q 256 847 201 793 q 381 931 310 900 q 533 963 453 963 l 1003 963 q 1156 931 1085 963 q 1282 847 1228 900 m 1292 522 l 1292 571 q 1269 681 1292 629 q 1206 772 1246 733 q 1114 834 1167 811 q 1003 857 1061 857 l 531 857 q 420 834 472 857 q 329 772 368 811 q 267 680 290 732 q 244 568 244 628 l 244 522 l 1292 522 z "},"Ā":{"ha":1489,"x_min":139,"x_max":1397,"o":"m 439 1144 l 1082 1144 l 1082 1039 l 439 1039 l 439 1144 m 1282 847 q 1366 722 1335 793 q 1397 568 1397 650 l 1397 0 l 1292 0 l 1292 417 l 244 417 l 244 0 l 139 0 l 139 568 q 170 722 139 650 q 256 847 201 793 q 381 931 310 900 q 533 963 453 963 l 1003 963 q 1156 931 1085 963 q 1282 847 1228 900 m 1292 522 l 1292 571 q 1269 681 1292 629 q 1206 772 1246 733 q 1114 834 1167 811 q 1003 857 1061 857 l 531 857 q 420 834 472 857 q 329 772 368 811 q 267 680 290 732 q 244 568 244 628 l 244 522 l 1292 522 z "},"Ą":{"ha":1488,"x_min":139,"x_max":1528,"o":"m 1282 847 q 1366 722 1335 793 q 1397 568 1397 650 l 1397 0 l 1292 0 l 1292 417 l 244 417 l 244 0 l 139 0 l 139 568 q 170 722 139 650 q 256 847 201 793 q 381 931 310 900 q 533 963 453 963 l 1003 963 q 1156 931 1085 963 q 1282 847 1228 900 m 1292 522 l 1292 571 q 1269 681 1292 629 q 1206 772 1246 733 q 1114 834 1167 811 q 1003 857 1061 857 l 531 857 q 420 834 472 857 q 329 772 368 811 q 267 680 290 732 q 244 568 244 628 l 244 522 l 1292 522 m 1316 -254 q 1271 -245 1293 -254 q 1232 -223 1249 -237 q 1204 -189 1214 -209 q 1194 -145 1194 -169 l 1194 -143 q 1211 -74 1194 -106 q 1257 -20 1229 -42 l 1281 2 l 1401 2 l 1310 -84 q 1288 -110 1298 -96 q 1278 -137 1278 -123 q 1281 -150 1278 -144 q 1296 -165 1288 -162 q 1319 -170 1305 -168 l 1528 -170 l 1528 -254 l 1316 -254 z "},"Ć":{"ha":1588,"x_min":139,"x_max":1346,"o":"m 1076 1258 l 813 996 l 738 1071 l 1001 1333 l 1076 1258 m 256 115 q 170 241 201 169 q 139 394 139 313 l 139 568 q 170 721 139 649 q 255 847 201 793 q 381 931 308 900 q 535 963 453 963 l 1346 963 l 1346 857 l 535 857 q 422 834 475 857 q 330 772 369 811 q 267 680 290 732 q 244 568 244 628 l 244 394 q 267 283 244 336 q 329 191 290 231 q 420 128 368 151 q 532 106 472 106 l 1346 106 l 1346 0 l 535 0 q 381 31 453 0 q 256 115 308 63 z "},"Č":{"ha":1588,"x_min":139,"x_max":1346,"o":"m 1208 1342 l 1254 1246 l 814 1038 l 374 1246 l 419 1342 l 814 1154 l 1208 1342 m 256 115 q 170 241 201 169 q 139 394 139 313 l 139 568 q 170 721 139 649 q 255 847 201 793 q 381 931 308 900 q 535 963 453 963 l 1346 963 l 1346 857 l 535 857 q 422 834 475 857 q 330 772 369 811 q 267 680 290 732 q 244 568 244 628 l 244 394 q 267 283 244 336 q 329 191 290 231 q 420 128 368 151 q 532 106 472 106 l 1346 106 l 1346 0 l 535 0 q 381 31 453 0 q 256 115 308 63 z "},"Ĉ":{"ha":1588,"x_min":139,"x_max":1346,"o":"m 814 1225 l 419 1038 l 374 1133 l 814 1342 l 1254 1133 l 1208 1038 l 814 1225 m 256 115 q 170 241 201 169 q 139 394 139 313 l 139 568 q 170 721 139 649 q 255 847 201 793 q 381 931 308 900 q 535 963 453 963 l 1346 963 l 1346 857 l 535 857 q 422 834 475 857 q 330 772 369 811 q 267 680 290 732 q 244 568 244 628 l 244 394 q 267 283 244 336 q 329 191 290 231 q 420 128 368 151 q 532 106 472 106 l 1346 106 l 1346 0 l 535 0 q 381 31 453 0 q 256 115 308 63 z "},"Ď":{"ha":1565,"x_min":139,"x_max":1393,"o":"m 1090 1342 l 1136 1246 l 696 1038 l 256 1246 l 301 1342 l 696 1154 l 1090 1342 m 139 963 l 999 963 q 1152 931 1081 963 q 1277 846 1224 900 q 1362 720 1331 792 q 1393 568 1393 649 l 1393 394 q 1362 241 1393 313 q 1276 116 1331 169 q 1151 31 1222 63 q 999 0 1079 0 l 139 0 l 139 963 m 1288 571 q 1265 681 1288 629 q 1202 772 1242 733 q 1110 834 1163 811 q 999 857 1057 857 l 244 857 l 244 106 l 1001 106 q 1112 128 1060 106 q 1203 191 1164 151 q 1265 283 1242 231 q 1288 394 1288 335 l 1288 571 z "},"Đ":{"ha":1511,"x_min":139,"x_max":1393,"o":"m 139 963 l 999 963 q 1152 931 1081 963 q 1277 846 1224 900 q 1362 720 1331 792 q 1393 568 1393 649 l 1393 394 q 1362 241 1393 313 q 1276 116 1331 169 q 1151 31 1222 63 q 999 0 1079 0 l 139 0 l 139 963 m 1288 571 q 1265 681 1288 629 q 1202 772 1242 733 q 1110 834 1163 811 q 999 857 1057 857 l 244 857 l 244 106 l 1001 106 q 1112 128 1060 106 q 1203 191 1164 151 q 1265 283 1242 231 q 1288 394 1288 335 l 1288 571 z "},"Ě":{"ha":1468,"x_min":139,"x_max":1346,"o":"m 1186 1342 l 1232 1246 l 792 1038 l 351 1246 l 397 1342 l 792 1154 l 1186 1342 m 329 772 q 267 680 289 732 q 244 568 244 628 l 244 533 l 1346 533 l 1346 428 l 244 428 l 244 392 q 267 281 244 333 q 330 190 290 229 q 422 128 369 151 q 533 106 475 106 l 1346 106 l 1346 0 l 533 0 q 380 31 451 0 q 255 117 308 63 q 170 242 201 171 q 139 394 139 314 l 139 568 q 170 722 139 650 q 256 847 201 793 q 381 931 310 900 q 533 963 453 963 l 1346 963 l 1346 857 l 533 857 q 422 835 474 857 q 329 772 369 813 z "},"Ė":{"ha":1468,"x_min":139,"x_max":1346,"o":"m 739 1194 l 922 1194 l 922 1043 l 739 1043 l 739 1194 m 329 772 q 267 680 289 732 q 244 568 244 628 l 244 533 l 1346 533 l 1346 428 l 244 428 l 244 392 q 267 281 244 333 q 330 190 290 229 q 422 128 369 151 q 533 106 475 106 l 1346 106 l 1346 0 l 533 0 q 380 31 451 0 q 255 117 308 63 q 170 242 201 171 q 139 394 139 314 l 139 568 q 170 722 139 650 q 256 847 201 793 q 381 931 310 900 q 533 963 453 963 l 1346 963 l 1346 857 l 533 857 q 422 835 474 857 q 329 772 369 813 z "},"Ē":{"ha":1468,"x_min":139,"x_max":1346,"o":"m 499 1144 l 1142 1144 l 1142 1039 l 499 1039 l 499 1144 m 329 772 q 267 680 289 732 q 244 568 244 628 l 244 533 l 1346 533 l 1346 428 l 244 428 l 244 392 q 267 281 244 333 q 330 190 290 229 q 422 128 369 151 q 533 106 475 106 l 1346 106 l 1346 0 l 533 0 q 380 31 451 0 q 255 117 308 63 q 170 242 201 171 q 139 394 139 314 l 139 568 q 170 722 139 650 q 256 847 201 793 q 381 931 310 900 q 533 963 453 963 l 1346 963 l 1346 857 l 533 857 q 422 835 474 857 q 329 772 369 813 z "},"Ę":{"ha":1493,"x_min":128,"x_max":1446,"o":"m 1446 -186 l 1446 -293 l 1175 -293 q 1118 -283 1146 -293 q 1068 -253 1090 -272 q 1033 -209 1046 -235 q 1019 -151 1019 -183 q 1040 -67 1019 -107 q 1093 0 1061 -28 l 522 0 q 369 31 440 0 q 244 117 297 63 q 159 242 190 171 q 128 394 128 314 l 128 568 q 159 722 128 650 q 244 847 190 793 q 370 931 299 900 q 522 963 442 963 l 1335 963 l 1335 857 l 522 857 q 410 835 463 857 q 318 772 358 813 q 256 680 278 732 q 233 568 233 628 l 233 533 l 1335 533 l 1335 428 l 233 428 l 233 392 q 256 281 233 333 q 319 190 279 229 q 411 128 358 151 q 522 106 464 106 l 1335 106 l 1335 0 l 1249 0 l 1168 -76 q 1140 -109 1153 -92 q 1126 -144 1126 -126 q 1131 -161 1126 -153 q 1150 -180 1139 -176 q 1179 -186 1161 -183 l 1446 -186 z "},"Ğ":{"ha":1553,"x_min":139,"x_max":1397,"o":"m 533 1199 l 533 1181 q 560 1113 533 1140 q 628 1086 588 1086 l 861 1086 q 928 1113 900 1086 q 957 1181 957 1140 l 957 1199 l 1039 1199 l 1039 1181 q 1025 1113 1039 1144 q 987 1056 1011 1081 q 931 1018 963 1032 q 861 1004 899 1004 l 628 1004 q 503 1056 554 1004 q 465 1112 479 1079 q 451 1181 451 1144 l 451 1199 l 533 1199 m 1003 0 l 533 0 q 381 31 453 0 q 256 116 310 63 q 170 241 201 169 q 139 394 139 313 l 139 568 q 170 720 139 649 q 255 846 201 792 q 380 931 308 900 q 533 963 451 963 l 1117 963 l 1117 857 l 533 857 q 422 834 475 857 q 330 772 369 811 q 267 681 290 733 q 244 571 244 629 l 244 394 q 267 283 244 336 q 329 191 290 231 q 420 128 368 151 q 531 106 472 106 l 1003 106 q 1114 128 1061 106 q 1206 190 1167 151 q 1269 281 1246 229 q 1292 392 1292 333 l 1292 432 l 853 432 l 853 538 l 1397 538 l 1397 394 q 1366 242 1397 314 q 1281 117 1335 171 q 1156 31 1228 63 q 1003 0 1085 0 z "},"Ĝ":{"ha":1604,"x_min":153,"x_max":1424,"o":"m 1424 0 l 1424 510 l 779 510 l 779 424 l 1333 424 l 1333 86 l 678 86 q 458 110 543 86 q 326 184 374 135 q 260 308 278 233 q 243 486 243 383 q 261 666 243 590 q 327 791 279 742 q 460 863 375 840 q 678 886 544 886 l 1396 886 l 1396 972 l 664 972 q 403 936 503 972 q 247 835 303 900 q 172 682 192 771 q 153 486 153 593 q 172 292 153 381 q 246 138 190 203 q 401 37 301 74 q 664 0 501 0 l 1424 0 m 811 1225 l 417 1038 l 371 1133 l 811 1342 l 1251 1133 l 1206 1038 l 811 1225 z "},"Ģ":{"ha":1488,"x_min":139,"x_max":1397,"o":"m 1003 0 l 533 0 q 381 31 453 0 q 256 116 310 63 q 170 241 201 169 q 139 394 139 313 l 139 568 q 170 720 139 649 q 255 846 201 792 q 380 931 308 900 q 533 963 451 963 l 1117 963 l 1117 857 l 533 857 q 422 834 475 857 q 330 772 369 811 q 267 681 290 733 q 244 571 244 629 l 244 394 q 267 283 244 336 q 329 191 290 231 q 420 128 368 151 q 531 106 472 106 l 1003 106 q 1114 128 1061 106 q 1206 190 1167 151 q 1269 281 1246 229 q 1292 392 1292 333 l 1292 432 l 853 432 l 853 538 l 1397 538 l 1397 394 q 1366 242 1397 314 q 1281 117 1335 171 q 1156 31 1228 63 q 1003 0 1085 0 m 618 -293 l 739 -35 l 835 -79 l 714 -337 l 618 -293 z "},"Ĥ":{"ha":1563,"x_min":139,"x_max":1319,"o":"m 729 1225 l 335 1038 l 289 1133 l 729 1342 l 1169 1133 l 1124 1038 l 729 1225 m 1319 963 l 1319 0 l 1213 0 l 1213 465 l 244 465 l 244 0 l 139 0 l 139 963 l 244 963 l 244 571 l 1213 571 l 1213 963 l 1319 963 z "},"İ":{"ha":376,"x_min":107,"x_max":290,"o":"m 107 1236 l 290 1236 l 290 1085 l 107 1085 l 107 1236 m 139 0 l 139 963 l 244 963 l 244 0 l 139 0 z "},"Ī":{"ha":626,"x_min":-121,"x_max":522,"o":"m -121 1144 l 522 1144 l 522 1039 l -121 1039 l -121 1144 m 139 0 l 139 963 l 244 963 l 244 0 l 139 0 z "},"Į":{"ha":335,"x_min":47,"x_max":386,"o":"m 139 0 l 139 963 l 244 963 l 244 0 l 139 0 m 172 -259 q 126 -250 148 -259 q 87 -228 104 -242 q 58 -193 69 -213 q 48 -148 48 -172 l 48 -146 q 66 -76 48 -108 q 112 -21 83 -43 l 136 1 l 258 1 l 166 -86 q 143 -112 154 -98 q 133 -140 133 -126 q 136 -154 133 -147 q 152 -168 143 -166 q 175 -173 160 -171 l 387 -173 l 387 -259 l 172 -259 z "},"Ĵ":{"ha":1413,"x_min":139,"x_max":1708,"o":"m 256 115 q 170 241 201 169 q 139 394 139 313 l 139 476 l 244 476 l 244 394 q 267 283 244 336 q 329 191 290 231 q 420 128 368 151 q 532 106 472 106 l 928 106 q 1039 128 986 106 q 1131 190 1092 151 q 1194 281 1171 229 q 1217 392 1217 333 l 1217 963 l 1322 963 l 1322 394 q 1291 241 1322 313 q 1206 115 1260 169 q 1081 31 1153 63 q 928 0 1010 0 l 535 0 q 380 31 451 0 q 256 115 308 63 m 1268 1222 l 874 1035 l 828 1131 l 1268 1339 l 1708 1131 l 1663 1035 l 1268 1222 z "},"Ķ":{"ha":1444,"x_min":139,"x_max":1347,"o":"m 1347 832 q 1292 632 1347 722 q 1149 490 1238 542 q 1292 347 1238 438 q 1347 147 1347 257 l 1347 0 l 1242 0 l 1242 147 q 1219 260 1242 207 q 1156 351 1196 313 q 1064 413 1117 390 q 951 436 1011 436 l 244 436 l 244 0 l 139 0 l 139 974 l 244 974 l 244 543 l 951 543 q 1064 566 1011 543 q 1156 628 1117 589 q 1219 720 1196 668 q 1242 832 1242 772 l 1242 974 l 1347 974 l 1347 832 l 1347 832 m 599 -210 l 719 49 l 815 4 l 694 -254 l 599 -210 z "},"Ľ":{"ha":1403,"x_min":139,"x_max":1344,"o":"m 667 690 l 743 972 l 833 972 l 757 690 l 667 690 m 244 963 l 244 396 q 267 283 244 335 q 329 192 289 231 q 422 128 369 151 q 533 106 474 106 l 1344 106 l 1344 0 l 533 0 q 380 31 451 0 q 254 117 308 63 q 170 241 201 169 q 139 396 139 313 l 139 963 l 244 963 z "},"Ń":{"ha":1615,"x_min":139,"x_max":1403,"o":"m 1086 1258 l 822 996 l 747 1071 l 1011 1333 l 1086 1258 m 1126 8 q 1094 26 1107 17 q 1061 60 1081 36 l 399 840 q 369 862 386 856 q 333 868 353 868 q 274 849 301 868 q 244 793 246 829 l 244 0 l 139 0 l 139 803 l 140 807 q 161 877 143 846 q 206 931 179 908 q 267 964 233 953 q 336 975 301 975 q 415 959 376 975 q 481 907 453 943 l 1143 126 q 1173 104 1156 111 q 1208 97 1190 97 q 1267 117 1240 97 q 1296 174 1293 138 l 1296 965 l 1403 965 l 1403 164 q 1381 93 1399 125 q 1335 38 1363 61 q 1275 3 1308 15 q 1207 -10 1242 -10 q 1126 8 1164 -10 z "},"Ň":{"ha":1615,"x_min":139,"x_max":1403,"o":"m 1218 1342 l 1264 1246 l 824 1038 l 383 1246 l 429 1342 l 824 1154 l 1218 1342 m 1126 8 q 1094 26 1107 17 q 1061 60 1081 36 l 399 840 q 369 862 386 856 q 333 868 353 868 q 274 849 301 868 q 244 793 246 829 l 244 0 l 139 0 l 139 803 l 140 807 q 161 877 143 846 q 206 931 179 908 q 267 964 233 953 q 336 975 301 975 q 415 959 376 975 q 481 907 453 943 l 1143 126 q 1173 104 1156 111 q 1208 97 1190 97 q 1267 117 1240 97 q 1296 174 1293 138 l 1296 965 l 1403 965 l 1403 164 q 1381 93 1399 125 q 1335 38 1363 61 q 1275 3 1308 15 q 1207 -10 1242 -10 q 1126 8 1164 -10 z "},"Ņ":{"ha":1615,"x_min":139,"x_max":1403,"o":"m 1126 8 q 1094 26 1107 17 q 1061 60 1081 36 l 399 840 q 369 862 386 856 q 333 868 353 868 q 274 849 301 868 q 244 793 246 829 l 244 0 l 139 0 l 139 803 l 140 807 q 161 877 143 846 q 206 931 179 908 q 267 964 233 953 q 336 975 301 975 q 415 959 376 975 q 481 907 453 943 l 1143 126 q 1173 104 1156 111 q 1208 97 1190 97 q 1267 117 1240 97 q 1296 174 1293 138 l 1296 965 l 1403 965 l 1403 164 q 1381 93 1399 125 q 1335 38 1363 61 q 1275 3 1308 15 q 1207 -10 1242 -10 q 1126 8 1164 -10 m 636 -210 l 757 49 l 853 4 l 732 -254 l 636 -210 z "},"Ő":{"ha":1700,"x_min":139,"x_max":1643,"o":"m 917 1258 l 653 996 l 578 1071 l 842 1333 l 917 1258 m 1222 1258 l 958 996 l 883 1071 l 1147 1333 l 1222 1258 m 533 0 q 380 31 451 0 q 255 116 308 63 q 170 241 201 169 q 139 394 139 313 l 139 568 q 170 721 139 649 q 255 847 201 793 q 380 931 308 900 q 533 963 451 963 l 1247 963 q 1401 931 1329 963 q 1527 847 1474 900 q 1612 721 1581 793 q 1643 568 1643 649 l 1643 394 q 1612 241 1643 313 q 1527 116 1581 169 q 1401 31 1474 63 q 1247 0 1329 0 l 533 0 m 244 568 l 244 394 q 267 283 244 335 q 330 191 290 231 q 422 128 369 151 q 533 106 474 106 l 1247 106 q 1360 128 1307 106 q 1452 191 1413 151 q 1515 283 1492 231 q 1538 394 1538 335 l 1538 568 q 1515 680 1538 628 q 1452 772 1492 732 q 1360 834 1413 811 q 1247 857 1307 857 l 533 857 q 422 834 474 857 q 330 772 369 811 q 267 680 290 732 q 244 568 244 628 z "},"Ō":{"ha":1700,"x_min":139,"x_max":1643,"o":"m 586 1144 l 1229 1144 l 1229 1039 l 586 1039 l 586 1144 m 533 0 q 380 31 451 0 q 255 116 308 63 q 170 241 201 169 q 139 394 139 313 l 139 568 q 170 721 139 649 q 255 847 201 793 q 380 931 308 900 q 533 963 451 963 l 1247 963 q 1401 931 1329 963 q 1527 847 1474 900 q 1612 721 1581 793 q 1643 568 1643 649 l 1643 394 q 1612 241 1643 313 q 1527 116 1581 169 q 1401 31 1474 63 q 1247 0 1329 0 l 533 0 m 244 568 l 244 394 q 267 283 244 335 q 330 191 290 231 q 422 128 369 151 q 533 106 474 106 l 1247 106 q 1360 128 1307 106 q 1452 191 1413 151 q 1515 283 1492 231 q 1538 394 1538 335 l 1538 568 q 1515 680 1538 628 q 1452 772 1492 732 q 1360 834 1413 811 q 1247 857 1307 857 l 533 857 q 422 834 474 857 q 330 772 369 811 q 267 680 290 732 q 244 568 244 628 z "},"Ŕ":{"ha":1624,"x_min":139,"x_max":1471,"o":"m 931 1258 l 667 996 l 592 1071 l 856 1333 l 931 1258 m 1358 460 q 1189 378 1289 393 l 1471 0 l 1339 0 l 1060 374 l 244 374 l 244 0 l 139 0 l 139 963 l 1142 963 q 1233 950 1189 963 q 1313 914 1276 938 q 1413 809 1375 874 q 1451 668 1451 744 q 1427 553 1451 607 q 1358 460 1403 500 m 244 479 l 1147 479 q 1222 494 1186 479 q 1285 534 1258 508 q 1329 594 1313 560 q 1346 668 1346 628 q 1329 743 1346 708 q 1284 803 1313 778 q 1219 842 1256 828 q 1142 857 1182 857 l 244 857 l 244 479 z "},"Ř":{"ha":1624,"x_min":139,"x_max":1471,"o":"m 1131 1342 l 1176 1246 l 736 1038 l 296 1246 l 342 1342 l 736 1154 l 1131 1342 m 1358 460 q 1189 378 1289 393 l 1471 0 l 1339 0 l 1060 374 l 244 374 l 244 0 l 139 0 l 139 963 l 1142 963 q 1233 950 1189 963 q 1313 914 1276 938 q 1413 809 1375 874 q 1451 668 1451 744 q 1427 553 1451 607 q 1358 460 1403 500 m 244 479 l 1147 479 q 1222 494 1186 479 q 1285 534 1258 508 q 1329 594 1313 560 q 1346 668 1346 628 q 1329 743 1346 708 q 1284 803 1313 778 q 1219 842 1256 828 q 1142 857 1182 857 l 244 857 l 244 479 z "},"Ŗ":{"ha":1561,"x_min":139,"x_max":1471,"o":"m 1358 460 q 1189 378 1289 393 l 1471 0 l 1339 0 l 1060 374 l 244 374 l 244 0 l 139 0 l 139 963 l 1142 963 q 1233 950 1189 963 q 1313 914 1276 938 q 1413 809 1375 874 q 1451 668 1451 744 q 1427 553 1451 607 q 1358 460 1403 500 m 244 479 l 1147 479 q 1222 494 1186 479 q 1285 534 1258 508 q 1329 594 1313 560 q 1346 668 1346 628 q 1329 743 1346 708 q 1284 803 1313 778 q 1219 842 1256 828 q 1142 857 1182 857 l 244 857 l 244 479 z "},"Ś":{"ha":1519,"x_min":86,"x_max":1324,"o":"m 900 1258 l 636 996 l 561 1071 l 825 1333 l 900 1258 m 1057 0 l 139 0 l 139 106 l 1057 106 q 1119 118 1090 106 q 1171 153 1149 131 q 1206 204 1193 175 q 1218 267 1218 233 q 1206 330 1218 300 q 1172 382 1193 360 q 1120 417 1150 404 q 1057 429 1090 429 l 353 429 q 250 450 299 429 q 165 507 201 471 q 107 592 128 543 q 86 696 86 640 q 107 801 86 751 q 164 886 128 850 q 249 944 200 922 q 353 965 297 965 l 1271 965 l 1271 860 l 353 860 q 290 847 318 860 q 240 812 261 833 q 206 761 218 790 q 192 699 193 732 q 242 582 197 629 q 353 535 286 535 l 1057 535 q 1161 514 1113 535 q 1246 457 1210 493 q 1303 372 1282 421 q 1324 268 1324 324 q 1303 164 1324 213 q 1246 78 1282 115 q 1161 21 1210 42 q 1057 0 1113 0 z "},"Ş":{"ha":1519,"x_min":86,"x_max":1324,"o":"m 610 -331 l 474 -331 l 474 -232 l 615 -232 q 675 -204 651 -232 q 699 -142 699 -176 l 699 3 l 799 3 l 799 -142 q 784 -212 799 -178 q 744 -272 769 -246 q 683 -315 718 -299 q 610 -331 649 -331 m 1057 0 l 139 0 l 139 106 l 1057 106 q 1119 118 1090 106 q 1171 153 1149 131 q 1206 204 1193 175 q 1218 267 1218 233 q 1206 330 1218 300 q 1172 382 1193 360 q 1120 417 1150 404 q 1057 429 1090 429 l 353 429 q 250 450 299 429 q 165 507 201 471 q 107 592 128 543 q 86 696 86 640 q 107 801 86 751 q 164 886 128 850 q 249 944 200 922 q 353 965 297 965 l 1271 965 l 1271 860 l 353 860 q 290 847 318 860 q 240 812 261 833 q 206 761 218 790 q 192 699 193 732 q 242 582 197 629 q 353 535 286 535 l 1057 535 q 1161 514 1113 535 q 1246 457 1210 493 q 1303 372 1282 421 q 1324 268 1324 324 q 1303 164 1324 213 q 1246 78 1282 115 q 1161 21 1210 42 q 1057 0 1113 0 z "},"Ŝ":{"ha":1519,"x_min":86,"x_max":1324,"o":"m 707 1225 l 313 1038 l 267 1133 l 707 1342 l 1147 1133 l 1101 1038 l 707 1225 m 1057 0 l 139 0 l 139 106 l 1057 106 q 1119 118 1090 106 q 1171 153 1149 131 q 1206 204 1193 175 q 1218 267 1218 233 q 1206 330 1218 300 q 1172 382 1193 360 q 1120 417 1150 404 q 1057 429 1090 429 l 353 429 q 250 450 299 429 q 165 507 201 471 q 107 592 128 543 q 86 696 86 640 q 107 801 86 751 q 164 886 128 850 q 249 944 200 922 q 353 965 297 965 l 1271 965 l 1271 860 l 353 860 q 290 847 318 860 q 240 812 261 833 q 206 761 218 790 q 192 699 193 732 q 242 582 197 629 q 353 535 286 535 l 1057 535 q 1161 514 1113 535 q 1246 457 1210 493 q 1303 372 1282 421 q 1324 268 1324 324 q 1303 164 1324 213 q 1246 78 1282 115 q 1161 21 1210 42 q 1057 0 1113 0 z "},"Ș":{"ha":1489,"x_min":86,"x_max":1324,"o":"m 1057 0 l 139 0 l 139 106 l 1057 106 q 1119 118 1090 106 q 1171 153 1149 131 q 1206 204 1193 175 q 1218 267 1218 233 q 1206 330 1218 300 q 1172 382 1193 360 q 1120 417 1150 404 q 1057 429 1090 429 l 353 429 q 250 450 299 429 q 165 507 201 471 q 107 592 128 543 q 86 696 86 640 q 107 801 86 751 q 164 886 128 850 q 249 944 200 922 q 353 965 297 965 l 1271 965 l 1271 860 l 353 860 q 290 847 318 860 q 240 812 261 833 q 206 761 218 790 q 192 699 193 732 q 242 582 197 629 q 353 535 286 535 l 1057 535 q 1161 514 1113 535 q 1246 457 1210 493 q 1303 372 1282 421 q 1324 268 1324 324 q 1303 164 1324 213 q 1246 78 1282 115 q 1161 21 1210 42 q 1057 0 1113 0 m 585 -310 l 706 -51 l 801 -96 l 681 -354 l 585 -310 z "},"Ț":{"ha":1449,"x_min":139,"x_max":1342,"o":"m 1342 857 l 793 857 l 793 0 l 688 0 l 688 857 l 139 857 l 139 963 l 1342 963 l 1342 857 m 613 -274 l 733 -15 l 829 -60 l 708 -318 l 613 -274 z "},"Ŭ":{"ha":1413,"x_min":139,"x_max":1322,"o":"m 517 1171 l 517 1153 q 544 1085 517 1113 q 611 1058 571 1058 l 844 1058 q 912 1085 883 1058 q 940 1153 940 1113 l 940 1171 l 1022 1171 l 1022 1153 q 1008 1085 1022 1117 q 970 1028 994 1053 q 914 990 946 1004 q 844 976 882 976 l 611 976 q 486 1028 538 976 q 449 1084 463 1051 q 435 1153 435 1117 l 435 1171 l 517 1171 m 256 115 q 170 241 201 169 q 139 394 139 313 l 139 963 l 244 963 l 244 394 q 267 283 244 336 q 329 191 290 231 q 420 128 368 151 q 532 106 472 106 l 928 106 q 1039 128 986 106 q 1131 190 1092 151 q 1194 281 1171 229 q 1217 392 1217 333 l 1217 963 l 1322 963 l 1322 394 q 1291 241 1322 313 q 1206 115 1260 169 q 1081 31 1153 63 q 928 0 1010 0 l 535 0 q 380 31 451 0 q 256 115 308 63 z "},"Ű":{"ha":1653,"x_min":139,"x_max":1322,"o":"m 764 1258 l 500 996 l 425 1071 l 689 1333 l 764 1258 m 1069 1258 l 806 996 l 731 1071 l 994 1333 l 1069 1258 m 256 115 q 170 241 201 169 q 139 394 139 313 l 139 963 l 244 963 l 244 394 q 267 283 244 336 q 329 191 290 231 q 420 128 368 151 q 532 106 472 106 l 928 106 q 1039 128 986 106 q 1131 190 1092 151 q 1194 281 1171 229 q 1217 392 1217 333 l 1217 963 l 1322 963 l 1322 394 q 1291 241 1322 313 q 1206 115 1260 169 q 1081 31 1153 63 q 928 0 1010 0 l 535 0 q 380 31 451 0 q 256 115 308 63 z "},"Ū":{"ha":1413,"x_min":139,"x_max":1322,"o":"m 411 1144 l 1054 1144 l 1054 1039 l 411 1039 l 411 1144 m 256 115 q 170 241 201 169 q 139 394 139 313 l 139 963 l 244 963 l 244 394 q 267 283 244 336 q 329 191 290 231 q 420 128 368 151 q 532 106 472 106 l 928 106 q 1039 128 986 106 q 1131 190 1092 151 q 1194 281 1171 229 q 1217 392 1217 333 l 1217 963 l 1322 963 l 1322 394 q 1291 241 1322 313 q 1206 115 1260 169 q 1081 31 1153 63 q 928 0 1010 0 l 535 0 q 380 31 451 0 q 256 115 308 63 z "},"Ų":{"ha":1469,"x_min":139,"x_max":1322,"o":"m 699 -325 q 642 -315 669 -325 q 592 -286 614 -304 q 556 -242 569 -268 q 543 -186 543 -217 l 543 -183 q 565 -95 543 -136 q 624 -26 588 -54 l 654 1 l 807 1 l 692 -108 q 663 -141 676 -124 q 650 -176 650 -158 q 654 -193 650 -185 q 674 -212 663 -208 q 703 -218 685 -215 l 969 -218 l 969 -325 l 699 -325 m 256 115 q 170 241 201 169 q 139 394 139 313 l 139 963 l 244 963 l 244 394 q 267 283 244 336 q 329 191 290 231 q 420 128 368 151 q 532 106 472 106 l 928 106 q 1039 128 986 106 q 1131 190 1092 151 q 1194 281 1171 229 q 1217 392 1217 333 l 1217 963 l 1322 963 l 1322 394 q 1291 241 1322 313 q 1206 115 1260 169 q 1081 31 1153 63 q 928 0 1010 0 l 535 0 q 380 31 451 0 q 256 115 308 63 z "},"Ů":{"ha":1653,"x_min":139,"x_max":1322,"o":"m 838 985 l 632 985 q 507 1036 558 985 q 469 1092 483 1060 q 456 1161 456 1125 l 456 1179 q 469 1249 456 1217 q 507 1305 483 1281 q 563 1344 531 1329 q 632 1358 596 1358 l 838 1358 q 906 1344 874 1358 q 963 1306 939 1331 q 1001 1249 988 1282 q 1015 1179 1015 1217 l 1015 1161 q 1001 1093 1015 1125 q 963 1037 988 1061 q 907 999 939 1013 q 838 985 875 985 m 565 1247 q 538 1179 538 1219 l 538 1161 q 565 1094 538 1121 q 632 1067 592 1067 l 838 1067 q 905 1094 876 1067 q 933 1161 933 1121 l 933 1179 q 905 1247 933 1219 q 838 1275 876 1275 l 632 1275 q 565 1247 593 1275 m 256 115 q 170 241 201 169 q 139 394 139 313 l 139 963 l 244 963 l 244 394 q 267 283 244 336 q 329 191 290 231 q 420 128 368 151 q 532 106 472 106 l 928 106 q 1039 128 986 106 q 1131 190 1092 151 q 1194 281 1171 229 q 1217 392 1217 333 l 1217 963 l 1322 963 l 1322 394 q 1291 241 1322 313 q 1206 115 1260 169 q 1081 31 1153 63 q 928 0 1010 0 l 535 0 q 380 31 451 0 q 256 115 308 63 z "},"Ź":{"ha":1514,"x_min":124,"x_max":1361,"o":"m 981 1258 l 717 996 l 642 1071 l 906 1333 l 981 1258 m 303 0 q 225 18 258 0 q 169 65 192 36 q 135 128 146 93 q 124 199 124 164 q 141 280 124 249 q 181 331 158 311 q 238 363 206 351 l 1190 694 q 1203 700 1192 696 q 1225 713 1214 704 q 1246 735 1236 721 q 1256 772 1256 750 q 1253 792 1256 778 q 1244 820 1251 806 q 1222 846 1238 835 q 1179 857 1206 857 l 133 857 l 133 963 l 1189 963 q 1281 935 1247 963 q 1333 874 1315 908 q 1356 810 1350 840 q 1361 772 1361 779 q 1347 693 1361 724 q 1315 644 1332 663 q 1271 613 1296 624 l 275 264 q 238 232 247 251 q 228 193 228 213 q 248 135 228 161 q 304 106 268 108 l 1351 106 l 1351 0 l 303 0 z "},"Ż":{"ha":1514,"x_min":124,"x_max":1361,"o":"m 635 1219 l 818 1219 l 818 1068 l 635 1068 l 635 1219 m 303 0 q 225 18 258 0 q 169 65 192 36 q 135 128 146 93 q 124 199 124 164 q 141 280 124 249 q 181 331 158 311 q 238 363 206 351 l 1190 694 q 1203 700 1192 696 q 1225 713 1214 704 q 1246 735 1236 721 q 1256 772 1256 750 q 1253 792 1256 778 q 1244 820 1251 806 q 1222 846 1238 835 q 1179 857 1206 857 l 133 857 l 133 963 l 1189 963 q 1281 935 1247 963 q 1333 874 1315 908 q 1356 810 1350 840 q 1361 772 1361 779 q 1347 693 1361 724 q 1315 644 1332 663 q 1271 613 1296 624 l 275 264 q 238 232 247 251 q 228 193 228 213 q 248 135 228 161 q 304 106 268 108 l 1351 106 l 1351 0 l 303 0 z "},"ă":{"ha":1611,"x_min":139,"x_max":1375,"o":"m 447 0 q 276 48 353 0 q 164 178 200 96 q 139 293 139 232 q 163 409 139 356 q 229 502 188 463 q 326 565 271 542 q 442 588 381 588 l 1269 588 l 1269 653 q 1253 732 1269 694 q 1208 797 1236 769 q 1142 840 1179 824 q 1064 857 1106 857 l 365 857 l 365 963 l 1064 963 q 1185 938 1128 963 q 1283 872 1242 914 q 1350 773 1325 829 q 1375 653 1375 717 l 1375 -1 l 447 0 m 333 449 q 268 382 292 422 q 244 293 244 342 q 260 219 244 253 q 303 160 276 185 q 366 120 331 135 q 442 106 401 106 l 1269 106 l 1269 482 l 447 482 q 386 473 415 482 q 333 449 357 464 m 606 1199 l 606 1181 q 633 1113 606 1140 q 700 1086 660 1086 l 933 1086 q 1001 1113 972 1086 q 1029 1181 1029 1140 l 1029 1199 l 1111 1199 l 1111 1181 q 1097 1113 1111 1144 q 1059 1056 1083 1081 q 1003 1018 1035 1032 q 933 1004 971 1004 l 700 1004 q 575 1056 626 1004 q 538 1112 551 1079 q 524 1181 524 1144 l 524 1199 l 606 1199 z "},"ā":{"ha":1611,"x_min":139,"x_max":1375,"o":"m 447 0 q 276 48 353 0 q 164 178 200 96 q 139 293 139 232 q 163 409 139 356 q 229 502 188 463 q 326 565 271 542 q 442 588 381 588 l 1269 588 l 1269 653 q 1253 732 1269 694 q 1208 797 1236 769 q 1142 840 1179 824 q 1064 857 1106 857 l 365 857 l 365 963 l 1064 963 q 1185 938 1128 963 q 1283 872 1242 914 q 1350 773 1325 829 q 1375 653 1375 717 l 1375 -1 l 447 0 m 333 449 q 268 382 292 422 q 244 293 244 342 q 260 219 244 253 q 303 160 276 185 q 366 120 331 135 q 442 106 401 106 l 1269 106 l 1269 482 l 447 482 q 386 473 415 482 q 333 449 357 464 m 474 1144 l 1117 1144 l 1117 1039 l 474 1039 l 474 1144 z "},"ą":{"ha":1504,"x_min":139,"x_max":1506,"o":"m 447 0 q 276 48 353 0 q 164 178 200 96 q 139 293 139 232 q 163 409 139 356 q 229 502 188 463 q 326 565 271 542 q 442 588 381 588 l 1269 588 l 1269 653 q 1253 732 1269 694 q 1208 797 1236 769 q 1142 840 1179 824 q 1064 857 1106 857 l 365 857 l 365 963 l 1064 963 q 1185 938 1128 963 q 1283 872 1242 914 q 1350 773 1325 829 q 1375 653 1375 717 l 1375 -1 l 447 0 m 333 449 q 268 382 292 422 q 244 293 244 342 q 260 219 244 253 q 303 160 276 185 q 366 120 331 135 q 442 106 401 106 l 1269 106 l 1269 482 l 447 482 q 386 473 415 482 q 333 449 357 464 m 1269 -275 q 1219 -266 1244 -275 q 1175 -241 1195 -257 q 1144 -203 1156 -226 q 1133 -154 1133 -180 l 1133 -151 q 1152 -74 1133 -110 q 1203 -14 1172 -38 l 1230 11 l 1364 11 l 1263 -86 q 1238 -114 1250 -99 q 1227 -145 1227 -129 q 1230 -160 1227 -152 q 1247 -176 1237 -173 q 1273 -182 1257 -179 l 1506 -182 l 1506 -275 l 1269 -275 z "},"ć":{"ha":1588,"x_min":139,"x_max":1346,"o":"m 1076 1258 l 813 996 l 738 1071 l 1001 1333 l 1076 1258 m 256 115 q 170 241 201 169 q 139 394 139 313 l 139 568 q 170 721 139 649 q 255 847 201 793 q 381 931 308 900 q 535 963 453 963 l 1346 963 l 1346 857 l 535 857 q 422 834 475 857 q 330 772 369 811 q 267 680 290 732 q 244 568 244 628 l 244 394 q 267 283 244 336 q 329 191 290 231 q 420 128 368 151 q 532 106 472 106 l 1346 106 l 1346 0 l 535 0 q 381 31 453 0 q 256 115 308 63 z "},"č":{"ha":1588,"x_min":139,"x_max":1346,"o":"m 1208 1342 l 1254 1246 l 814 1038 l 374 1246 l 419 1342 l 814 1154 l 1208 1342 m 256 115 q 170 241 201 169 q 139 394 139 313 l 139 568 q 170 721 139 649 q 255 847 201 793 q 381 931 308 900 q 535 963 453 963 l 1346 963 l 1346 857 l 535 857 q 422 834 475 857 q 330 772 369 811 q 267 680 290 732 q 244 568 244 628 l 244 394 q 267 283 244 336 q 329 191 290 231 q 420 128 368 151 q 532 106 472 106 l 1346 106 l 1346 0 l 535 0 q 381 31 453 0 q 256 115 308 63 z "},"ĉ":{"ha":1588,"x_min":139,"x_max":1346,"o":"m 814 1225 l 419 1038 l 374 1133 l 814 1342 l 1254 1133 l 1208 1038 l 814 1225 m 256 115 q 170 241 201 169 q 139 394 139 313 l 139 568 q 170 721 139 649 q 255 847 201 793 q 381 931 308 900 q 535 963 453 963 l 1346 963 l 1346 857 l 535 857 q 422 834 475 857 q 330 772 369 811 q 267 680 290 732 q 244 568 244 628 l 244 394 q 267 283 244 336 q 329 191 290 231 q 420 128 368 151 q 532 106 472 106 l 1346 106 l 1346 0 l 535 0 q 381 31 453 0 q 256 115 308 63 z "},"":{"ha":375,"x_min":67,"x_max":283,"o":"m 67 -210 l 188 49 l 283 4 l 163 -254 l 67 -210 z "},"ď":{"ha":1542,"x_min":139,"x_max":1393,"o":"m 1108 1342 l 1154 1246 l 714 1038 l 274 1246 l 319 1342 l 714 1154 l 1108 1342 m 139 963 l 999 963 q 1152 931 1081 963 q 1277 846 1224 900 q 1362 720 1331 792 q 1393 568 1393 649 l 1393 394 q 1362 241 1393 313 q 1276 116 1331 169 q 1151 31 1222 63 q 999 0 1079 0 l 139 0 l 139 963 m 1288 571 q 1265 681 1288 629 q 1202 772 1242 733 q 1110 834 1163 811 q 999 857 1057 857 l 244 857 l 244 106 l 1001 106 q 1112 128 1060 106 q 1203 191 1164 151 q 1265 283 1242 231 q 1288 394 1288 335 l 1288 571 z "},"đ":{"ha":1510,"x_min":139,"x_max":1393,"o":"m 139 963 l 999 963 q 1152 931 1081 963 q 1277 846 1224 900 q 1362 720 1331 792 q 1393 568 1393 649 l 1393 394 q 1362 241 1393 313 q 1276 116 1331 169 q 1151 31 1222 63 q 999 0 1079 0 l 139 0 l 139 963 m 1288 571 q 1265 681 1288 629 q 1202 772 1242 733 q 1110 834 1163 811 q 999 857 1057 857 l 244 857 l 244 106 l 1001 106 q 1112 128 1060 106 q 1203 191 1164 151 q 1265 283 1242 231 q 1288 394 1288 335 l 1288 571 z "},"":{"ha":1433,"x_min":124,"x_max":1307,"o":"m 240 115 q 155 241 186 169 q 124 394 124 313 l 124 476 l 229 476 l 229 394 q 252 283 229 336 q 314 191 275 231 q 405 128 353 151 q 517 106 457 106 l 913 106 q 1024 128 971 106 q 1116 190 1076 151 q 1178 281 1156 229 q 1201 392 1201 333 l 1201 963 l 1307 963 l 1307 394 q 1276 241 1307 313 q 1190 115 1244 169 q 1066 31 1138 63 q 913 0 994 0 l 519 0 q 365 31 436 0 q 240 115 293 63 z "},"ě":{"ha":1600,"x_min":113,"x_max":1376,"o":"m 113 671 q 138 785 113 732 q 206 878 164 839 q 304 939 249 917 q 422 961 360 961 l 1072 961 q 1188 938 1133 961 q 1285 875 1243 915 q 1351 781 1326 835 q 1376 667 1376 728 q 1351 551 1376 604 q 1283 458 1326 497 q 1185 395 1240 418 q 1067 372 1129 372 l 218 372 l 218 240 q 242 179 224 204 q 289 138 261 154 q 351 113 317 121 q 422 106 386 106 l 1303 106 l 1303 0 l 415 0 q 309 17 363 0 q 213 64 256 33 q 142 139 169 94 q 113 240 114 183 l 113 671 m 422 856 q 356 842 392 856 q 289 803 319 828 q 238 745 258 779 q 218 671 218 711 l 218 478 l 1072 478 q 1147 492 1111 478 q 1211 533 1183 507 q 1255 592 1239 558 q 1271 667 1271 626 q 1254 742 1271 707 q 1209 801 1238 776 q 1144 841 1181 826 q 1067 856 1107 856 l 422 856 m 1106 1342 l 1151 1246 l 711 1038 l 271 1246 l 317 1342 l 711 1154 l 1106 1342 z "},"ė":{"ha":1565,"x_min":113,"x_max":1376,"o":"m 113 671 q 138 785 113 732 q 206 878 164 839 q 304 939 249 917 q 422 961 360 961 l 1072 961 q 1188 938 1133 961 q 1285 875 1243 915 q 1351 781 1326 835 q 1376 667 1376 728 q 1351 551 1376 604 q 1283 458 1326 497 q 1185 395 1240 418 q 1067 372 1129 372 l 218 372 l 218 240 q 242 179 224 204 q 289 138 261 154 q 351 113 317 121 q 422 106 386 106 l 1303 106 l 1303 0 l 415 0 q 309 17 363 0 q 213 64 256 33 q 142 139 169 94 q 113 240 114 183 l 113 671 m 422 856 q 356 842 392 856 q 289 803 319 828 q 238 745 258 779 q 218 671 218 711 l 218 478 l 1072 478 q 1147 492 1111 478 q 1211 533 1183 507 q 1255 592 1239 558 q 1271 667 1271 626 q 1254 742 1271 707 q 1209 801 1238 776 q 1144 841 1181 826 q 1067 856 1107 856 l 422 856 m 646 1194 l 829 1194 l 829 1043 l 646 1043 l 646 1194 z "},"ē":{"ha":1600,"x_min":113,"x_max":1376,"o":"m 113 671 q 138 785 113 732 q 206 878 164 839 q 304 939 249 917 q 422 961 360 961 l 1072 961 q 1188 938 1133 961 q 1285 875 1243 915 q 1351 781 1326 835 q 1376 667 1376 728 q 1351 551 1376 604 q 1283 458 1326 497 q 1185 395 1240 418 q 1067 372 1129 372 l 218 372 l 218 240 q 242 179 224 204 q 289 138 261 154 q 351 113 317 121 q 422 106 386 106 l 1303 106 l 1303 0 l 415 0 q 309 17 363 0 q 213 64 256 33 q 142 139 169 94 q 113 240 114 183 l 113 671 m 422 856 q 356 842 392 856 q 289 803 319 828 q 238 745 258 779 q 218 671 218 711 l 218 478 l 1072 478 q 1147 492 1111 478 q 1211 533 1183 507 q 1255 592 1239 558 q 1271 667 1271 626 q 1254 742 1271 707 q 1209 801 1238 776 q 1144 841 1181 826 q 1067 856 1107 856 l 422 856 m 419 1144 l 1063 1144 l 1063 1039 l 419 1039 l 419 1144 z "},"ę":{"ha":1558,"x_min":140,"x_max":1404,"o":"m 140 671 q 166 785 140 732 q 234 878 192 839 q 332 939 276 917 q 450 961 388 961 l 1100 961 q 1216 938 1161 961 q 1313 875 1271 915 q 1379 781 1354 835 q 1404 667 1404 728 q 1379 551 1404 604 q 1311 458 1354 497 q 1213 395 1268 418 q 1094 372 1157 372 l 246 372 l 246 240 q 270 179 251 204 q 317 138 289 154 q 379 113 344 121 q 450 106 414 106 l 1331 106 l 1331 0 l 443 0 q 337 17 390 0 q 240 64 283 33 q 169 139 197 94 q 140 240 142 183 l 140 671 m 450 856 q 383 842 419 856 q 317 803 347 828 q 266 745 286 779 q 246 671 246 711 l 246 478 l 1100 478 q 1175 492 1139 478 q 1239 533 1211 507 q 1283 592 1267 558 q 1299 667 1299 626 q 1282 742 1299 707 q 1237 801 1265 776 q 1172 841 1208 826 q 1094 856 1135 856 l 450 856 m 726 -325 q 669 -315 697 -325 q 619 -286 642 -304 q 584 -242 597 -268 q 571 -186 571 -217 l 571 -183 q 593 -95 571 -136 q 651 -26 615 -54 l 682 1 l 835 1 l 719 -108 q 691 -141 704 -124 q 678 -176 678 -158 q 682 -193 678 -185 q 701 -212 690 -208 q 731 -218 713 -215 l 997 -218 l 997 -325 l 726 -325 z "},"ğ":{"ha":1604,"x_min":540,"x_max":1128,"o":"m 622 1171 l 622 1153 q 649 1085 622 1113 q 717 1058 676 1058 l 950 1058 q 1017 1085 989 1058 q 1046 1153 1046 1113 l 1046 1171 l 1128 1171 l 1128 1153 q 1114 1085 1128 1117 q 1076 1028 1100 1053 q 1019 990 1051 1004 q 950 976 988 976 l 717 976 q 592 1028 643 976 q 554 1084 568 1051 q 540 1153 540 1117 l 540 1171 l 622 1171 z "},"ĝ":{"ha":1604,"x_min":371,"x_max":1251,"o":"m 811 1225 l 417 1038 l 371 1133 l 811 1342 l 1251 1133 l 1206 1038 l 811 1225 z "},"ģ":{"ha":1475,"x_min":139,"x_max":1346,"o":"m 256 115 q 170 241 201 169 q 139 394 139 313 l 139 568 q 170 721 139 649 q 255 847 201 793 q 381 931 308 900 q 535 963 453 963 l 1346 963 l 1346 857 l 535 857 q 422 834 475 857 q 330 772 369 811 q 267 681 290 733 q 244 569 244 629 l 244 394 q 267 283 244 336 q 329 191 290 231 q 420 128 368 151 q 532 106 472 106 l 1240 106 l 1240 413 l 619 413 l 619 518 l 1346 518 l 1346 0 l 535 0 q 381 31 453 0 q 256 115 308 63 m 689 -301 l 810 -43 l 906 -87 l 785 -346 l 689 -301 z "},"ĥ":{"ha":1615,"x_min":139,"x_max":1322,"o":"m 1206 846 q 1291 721 1260 793 q 1322 567 1322 649 l 1322 0 l 1217 0 l 1217 567 q 1194 679 1217 626 q 1131 772 1171 732 q 1039 834 1092 811 q 926 857 986 857 l 533 857 q 422 834 474 857 q 330 772 369 811 q 267 679 290 732 q 244 567 244 626 l 244 0 l 139 0 l 139 1193 l 244 1193 l 244 835 q 249 840 247 838 q 254 846 251 843 q 380 931 308 900 q 533 963 451 963 l 926 963 q 1081 931 1008 963 q 1206 846 1153 900 m 782 1225 l 388 1038 l 342 1133 l 782 1342 l 1222 1133 l 1176 1038 l 782 1225 z "},"ī":{"ha":646,"x_min":-125,"x_max":518,"o":"m -125 1131 l 518 1131 l 518 1025 l -125 1025 l -125 1131 m 139 0 l 139 963 l 244 963 l 244 0 l 139 0 z "},"į":{"ha":335,"x_min":53,"x_max":368,"o":"m 139 0 l 139 963 l 244 963 l 244 0 l 139 0 m 169 -243 q 127 -235 148 -243 q 90 -214 106 -228 q 64 -182 74 -201 q 54 -140 54 -163 l 54 -138 q 71 -73 54 -103 q 114 -22 87 -43 l 136 -2 l 249 -2 l 164 -83 q 143 -107 153 -94 q 133 -133 133 -120 q 136 -145 133 -139 q 151 -159 142 -157 q 172 -164 159 -162 l 369 -164 l 369 -243 l 169 -243 z "},"ĵ":{"ha":1472,"x_min":139,"x_max":1322,"o":"m 311 963 l 1322 963 l 1322 394 q 1291 241 1322 313 q 1206 115 1260 169 q 1081 31 1153 63 q 928 0 1010 0 l 535 0 q 380 31 451 0 q 256 115 308 63 q 170 241 201 169 q 139 394 139 313 l 139 476 l 244 476 l 244 394 q 267 283 244 336 q 329 191 290 231 q 420 128 368 151 q 532 106 472 106 l 928 106 q 1039 128 986 106 q 1131 190 1092 151 q 1194 281 1171 229 q 1217 392 1217 333 l 1217 857 l 311 857 l 311 963 m 804 1222 l 410 1035 l 364 1131 l 804 1339 l 1244 1131 l 1199 1035 l 804 1222 z "},"ķ":{"ha":1510,"x_min":139,"x_max":1406,"o":"m 1026 533 q 1160 488 1099 522 q 1265 401 1221 453 q 1335 283 1310 349 q 1361 143 1361 217 l 1361 0 l 1256 0 l 1256 146 q 1233 256 1256 204 q 1170 347 1210 308 q 1078 409 1131 386 q 967 432 1025 432 l 244 432 l 244 0 l 139 0 l 139 974 l 244 974 l 244 539 l 890 539 l 1260 975 l 1406 975 l 1026 533 l 1026 533 m 572 -210 l 693 49 l 789 4 l 668 -254 l 572 -210 z "},"ľ":{"ha":1379,"x_min":-249,"x_max":1344,"o":"m 244 963 l 244 396 q 267 283 244 335 q 329 192 289 231 q 422 128 369 151 q 533 106 474 106 l 1344 106 l 1344 0 l 533 0 q 380 31 451 0 q 254 117 308 63 q 170 241 201 169 q 139 396 139 313 l 139 963 l 244 963 m 586 1325 l 632 1229 l 192 1021 l -249 1229 l -203 1325 l 192 1138 l 586 1325 z "},"ń":{"ha":1426,"x_min":139,"x_max":1322,"o":"m 928 963 q 1081 931 1008 963 q 1206 847 1153 900 q 1291 721 1260 793 q 1322 567 1322 649 l 1322 0 l 1217 0 l 1217 567 q 1194 678 1217 625 q 1132 770 1171 731 q 1041 833 1093 810 q 931 857 989 857 l 244 857 l 244 0 l 139 0 l 139 963 l 928 963 m 885 1258 l 621 996 l 546 1071 l 810 1333 l 885 1258 z "},"ň":{"ha":1432,"x_min":139,"x_max":1322,"o":"m 928 963 q 1081 931 1008 963 q 1206 847 1153 900 q 1291 721 1260 793 q 1322 567 1322 649 l 1322 0 l 1217 0 l 1217 567 q 1194 678 1217 625 q 1132 770 1171 731 q 1041 833 1093 810 q 931 857 989 857 l 244 857 l 244 0 l 139 0 l 139 963 l 928 963 m 1075 1342 l 1121 1246 l 681 1038 l 240 1246 l 286 1342 l 681 1154 l 1075 1342 z "},"ņ":{"ha":1446,"x_min":139,"x_max":1322,"o":"m 928 963 q 1081 931 1008 963 q 1206 847 1153 900 q 1291 721 1260 793 q 1322 567 1322 649 l 1322 0 l 1217 0 l 1217 567 q 1194 678 1217 625 q 1132 770 1171 731 q 1041 833 1093 810 q 931 857 989 857 l 244 857 l 244 0 l 139 0 l 139 963 l 928 963 m 590 -210 l 711 49 l 807 4 l 686 -254 l 590 -210 z "},"ő":{"ha":1700,"x_min":139,"x_max":1643,"o":"m 913 1258 l 649 996 l 574 1071 l 838 1333 l 913 1258 m 1218 1258 l 954 996 l 879 1071 l 1143 1333 l 1218 1258 m 533 0 q 380 31 451 0 q 255 116 308 63 q 170 241 201 169 q 139 394 139 313 l 139 568 q 170 721 139 649 q 255 847 201 793 q 380 931 308 900 q 533 963 451 963 l 1247 963 q 1401 931 1329 963 q 1527 847 1474 900 q 1612 721 1581 793 q 1643 568 1643 649 l 1643 394 q 1612 241 1643 313 q 1527 116 1581 169 q 1401 31 1474 63 q 1247 0 1329 0 l 533 0 m 244 568 l 244 394 q 267 283 244 335 q 330 191 290 231 q 422 128 369 151 q 533 106 474 106 l 1247 106 q 1360 128 1307 106 q 1452 191 1413 151 q 1515 283 1492 231 q 1538 394 1538 335 l 1538 568 q 1515 680 1538 628 q 1452 772 1492 732 q 1360 834 1413 811 q 1247 857 1307 857 l 533 857 q 422 834 474 857 q 330 772 369 811 q 267 680 290 732 q 244 568 244 628 z "},"ō":{"ha":1700,"x_min":139,"x_max":1643,"o":"m 571 1144 l 1214 1144 l 1214 1039 l 571 1039 l 571 1144 m 533 0 q 380 31 451 0 q 255 116 308 63 q 170 241 201 169 q 139 394 139 313 l 139 568 q 170 721 139 649 q 255 847 201 793 q 380 931 308 900 q 533 963 451 963 l 1247 963 q 1401 931 1329 963 q 1527 847 1474 900 q 1612 721 1581 793 q 1643 568 1643 649 l 1643 394 q 1612 241 1643 313 q 1527 116 1581 169 q 1401 31 1474 63 q 1247 0 1329 0 l 533 0 m 244 568 l 244 394 q 267 283 244 335 q 330 191 290 231 q 422 128 369 151 q 533 106 474 106 l 1247 106 q 1360 128 1307 106 q 1452 191 1413 151 q 1515 283 1492 231 q 1538 394 1538 335 l 1538 568 q 1515 680 1538 628 q 1452 772 1492 732 q 1360 834 1413 811 q 1247 857 1307 857 l 533 857 q 422 834 474 857 q 330 772 369 811 q 267 680 290 732 q 244 568 244 628 z "},"ŕ":{"ha":1324,"x_min":139,"x_max":1247,"o":"m 139 0 l 139 568 q 170 721 139 649 q 255 847 201 793 q 380 931 308 900 q 533 963 451 963 l 1247 963 l 1247 857 l 533 857 q 422 834 474 857 q 330 772 369 811 q 267 680 290 732 q 244 568 244 628 l 244 0 l 139 0 m 938 1258 l 674 996 l 599 1071 l 863 1333 l 938 1258 z "},"ř":{"ha":1324,"x_min":139,"x_max":1247,"o":"m 139 0 l 139 568 q 170 721 139 649 q 255 847 201 793 q 380 931 308 900 q 533 963 451 963 l 1247 963 l 1247 857 l 533 857 q 422 834 474 857 q 330 772 369 811 q 267 680 290 732 q 244 568 244 628 l 244 0 l 139 0 m 1126 1342 l 1172 1246 l 732 1038 l 292 1246 l 338 1342 l 732 1154 l 1126 1342 z "},"ŗ":{"ha":1236,"x_min":67,"x_max":1247,"o":"m 139 0 l 139 568 q 170 721 139 649 q 255 847 201 793 q 380 931 308 900 q 533 963 451 963 l 1247 963 l 1247 857 l 533 857 q 422 834 474 857 q 330 772 369 811 q 267 680 290 732 q 244 568 244 628 l 244 0 l 139 0 m 67 -286 l 188 -28 l 283 -72 l 163 -331 l 67 -286 z "},"ś":{"ha":1414,"x_min":86,"x_max":1324,"o":"m 900 1258 l 636 996 l 561 1071 l 825 1333 l 900 1258 m 1057 0 l 139 0 l 139 106 l 1057 106 q 1119 118 1090 106 q 1171 153 1149 131 q 1206 204 1193 175 q 1218 267 1218 233 q 1206 330 1218 300 q 1172 382 1193 360 q 1120 417 1150 404 q 1057 429 1090 429 l 353 429 q 250 450 299 429 q 165 507 201 471 q 107 592 128 543 q 86 696 86 640 q 107 801 86 751 q 164 886 128 850 q 249 944 200 922 q 353 965 297 965 l 1271 965 l 1271 860 l 353 860 q 290 847 318 860 q 240 812 261 833 q 206 761 218 790 q 192 699 193 732 q 242 582 197 629 q 353 535 286 535 l 1057 535 q 1161 514 1113 535 q 1246 457 1210 493 q 1303 372 1282 421 q 1324 268 1324 324 q 1303 164 1324 213 q 1246 78 1282 115 q 1161 21 1210 42 q 1057 0 1113 0 z "},"ş":{"ha":1519,"x_min":474,"x_max":799,"o":"m 610 -333 l 474 -333 l 474 -235 l 615 -235 q 675 -207 651 -235 q 699 -144 699 -179 l 699 0 l 799 0 l 799 -144 q 784 -215 799 -181 q 744 -275 769 -249 q 683 -317 718 -301 q 610 -333 649 -333 z "},"ŝ":{"ha":1492,"x_min":86,"x_max":1324,"o":"m 729 1225 l 335 1038 l 289 1133 l 729 1342 l 1169 1133 l 1124 1038 l 729 1225 m 1057 0 l 139 0 l 139 106 l 1057 106 q 1119 118 1090 106 q 1171 153 1149 131 q 1206 204 1193 175 q 1218 267 1218 233 q 1206 330 1218 300 q 1172 382 1193 360 q 1120 417 1150 404 q 1057 429 1090 429 l 353 429 q 250 450 299 429 q 165 507 201 471 q 107 592 128 543 q 86 696 86 640 q 107 801 86 751 q 164 886 128 850 q 249 944 200 922 q 353 965 297 965 l 1271 965 l 1271 860 l 353 860 q 290 847 318 860 q 240 812 261 833 q 206 761 218 790 q 192 699 193 732 q 242 582 197 629 q 353 535 286 535 l 1057 535 q 1161 514 1113 535 q 1246 457 1210 493 q 1303 372 1282 421 q 1324 268 1324 324 q 1303 164 1324 213 q 1246 78 1282 115 q 1161 21 1210 42 q 1057 0 1113 0 z "},"ș":{"ha":1493,"x_min":86,"x_max":1324,"o":"m 1057 0 l 139 0 l 139 106 l 1057 106 q 1119 118 1090 106 q 1171 153 1149 131 q 1206 204 1193 175 q 1218 267 1218 233 q 1206 330 1218 300 q 1172 382 1193 360 q 1120 417 1150 404 q 1057 429 1090 429 l 353 429 q 250 450 299 429 q 165 507 201 471 q 107 592 128 543 q 86 696 86 640 q 107 801 86 751 q 164 886 128 850 q 249 944 200 922 q 353 965 297 965 l 1271 965 l 1271 860 l 353 860 q 290 847 318 860 q 240 812 261 833 q 206 761 218 790 q 192 699 193 732 q 242 582 197 629 q 353 535 286 535 l 1057 535 q 1161 514 1113 535 q 1246 457 1210 493 q 1303 372 1282 421 q 1324 268 1324 324 q 1303 164 1324 213 q 1246 78 1282 115 q 1161 21 1210 42 q 1057 0 1113 0 m 576 -310 l 697 -51 l 793 -96 l 672 -354 l 576 -310 z "},"ț":{"ha":1449,"x_min":139,"x_max":1344,"o":"m 1164 722 l 244 722 l 244 396 q 267 283 244 335 q 329 192 289 231 q 422 128 369 151 q 533 106 474 106 l 1344 106 l 1344 0 l 533 0 q 380 31 451 0 q 254 117 308 63 q 170 241 201 169 q 139 396 139 313 l 139 963 l 244 963 l 244 828 l 1164 828 l 1164 722 m 638 -301 l 758 -43 l 854 -87 l 733 -346 l 638 -301 z "},"ŭ":{"ha":1615,"x_min":139,"x_max":1322,"o":"m 533 0 q 380 31 451 0 q 255 116 308 63 q 170 242 201 169 q 139 396 139 314 l 139 963 l 244 963 l 244 396 q 267 285 244 338 q 329 192 290 232 q 420 129 368 153 q 531 106 472 106 l 1217 106 l 1217 963 l 1322 963 l 1322 0 l 533 0 m 531 1157 l 531 1139 q 558 1072 531 1099 q 625 1044 585 1044 l 858 1044 q 926 1072 897 1044 q 954 1139 954 1099 l 954 1157 l 1036 1157 l 1036 1139 q 1022 1071 1036 1103 q 984 1015 1008 1039 q 928 976 960 990 q 858 963 896 963 l 625 963 q 500 1014 551 963 q 463 1070 476 1038 q 449 1139 449 1103 l 449 1157 l 531 1157 z "},"ű":{"ha":1538,"x_min":139,"x_max":1322,"o":"m 533 0 q 380 31 451 0 q 255 116 308 63 q 170 242 201 169 q 139 396 139 314 l 139 963 l 244 963 l 244 396 q 267 285 244 338 q 329 192 290 232 q 420 129 368 153 q 531 106 472 106 l 1217 106 l 1217 963 l 1322 963 l 1322 0 l 533 0 m 804 1232 l 540 969 l 465 1044 l 729 1307 l 804 1232 m 1110 1232 l 846 969 l 771 1044 l 1035 1307 l 1110 1232 z "},"ū":{"ha":1439,"x_min":139,"x_max":1322,"o":"m 533 0 q 380 31 451 0 q 255 116 308 63 q 170 242 201 169 q 139 396 139 314 l 139 963 l 244 963 l 244 396 q 267 285 244 338 q 329 192 290 232 q 420 129 368 153 q 531 106 472 106 l 1217 106 l 1217 963 l 1322 963 l 1322 0 l 533 0 m 419 1131 l 1063 1131 l 1063 1025 l 419 1025 l 419 1131 z "},"ų":{"ha":1615,"x_min":139,"x_max":1322,"o":"m 533 0 q 380 31 451 0 q 255 116 308 63 q 170 242 201 169 q 139 396 139 314 l 139 963 l 244 963 l 244 396 q 267 285 244 338 q 329 192 290 232 q 420 129 368 153 q 531 106 472 106 l 1217 106 l 1217 963 l 1322 963 l 1322 0 l 533 0 m 749 -304 q 692 -294 719 -304 q 642 -265 664 -283 q 606 -222 619 -247 q 593 -165 593 -196 l 593 -162 q 615 -74 593 -115 q 674 -6 638 -33 l 704 22 l 857 22 l 742 -87 q 713 -120 726 -103 q 700 -156 700 -137 q 704 -172 700 -164 q 724 -191 713 -187 q 753 -197 735 -194 l 1019 -197 l 1019 -304 l 749 -304 z "},"ů":{"ha":1615,"x_min":139,"x_max":1322,"o":"m 533 0 q 380 31 451 0 q 255 116 308 63 q 170 242 201 169 q 139 396 139 314 l 139 963 l 244 963 l 244 396 q 267 285 244 338 q 329 192 290 232 q 420 129 368 153 q 531 106 472 106 l 1217 106 l 1217 963 l 1322 963 l 1322 0 l 533 0 m 846 989 l 640 989 q 515 1040 567 989 q 478 1097 492 1064 q 464 1165 464 1129 l 464 1183 q 478 1253 464 1221 q 515 1309 492 1285 q 572 1348 539 1333 q 640 1363 604 1363 l 846 1363 q 915 1349 882 1363 q 972 1310 947 1335 q 1010 1253 996 1286 q 1024 1183 1024 1221 l 1024 1165 q 1010 1097 1024 1129 q 972 1041 996 1065 q 915 1003 947 1017 q 846 989 883 989 m 574 1251 q 546 1183 546 1224 l 546 1165 q 573 1098 546 1125 q 640 1071 600 1071 l 846 1071 q 913 1098 885 1071 q 942 1165 942 1125 l 942 1183 q 913 1251 942 1224 q 846 1279 885 1279 l 640 1279 q 574 1251 601 1279 z "},"ź":{"ha":1514,"x_min":140,"x_max":1485,"o":"m 140 0 l 140 107 l 1281 857 l 143 857 l 143 963 l 1485 963 l 1485 864 l 331 106 l 1465 106 l 1465 0 l 140 0 m 968 1256 l 704 993 l 629 1068 l 893 1331 l 968 1256 z "},"ż":{"ha":1514,"x_min":140,"x_max":1485,"o":"m 672 1250 l 856 1250 l 856 1099 l 672 1099 l 672 1250 m 140 0 l 140 107 l 1281 857 l 143 857 l 143 963 l 1485 963 l 1485 864 l 331 106 l 1465 106 l 1465 0 l 140 0 z "},"S":{"ha":1414,"x_min":86,"x_max":1324,"o":"m 1057 0 l 139 0 l 139 106 l 1057 106 q 1119 118 1090 106 q 1171 153 1149 131 q 1206 204 1193 175 q 1218 267 1218 233 q 1206 330 1218 300 q 1172 382 1193 360 q 1120 417 1150 404 q 1057 429 1090 429 l 353 429 q 250 450 299 429 q 165 507 201 471 q 107 592 128 543 q 86 696 86 640 q 107 801 86 751 q 164 886 128 850 q 249 944 200 922 q 353 965 297 965 l 1271 965 l 1271 860 l 353 860 q 290 847 318 860 q 240 812 261 833 q 206 761 218 790 q 192 699 193 732 q 242 582 197 629 q 353 535 286 535 l 1057 535 q 1161 514 1113 535 q 1246 457 1210 493 q 1303 372 1282 421 q 1324 268 1324 324 q 1303 164 1324 213 q 1246 78 1282 115 q 1161 21 1210 42 q 1057 0 1113 0 z "},"R":{"ha":1561,"x_min":139,"x_max":1471,"o":"m 1358 460 q 1189 378 1289 393 l 1471 0 l 1339 0 l 1060 374 l 244 374 l 244 0 l 139 0 l 139 963 l 1142 963 q 1233 950 1189 963 q 1313 914 1276 938 q 1413 809 1375 874 q 1451 668 1451 744 q 1427 553 1451 607 q 1358 460 1403 500 m 244 479 l 1147 479 q 1222 494 1186 479 q 1285 534 1258 508 q 1329 594 1313 560 q 1346 668 1346 628 q 1329 743 1346 708 q 1284 803 1313 778 q 1219 842 1256 828 q 1142 857 1182 857 l 244 857 l 244 479 z "},"H":{"ha":1410,"x_min":139,"x_max":1319,"o":"m 1319 963 l 1319 0 l 1213 0 l 1213 465 l 244 465 l 244 0 l 139 0 l 139 963 l 244 963 l 244 571 l 1213 571 l 1213 963 l 1319 963 z "},"I":{"ha":335,"x_min":139,"x_max":244,"o":"m 139 0 l 139 963 l 244 963 l 244 0 l 139 0 z "},"O":{"ha":1733,"x_min":139,"x_max":1643,"o":"m 533 0 q 380 31 451 0 q 255 116 308 63 q 170 241 201 169 q 139 394 139 313 l 139 568 q 170 721 139 649 q 255 847 201 793 q 380 931 308 900 q 533 963 451 963 l 1247 963 q 1401 931 1329 963 q 1527 847 1474 900 q 1612 721 1581 793 q 1643 568 1643 649 l 1643 394 q 1612 241 1643 313 q 1527 116 1581 169 q 1401 31 1474 63 q 1247 0 1329 0 l 533 0 m 244 568 l 244 394 q 267 283 244 335 q 330 191 290 231 q 422 128 369 151 q 533 106 474 106 l 1247 106 q 1360 128 1307 106 q 1452 191 1413 151 q 1515 283 1492 231 q 1538 394 1538 335 l 1538 568 q 1515 680 1538 628 q 1452 772 1492 732 q 1360 834 1413 811 q 1247 857 1307 857 l 533 857 q 422 834 474 857 q 330 772 369 811 q 267 680 290 732 q 244 568 244 628 z "},"o":{"ha":1733,"x_min":139,"x_max":1643,"o":"m 533 0 q 380 31 451 0 q 255 116 308 63 q 170 241 201 169 q 139 394 139 313 l 139 568 q 170 721 139 649 q 255 847 201 793 q 380 931 308 900 q 533 963 451 963 l 1247 963 q 1401 931 1329 963 q 1527 847 1474 900 q 1612 721 1581 793 q 1643 568 1643 649 l 1643 394 q 1612 241 1643 313 q 1527 116 1581 169 q 1401 31 1474 63 q 1247 0 1329 0 l 533 0 m 244 568 l 244 394 q 267 283 244 335 q 330 191 290 231 q 422 128 369 151 q 533 106 474 106 l 1247 106 q 1360 128 1307 106 q 1452 191 1413 151 q 1515 283 1492 231 q 1538 394 1538 335 l 1538 568 q 1515 680 1538 628 q 1452 772 1492 732 q 1360 834 1413 811 q 1247 857 1307 857 l 533 857 q 422 834 474 857 q 330 772 369 811 q 267 680 290 732 q 244 568 244 628 z "},"T":{"ha":1432,"x_min":139,"x_max":1342,"o":"m 1342 857 l 793 857 l 793 0 l 688 0 l 688 857 l 139 857 l 139 963 l 1342 963 l 1342 857 z "},"N":{"ha":1542,"x_min":139,"x_max":1403,"o":"m 1126 8 q 1094 26 1107 17 q 1061 60 1081 36 l 399 840 q 369 862 386 856 q 333 868 353 868 q 274 849 301 868 q 244 793 246 829 l 244 0 l 139 0 l 139 803 l 140 807 q 161 877 143 846 q 206 931 179 908 q 267 964 233 953 q 336 975 301 975 q 415 959 376 975 q 481 907 453 943 l 1143 126 q 1173 104 1156 111 q 1208 97 1190 97 q 1267 117 1240 97 q 1296 174 1293 138 l 1296 965 l 1403 965 l 1403 164 q 1381 93 1399 125 q 1335 38 1363 61 q 1275 3 1308 15 q 1207 -10 1242 -10 q 1126 8 1164 -10 z "},"D":{"ha":1483,"x_min":139,"x_max":1393,"o":"m 139 963 l 999 963 q 1152 931 1081 963 q 1277 846 1224 900 q 1362 720 1331 792 q 1393 568 1393 649 l 1393 394 q 1362 241 1393 313 q 1276 116 1331 169 q 1151 31 1222 63 q 999 0 1079 0 l 139 0 l 139 963 m 1288 571 q 1265 681 1288 629 q 1202 772 1242 733 q 1110 834 1163 811 q 999 857 1057 857 l 244 857 l 244 106 l 1001 106 q 1112 128 1060 106 q 1203 191 1164 151 q 1265 283 1242 231 q 1288 394 1288 335 l 1288 571 z "},"E":{"ha":1475,"x_min":139,"x_max":1346,"o":"m 329 772 q 267 680 289 732 q 244 568 244 628 l 244 533 l 1346 533 l 1346 428 l 244 428 l 244 392 q 267 281 244 333 q 330 190 290 229 q 422 128 369 151 q 533 106 475 106 l 1346 106 l 1346 0 l 533 0 q 380 31 451 0 q 255 117 308 63 q 170 242 201 171 q 139 394 139 314 l 139 568 q 170 722 139 650 q 256 847 201 793 q 381 931 310 900 q 533 963 453 963 l 1346 963 l 1346 857 l 533 857 q 422 835 474 857 q 329 772 369 813 z "},"G":{"ha":1488,"x_min":139,"x_max":1397,"o":"m 1003 0 l 533 0 q 381 31 453 0 q 256 116 310 63 q 170 241 201 169 q 139 394 139 313 l 139 568 q 170 720 139 649 q 255 846 201 792 q 380 931 308 900 q 533 963 451 963 l 1117 963 l 1117 857 l 533 857 q 422 834 475 857 q 330 772 369 811 q 267 681 290 733 q 244 571 244 629 l 244 394 q 267 283 244 336 q 329 191 290 231 q 420 128 368 151 q 531 106 472 106 l 1003 106 q 1114 128 1061 106 q 1206 190 1167 151 q 1269 281 1246 229 q 1292 392 1292 333 l 1292 432 l 853 432 l 853 538 l 1397 538 l 1397 394 q 1366 242 1397 314 q 1281 117 1335 171 q 1156 31 1228 63 q 1003 0 1085 0 z "},"U":{"ha":1447,"x_min":139,"x_max":1322,"o":"m 256 115 q 170 241 201 169 q 139 394 139 313 l 139 963 l 244 963 l 244 394 q 267 283 244 336 q 329 191 290 231 q 420 128 368 151 q 532 106 472 106 l 928 106 q 1039 128 986 106 q 1131 190 1092 151 q 1194 281 1171 229 q 1217 392 1217 333 l 1217 963 l 1322 963 l 1322 394 q 1291 241 1322 313 q 1206 115 1260 169 q 1081 31 1153 63 q 928 0 1010 0 l 535 0 q 380 31 451 0 q 256 115 308 63 z "},"C":{"ha":1436,"x_min":139,"x_max":1346,"o":"m 256 115 q 170 241 201 169 q 139 394 139 313 l 139 568 q 170 721 139 649 q 255 847 201 793 q 381 931 308 900 q 535 963 453 963 l 1346 963 l 1346 857 l 535 857 q 422 834 475 857 q 330 772 369 811 q 267 680 290 732 q 244 568 244 628 l 244 394 q 267 283 244 336 q 329 191 290 231 q 420 128 368 151 q 532 106 472 106 l 1346 106 l 1346 0 l 535 0 q 381 31 453 0 q 256 115 308 63 z "},"P":{"ha":1543,"x_min":139,"x_max":1453,"o":"m 246 0 l 139 0 l 139 963 l 1150 963 q 1265 939 1210 963 q 1361 875 1319 915 q 1428 781 1403 835 q 1453 668 1453 728 q 1427 553 1453 607 q 1359 459 1401 499 q 1260 397 1317 419 q 1143 374 1204 374 l 246 374 l 246 0 m 1146 479 q 1222 494 1186 479 q 1285 534 1258 508 q 1329 594 1313 560 q 1347 668 1346 629 q 1329 742 1346 707 q 1285 802 1313 776 q 1220 842 1257 828 q 1143 857 1183 857 l 246 857 l 246 479 l 1146 479 z "},"Q":{"ha":1733,"x_min":139,"x_max":1731,"o":"m 533 0 q 380 31 451 0 q 255 116 308 63 q 170 241 201 169 q 139 394 139 313 l 139 571 q 170 724 139 651 q 255 849 201 796 q 380 934 308 903 q 533 965 451 965 l 1247 965 q 1401 934 1329 965 q 1527 849 1474 903 q 1612 724 1581 796 q 1643 571 1643 651 l 1643 394 q 1609 234 1643 308 q 1517 106 1575 160 l 1731 106 l 1731 0 l 533 0 m 533 106 l 1258 106 q 1367 129 1317 106 q 1456 192 1418 153 q 1515 284 1493 232 q 1538 394 1538 336 l 1538 571 q 1515 683 1538 631 q 1452 774 1492 735 q 1360 837 1413 814 q 1247 860 1307 860 l 533 860 q 422 837 474 860 q 330 774 369 814 q 267 683 290 735 q 244 571 244 631 l 244 394 q 267 283 244 335 q 330 191 290 231 q 422 128 369 151 q 533 106 474 106 z "},"J":{"ha":1413,"x_min":139,"x_max":1322,"o":"m 256 115 q 170 241 201 169 q 139 394 139 313 l 139 476 l 244 476 l 244 394 q 267 283 244 336 q 329 191 290 231 q 420 128 368 151 q 532 106 472 106 l 928 106 q 1039 128 986 106 q 1131 190 1092 151 q 1194 281 1171 229 q 1217 392 1217 333 l 1217 963 l 1322 963 l 1322 394 q 1291 241 1322 313 q 1206 115 1260 169 q 1081 31 1153 63 q 928 0 1010 0 l 535 0 q 380 31 451 0 q 256 115 308 63 z "},"L":{"ha":1435,"x_min":139,"x_max":1344,"o":"m 244 963 l 244 396 q 267 283 244 335 q 329 192 289 231 q 422 128 369 151 q 533 106 474 106 l 1344 106 l 1344 0 l 533 0 q 380 31 451 0 q 254 117 308 63 q 170 241 201 169 q 139 396 139 313 l 139 963 l 244 963 z "},"F":{"ha":1435,"x_min":139,"x_max":1344,"o":"m 329 771 q 267 680 289 732 q 244 567 244 628 l 244 529 l 1282 529 l 1282 424 l 244 424 l 244 0 l 139 0 l 139 567 q 170 722 139 650 q 254 846 201 793 q 380 931 308 900 q 533 963 451 963 l 1344 963 l 1344 857 l 533 857 q 422 834 474 857 q 329 771 369 811 z "},"A":{"ha":1488,"x_min":139,"x_max":1397,"o":"m 1282 847 q 1366 722 1335 793 q 1397 568 1397 650 l 1397 0 l 1292 0 l 1292 417 l 244 417 l 244 0 l 139 0 l 139 568 q 170 722 139 650 q 256 847 201 793 q 381 931 310 900 q 533 963 453 963 l 1003 963 q 1156 931 1085 963 q 1282 847 1228 900 m 1292 522 l 1292 571 q 1269 681 1292 629 q 1206 772 1246 733 q 1114 834 1167 811 q 1003 857 1061 857 l 531 857 q 420 834 472 857 q 329 772 368 811 q 267 680 290 732 q 244 568 244 628 l 244 522 l 1292 522 z "},"Z":{"ha":1457,"x_min":124,"x_max":1361,"o":"m 303 0 q 225 18 258 0 q 169 65 192 36 q 135 128 146 93 q 124 199 124 164 q 141 280 124 249 q 181 331 158 311 q 238 363 206 351 l 1190 694 q 1203 700 1192 696 q 1225 713 1214 704 q 1246 735 1236 721 q 1256 772 1256 750 q 1253 792 1256 778 q 1244 820 1251 806 q 1222 846 1238 835 q 1179 857 1206 857 l 133 857 l 133 963 l 1189 963 q 1281 935 1247 963 q 1333 874 1315 908 q 1356 810 1350 840 q 1361 772 1361 779 q 1347 693 1361 724 q 1315 644 1332 663 q 1271 613 1296 624 l 275 264 q 238 232 247 251 q 228 193 228 213 q 248 135 228 161 q 304 106 268 108 l 1351 106 l 1351 0 l 303 0 z "},"M":{"ha":1725,"x_min":139,"x_max":1617,"o":"m 1511 1 l 1511 783 q 1503 814 1511 800 q 1482 838 1494 828 q 1456 852 1469 847 q 1431 857 1442 857 l 1418 857 q 1374 846 1397 857 q 1339 803 1351 835 q 1297 714 1333 790 q 1258 630 1282 681 q 1198 505 1233 579 q 1115 331 1163 431 q 1004 99 1067 231 q 958 31 986 61 q 893 0 929 0 l 871 0 q 801 25 826 1 q 753 97 776 49 l 418 800 q 400 831 407 822 q 378 850 393 839 q 342 857 364 857 l 325 857 q 297 850 310 857 q 272 832 283 843 q 253 808 261 821 q 244 783 246 794 l 244 1 l 139 1 l 139 789 q 153 852 139 822 q 193 906 168 882 q 251 945 218 931 q 319 963 283 960 l 342 964 q 377 960 361 964 q 408 951 393 957 q 440 936 424 947 q 469 911 456 925 q 494 883 483 897 q 508 857 504 868 q 517 839 514 849 l 850 139 q 860 121 853 132 q 875 110 867 110 l 883 110 q 897 122 890 113 q 904 135 903 132 l 906 139 l 1240 839 q 1276 897 1254 867 q 1329 943 1297 926 q 1369 958 1347 953 q 1414 964 1390 964 l 1436 963 q 1501 947 1469 963 q 1558 906 1533 931 q 1599 851 1583 882 q 1617 792 1615 821 l 1617 1 l 1511 1 z "},"Y":{"ha":1413,"x_min":139,"x_max":1322,"o":"m 682 0 l 682 306 l 535 306 q 380 337 451 306 q 256 421 308 368 q 170 547 201 475 q 139 700 139 618 l 139 963 l 244 963 l 244 700 q 267 589 244 642 q 329 497 290 536 q 420 434 368 457 q 532 411 472 411 l 928 411 q 1039 434 986 411 q 1131 496 1092 457 q 1194 587 1171 535 q 1217 697 1217 639 l 1217 963 l 1322 963 l 1322 700 q 1291 547 1322 618 q 1206 421 1260 475 q 1081 337 1153 368 q 928 306 1010 306 l 788 306 l 788 0 l 682 0 z "},"X":{"ha":1413,"x_min":139,"x_max":1322,"o":"m 1206 422 q 1291 297 1260 368 q 1322 143 1322 225 l 1322 0 l 1217 0 l 1217 143 q 1194 254 1217 201 q 1132 347 1171 307 q 1041 409 1093 386 q 929 432 989 432 l 533 432 q 422 409 475 432 q 330 347 369 386 q 267 256 290 308 q 244 146 244 204 l 244 0 l 139 0 l 139 143 q 170 297 139 225 q 256 422 201 368 q 294 456 274 440 q 336 485 314 471 q 256 547 289 511 q 170 673 201 601 q 139 826 139 744 l 139 963 l 244 963 l 244 826 q 267 715 244 768 q 329 623 290 663 q 420 560 368 583 q 532 538 472 538 l 939 538 q 1047 560 996 538 q 1135 623 1097 583 q 1194 715 1172 663 q 1217 824 1217 767 l 1217 963 l 1322 963 l 1322 826 q 1291 673 1322 744 q 1206 547 1260 601 q 1124 485 1167 508 q 1167 456 1147 471 q 1206 422 1186 440 z "},"B":{"ha":1535,"x_min":139,"x_max":1401,"o":"m 1283 497 q 1369 401 1336 460 q 1401 276 1401 343 q 1378 168 1401 218 q 1314 81 1354 118 q 1221 22 1274 43 q 1110 0 1168 0 l 139 0 l 139 963 l 1106 963 q 1188 953 1147 963 q 1265 923 1229 943 q 1329 874 1300 903 q 1376 808 1358 846 q 1401 706 1401 758 q 1378 603 1401 653 q 1313 518 1356 553 l 1283 497 m 244 553 l 1111 553 q 1176 563 1143 553 q 1236 594 1210 574 q 1279 642 1263 614 q 1296 704 1296 669 q 1279 769 1296 740 q 1235 817 1263 797 q 1174 847 1208 836 q 1106 857 1140 857 l 244 857 l 244 553 m 1282 211 q 1296 275 1296 240 q 1281 340 1296 310 q 1242 394 1267 371 q 1183 432 1217 418 q 1113 446 1150 446 l 244 446 l 244 106 l 1113 106 q 1213 135 1165 106 q 1282 211 1261 164 z "},"g":{"ha":1475,"x_min":139,"x_max":1346,"o":"m 256 115 q 170 241 201 169 q 139 394 139 313 l 139 568 q 170 721 139 649 q 255 847 201 793 q 381 931 308 900 q 535 963 453 963 l 1346 963 l 1346 857 l 535 857 q 422 834 475 857 q 330 772 369 811 q 267 681 290 733 q 244 569 244 629 l 244 394 q 267 283 244 336 q 329 191 290 231 q 420 128 368 151 q 532 106 472 106 l 1240 106 l 1240 413 l 619 413 l 619 518 l 1346 518 l 1346 0 l 535 0 q 381 31 453 0 q 256 115 308 63 z "},"K":{"ha":1497,"x_min":139,"x_max":1347,"o":"m 1347 832 q 1292 632 1347 722 q 1149 490 1238 542 q 1292 347 1238 438 q 1347 147 1347 257 l 1347 0 l 1242 0 l 1242 147 q 1219 260 1242 207 q 1156 351 1196 313 q 1064 413 1117 390 q 951 436 1011 436 l 244 436 l 244 0 l 139 0 l 139 974 l 244 974 l 244 543 l 951 543 q 1064 566 1011 543 q 1156 628 1117 589 q 1219 720 1196 668 q 1242 832 1242 772 l 1242 974 l 1347 974 l 1347 832 l 1347 832 z "},"V":{"ha":1628,"x_min":19,"x_max":1542,"o":"m 779 0 l 747 0 l 19 963 l 151 963 l 776 135 l 1408 963 l 1542 963 l 806 0 l 779 0 z "},"W":{"ha":2303,"x_min":139,"x_max":2206,"o":"m 2206 963 l 2206 390 q 2174 237 2206 308 q 2090 112 2143 165 q 1964 27 2036 58 q 1810 -4 1892 -4 l 1514 -4 q 1360 27 1432 -4 q 1236 111 1289 58 q 1201 151 1217 131 q 1172 193 1185 171 q 1143 151 1158 171 q 1108 111 1128 131 q 984 27 1056 58 q 831 -4 913 -4 l 533 -4 q 380 27 451 -4 q 255 113 308 58 q 170 238 201 167 q 139 390 139 310 l 139 963 l 244 963 l 244 388 q 267 277 244 329 q 330 186 290 225 q 422 124 369 147 q 533 101 475 101 l 829 101 q 942 124 890 101 q 1035 186 994 146 q 1097 278 1075 226 q 1119 390 1119 331 l 1119 963 l 1225 963 l 1225 390 q 1247 278 1225 331 q 1310 186 1269 226 q 1402 124 1350 146 q 1514 101 1454 101 l 1813 101 q 1924 124 1872 101 q 2015 187 1976 147 q 2077 278 2054 226 q 2100 390 2100 331 l 2100 963 l 2206 963 z "},"А":{"ha":1488,"x_min":139,"x_max":1397,"o":"m 1282 847 q 1366 722 1335 793 q 1397 568 1397 650 l 1397 0 l 1292 0 l 1292 417 l 244 417 l 244 0 l 139 0 l 139 568 q 170 722 139 650 q 256 847 201 793 q 381 931 310 900 q 533 963 453 963 l 1003 963 q 1156 931 1085 963 q 1282 847 1228 900 m 1292 522 l 1292 571 q 1269 681 1292 629 q 1206 772 1246 733 q 1114 834 1167 811 q 1003 857 1061 857 l 531 857 q 420 834 472 857 q 329 772 368 811 q 267 680 290 732 q 244 568 244 628 l 244 522 l 1292 522 z "},"В":{"ha":1535,"x_min":139,"x_max":1401,"o":"m 1283 497 q 1369 401 1336 460 q 1401 276 1401 343 q 1378 168 1401 218 q 1314 81 1354 118 q 1221 22 1274 43 q 1110 0 1168 0 l 139 0 l 139 963 l 1106 963 q 1188 953 1147 963 q 1265 923 1229 943 q 1329 874 1300 903 q 1376 808 1358 846 q 1401 706 1401 758 q 1378 603 1401 653 q 1313 518 1356 553 l 1283 497 m 244 553 l 1111 553 q 1176 563 1143 553 q 1236 594 1210 574 q 1279 642 1263 614 q 1296 704 1296 669 q 1279 769 1296 740 q 1235 817 1263 797 q 1174 847 1208 836 q 1106 857 1140 857 l 244 857 l 244 553 m 1282 211 q 1296 275 1296 240 q 1281 340 1296 310 q 1242 394 1267 371 q 1183 432 1217 418 q 1113 446 1150 446 l 244 446 l 244 106 l 1113 106 q 1213 135 1165 106 q 1282 211 1261 164 z "},"Е":{"ha":1475,"x_min":139,"x_max":1346,"o":"m 329 772 q 267 680 289 732 q 244 568 244 628 l 244 533 l 1346 533 l 1346 428 l 244 428 l 244 392 q 267 281 244 333 q 330 190 290 229 q 422 128 369 151 q 533 106 475 106 l 1346 106 l 1346 0 l 533 0 q 380 31 451 0 q 255 117 308 63 q 170 242 201 171 q 139 394 139 314 l 139 568 q 170 722 139 650 q 256 847 201 793 q 381 931 310 900 q 533 963 453 963 l 1346 963 l 1346 857 l 533 857 q 422 835 474 857 q 329 772 369 813 z "},"е":{"ha":1478,"x_min":139,"x_max":1375,"o":"m 139 671 q 165 785 139 732 q 233 878 190 839 q 331 939 275 917 q 449 961 386 961 l 1071 961 q 1187 938 1132 961 q 1283 875 1242 915 q 1350 781 1325 835 q 1375 667 1375 728 q 1350 551 1375 604 q 1282 458 1325 497 q 1183 395 1239 418 q 1065 372 1128 372 l 244 372 l 244 240 q 269 179 250 204 q 315 138 288 154 q 378 113 343 121 q 449 106 413 106 l 1301 106 l 1301 0 l 442 0 q 335 17 389 0 q 239 64 282 33 q 168 139 196 94 q 139 240 140 183 l 139 671 m 260 740 q 244 671 244 707 l 244 478 l 1071 478 q 1146 492 1110 478 q 1210 533 1182 507 q 1253 592 1238 558 q 1269 667 1269 626 q 1253 742 1269 707 q 1208 801 1236 776 q 1142 841 1179 826 q 1065 856 1106 856 l 449 856 q 335 825 386 856 q 260 740 285 794 z "},"о":{"ha":1733,"x_min":139,"x_max":1643,"o":"m 533 0 q 380 31 451 0 q 255 116 308 63 q 170 241 201 169 q 139 394 139 313 l 139 568 q 170 721 139 649 q 255 847 201 793 q 380 931 308 900 q 533 963 451 963 l 1247 963 q 1401 931 1329 963 q 1527 847 1474 900 q 1612 721 1581 793 q 1643 568 1643 649 l 1643 394 q 1612 241 1643 313 q 1527 116 1581 169 q 1401 31 1474 63 q 1247 0 1329 0 l 533 0 m 244 568 l 244 394 q 267 283 244 335 q 330 191 290 231 q 422 128 369 151 q 533 106 474 106 l 1247 106 q 1360 128 1307 106 q 1452 191 1413 151 q 1515 283 1492 231 q 1538 394 1538 335 l 1538 568 q 1515 680 1538 628 q 1452 772 1492 732 q 1360 834 1413 811 q 1247 857 1307 857 l 533 857 q 422 834 474 857 q 330 772 369 811 q 267 680 290 732 q 244 568 244 628 z "},"р":{"ha":1543,"x_min":139,"x_max":1453,"o":"m 246 0 l 139 0 l 139 963 l 1150 963 q 1265 939 1210 963 q 1361 875 1319 915 q 1428 781 1403 835 q 1453 668 1453 728 q 1427 553 1453 607 q 1359 459 1401 499 q 1260 397 1317 419 q 1143 374 1204 374 l 246 374 l 246 0 m 1146 479 q 1222 494 1186 479 q 1285 534 1258 508 q 1329 594 1313 560 q 1347 668 1346 629 q 1329 742 1346 707 q 1285 802 1313 776 q 1220 842 1257 828 q 1143 857 1183 857 l 246 857 l 246 479 l 1146 479 z "},"Р":{"ha":1543,"x_min":139,"x_max":1453,"o":"m 246 0 l 139 0 l 139 963 l 1150 963 q 1265 939 1210 963 q 1361 875 1319 915 q 1428 781 1403 835 q 1453 668 1453 728 q 1427 553 1453 607 q 1359 459 1401 499 q 1260 397 1317 419 q 1143 374 1204 374 l 246 374 l 246 0 m 1146 479 q 1222 494 1186 479 q 1285 534 1258 508 q 1329 594 1313 560 q 1347 668 1346 629 q 1329 742 1346 707 q 1285 802 1313 776 q 1220 842 1257 828 q 1143 857 1183 857 l 246 857 l 246 479 l 1146 479 z "},"С":{"ha":1436,"x_min":139,"x_max":1346,"o":"m 256 115 q 170 241 201 169 q 139 394 139 313 l 139 568 q 170 721 139 649 q 255 847 201 793 q 381 931 308 900 q 535 963 453 963 l 1346 963 l 1346 857 l 535 857 q 422 834 475 857 q 330 772 369 811 q 267 680 290 732 q 244 568 244 628 l 244 394 q 267 283 244 336 q 329 191 290 231 q 420 128 368 151 q 532 106 472 106 l 1346 106 l 1346 0 l 535 0 q 381 31 453 0 q 256 115 308 63 z "},"Т":{"ha":1432,"x_min":139,"x_max":1342,"o":"m 1342 857 l 793 857 l 793 0 l 688 0 l 688 857 l 139 857 l 139 963 l 1342 963 l 1342 857 z "},"т":{"ha":2094,"x_min":139,"x_max":2004,"o":"m 1610 963 q 1763 931 1690 963 q 1888 847 1835 900 q 1973 721 1942 793 q 2004 567 2004 649 l 2004 0 l 1899 0 l 1899 567 q 1876 678 1899 625 q 1814 770 1853 731 q 1723 833 1775 810 q 1613 857 1671 857 l 1079 857 l 1079 0 l 974 0 l 974 857 l 244 857 l 244 0 l 139 0 l 139 963 l 1610 963 l 1610 963 z "},"О":{"ha":1733,"x_min":139,"x_max":1643,"o":"m 533 0 q 380 31 451 0 q 255 116 308 63 q 170 241 201 169 q 139 394 139 313 l 139 568 q 170 721 139 649 q 255 847 201 793 q 380 931 308 900 q 533 963 451 963 l 1247 963 q 1401 931 1329 963 q 1527 847 1474 900 q 1612 721 1581 793 q 1643 568 1643 649 l 1643 394 q 1612 241 1643 313 q 1527 116 1581 169 q 1401 31 1474 63 q 1247 0 1329 0 l 533 0 m 244 568 l 244 394 q 267 283 244 335 q 330 191 290 231 q 422 128 369 151 q 533 106 474 106 l 1247 106 q 1360 128 1307 106 q 1452 191 1413 151 q 1515 283 1492 231 q 1538 394 1538 335 l 1538 568 q 1515 680 1538 628 q 1452 772 1492 732 q 1360 834 1413 811 q 1247 857 1307 857 l 533 857 q 422 834 474 857 q 330 772 369 811 q 267 680 290 732 q 244 568 244 628 z "},"Н":{"ha":1410,"x_min":139,"x_max":1319,"o":"m 1319 963 l 1319 0 l 1213 0 l 1213 465 l 244 465 l 244 0 l 139 0 l 139 963 l 244 963 l 244 571 l 1213 571 l 1213 963 l 1319 963 z "},"М":{"ha":1725,"x_min":139,"x_max":1617,"o":"m 1511 1 l 1511 783 q 1503 814 1511 800 q 1482 838 1494 828 q 1456 852 1469 847 q 1431 857 1442 857 l 1418 857 q 1374 846 1397 857 q 1339 803 1351 835 q 1297 714 1333 790 q 1258 630 1282 681 q 1198 505 1233 579 q 1115 331 1163 431 q 1004 99 1067 231 q 958 31 986 61 q 893 0 929 0 l 871 0 q 801 25 826 1 q 753 97 776 49 l 418 800 q 400 831 407 822 q 378 850 393 839 q 342 857 364 857 l 325 857 q 297 850 310 857 q 272 832 283 843 q 253 808 261 821 q 244 783 246 794 l 244 1 l 139 1 l 139 789 q 153 852 139 822 q 193 906 168 882 q 251 945 218 931 q 319 963 283 960 l 342 964 q 377 960 361 964 q 408 951 393 957 q 440 936 424 947 q 469 911 456 925 q 494 883 483 897 q 508 857 504 868 q 517 839 514 849 l 850 139 q 860 121 853 132 q 875 110 867 110 l 883 110 q 897 122 890 113 q 904 135 903 132 l 906 139 l 1240 839 q 1276 897 1254 867 q 1329 943 1297 926 q 1369 958 1347 953 q 1414 964 1390 964 l 1436 963 q 1501 947 1469 963 q 1558 906 1533 931 q 1599 851 1583 882 q 1617 792 1615 821 l 1617 1 l 1511 1 z "},"а":{"ha":1504,"x_min":139,"x_max":1375,"o":"m 447 0 q 276 48 353 0 q 164 178 200 96 q 139 293 139 232 q 163 409 139 356 q 229 502 188 463 q 326 565 271 542 q 442 588 381 588 l 1269 588 l 1269 653 q 1253 732 1269 694 q 1208 797 1236 769 q 1142 840 1179 824 q 1064 857 1106 857 l 365 857 l 365 963 l 1064 963 q 1185 938 1128 963 q 1283 872 1242 914 q 1350 773 1325 829 q 1375 653 1375 717 l 1375 -1 l 447 0 m 333 449 q 268 382 292 422 q 244 293 244 342 q 260 219 244 253 q 303 160 276 185 q 366 120 331 135 q 442 106 401 106 l 1269 106 l 1269 482 l 447 482 q 386 473 415 482 q 333 449 357 464 z "},"с":{"ha":1436,"x_min":139,"x_max":1346,"o":"m 256 115 q 170 241 201 169 q 139 394 139 313 l 139 568 q 170 721 139 649 q 255 847 201 793 q 381 931 308 900 q 535 963 453 963 l 1346 963 l 1346 857 l 535 857 q 422 834 475 857 q 330 772 369 811 q 267 680 290 732 q 244 568 244 628 l 244 394 q 267 283 244 336 q 329 191 290 231 q 420 128 368 151 q 532 106 472 106 l 1346 106 l 1346 0 l 535 0 q 381 31 453 0 q 256 115 308 63 z "},"х":{"ha":1615,"x_min":181,"x_max":1435,"o":"m 592 450 q 428 435 492 450 q 331 388 365 421 q 283 304 296 356 q 271 179 271 253 l 271 0 l 181 0 l 181 188 q 228 393 181 322 q 386 493 275 464 q 181 814 181 540 l 181 972 l 271 972 l 271 828 q 283 693 271 749 q 331 603 296 638 q 429 552 367 568 q 592 536 492 536 l 1024 536 q 1186 552 1124 536 q 1284 603 1249 568 q 1332 693 1319 638 q 1344 828 1344 749 l 1344 972 l 1435 972 l 1435 814 q 1229 493 1435 540 q 1388 393 1340 464 q 1435 188 1435 322 l 1435 0 l 1344 0 l 1344 179 q 1332 304 1344 253 q 1285 388 1319 356 q 1187 435 1250 421 q 1024 450 1124 450 l 592 450 z "},"Х":{"ha":1413,"x_min":139,"x_max":1322,"o":"m 1206 422 q 1291 297 1260 368 q 1322 143 1322 225 l 1322 0 l 1217 0 l 1217 143 q 1194 254 1217 201 q 1132 347 1171 307 q 1041 409 1093 386 q 929 432 989 432 l 533 432 q 422 409 475 432 q 330 347 369 386 q 267 256 290 308 q 244 146 244 204 l 244 0 l 139 0 l 139 143 q 170 297 139 225 q 256 422 201 368 q 294 456 274 440 q 336 485 314 471 q 256 547 289 511 q 170 673 201 601 q 139 826 139 744 l 139 963 l 244 963 l 244 826 q 267 715 244 768 q 329 623 290 663 q 420 560 368 583 q 532 538 472 538 l 939 538 q 1047 560 996 538 q 1135 623 1097 583 q 1194 715 1172 663 q 1217 824 1217 767 l 1217 963 l 1322 963 l 1322 826 q 1291 673 1322 744 q 1206 547 1260 601 q 1124 485 1167 508 q 1167 456 1147 471 q 1206 422 1186 440 z "},"Я":{"ha":1561,"x_min":119,"x_max":1451,"o":"m 232 460 q 163 553 188 500 q 139 668 139 607 q 177 809 139 744 q 278 914 215 874 q 358 950 314 938 q 449 963 401 963 l 1451 963 l 1451 0 l 1346 0 l 1346 374 l 531 374 l 251 0 l 119 0 l 401 378 q 232 460 301 393 m 1346 857 l 449 857 q 372 842 408 857 q 306 803 335 828 q 261 743 278 778 q 244 668 244 708 q 261 594 244 628 q 305 534 278 560 q 368 494 332 508 q 443 479 404 479 l 1346 479 l 1346 857 z "},"К":{"ha":1444,"x_min":139,"x_max":1347,"o":"m 1347 832 q 1292 632 1347 722 q 1149 490 1238 542 q 1292 347 1238 438 q 1347 147 1347 257 l 1347 0 l 1242 0 l 1242 147 q 1219 260 1242 207 q 1156 351 1196 313 q 1064 413 1117 390 q 951 436 1011 436 l 244 436 l 244 0 l 139 0 l 139 974 l 244 974 l 244 543 l 951 543 q 1064 566 1011 543 q 1156 628 1117 589 q 1219 720 1196 668 q 1242 832 1242 772 l 1242 974 l 1347 974 l 1347 832 l 1347 832 z "},"к":{"ha":1157,"x_min":0,"x_max":0,"o":""},"п":{"ha":1413,"x_min":139,"x_max":1322,"o":"m 928 963 q 1081 931 1008 963 q 1206 847 1153 900 q 1291 721 1260 793 q 1322 567 1322 649 l 1322 0 l 1217 0 l 1217 567 q 1194 678 1217 625 q 1132 770 1171 731 q 1041 833 1093 810 q 931 857 989 857 l 244 857 l 244 0 l 139 0 l 139 963 l 928 963 z "},"П":{"ha":1157,"x_min":0,"x_max":0,"o":""},"у":{"ha":1413,"x_min":139,"x_max":1322,"o":"m 1322 963 l 1322 394 q 1291 241 1322 313 q 1206 116 1260 169 q 1081 31 1153 63 q 928 0 1010 0 l 214 0 l 214 106 l 928 106 q 1040 128 988 106 q 1131 191 1092 151 q 1194 283 1171 231 q 1217 394 1217 335 l 1217 417 l 533 417 q 380 448 451 417 q 255 533 308 479 q 170 658 201 586 q 139 813 139 731 l 139 963 l 244 963 l 244 813 q 267 701 244 754 q 329 609 290 649 q 420 546 368 569 q 531 522 472 522 l 1217 522 l 1217 963 l 1322 963 z "},"Ё":{"ha":1475,"x_min":139,"x_max":1346,"o":"m 329 772 q 267 680 289 732 q 244 568 244 628 l 244 533 l 1346 533 l 1346 428 l 244 428 l 244 392 q 267 281 244 333 q 330 190 290 229 q 422 128 369 151 q 533 106 475 106 l 1346 106 l 1346 0 l 533 0 q 380 31 451 0 q 255 117 308 63 q 170 242 201 171 q 139 394 139 314 l 139 568 q 170 722 139 650 q 256 847 201 793 q 381 931 310 900 q 533 963 453 963 l 1346 963 l 1346 857 l 533 857 q 422 835 474 857 q 329 772 369 813 m 578 1089 l 578 1214 l 697 1214 l 697 1089 l 578 1089 m 981 1089 l 981 1214 l 1100 1214 l 1100 1089 l 981 1089 z "},"Ї":{"ha":1157,"x_min":0,"x_max":0,"o":""},"ё":{"ha":1478,"x_min":139,"x_max":1375,"o":"m 139 671 q 165 785 139 732 q 233 878 190 839 q 331 939 275 917 q 449 961 386 961 l 1071 961 q 1187 938 1132 961 q 1283 875 1242 915 q 1350 781 1325 835 q 1375 667 1375 728 q 1350 551 1375 604 q 1282 458 1325 497 q 1183 395 1239 418 q 1065 372 1128 372 l 244 372 l 244 240 q 269 179 250 204 q 315 138 288 154 q 378 113 343 121 q 449 106 413 106 l 1301 106 l 1301 0 l 442 0 q 335 17 389 0 q 239 64 282 33 q 168 139 196 94 q 139 240 140 183 l 139 671 m 260 740 q 244 671 244 707 l 244 478 l 1071 478 q 1146 492 1110 478 q 1210 533 1182 507 q 1253 592 1238 558 q 1269 667 1269 626 q 1253 742 1269 707 q 1208 801 1236 776 q 1142 841 1179 826 q 1065 856 1106 856 l 449 856 q 335 825 386 856 q 260 740 285 794 m 478 1097 l 478 1222 l 597 1222 l 597 1097 l 478 1097 m 881 1097 l 881 1222 l 1000 1222 l 1000 1097 l 881 1097 z "},"Ѕ":{"ha":1414,"x_min":86,"x_max":1324,"o":"m 1057 0 l 139 0 l 139 106 l 1057 106 q 1119 118 1090 106 q 1171 153 1149 131 q 1206 204 1193 175 q 1218 267 1218 233 q 1206 330 1218 300 q 1172 382 1193 360 q 1120 417 1150 404 q 1057 429 1090 429 l 353 429 q 250 450 299 429 q 165 507 201 471 q 107 592 128 543 q 86 696 86 640 q 107 801 86 751 q 164 886 128 850 q 249 944 200 922 q 353 965 297 965 l 1271 965 l 1271 860 l 353 860 q 290 847 318 860 q 240 812 261 833 q 206 761 218 790 q 192 699 193 732 q 242 582 197 629 q 353 535 286 535 l 1057 535 q 1161 514 1113 535 q 1246 457 1210 493 q 1303 372 1282 421 q 1324 268 1324 324 q 1303 164 1324 213 q 1246 78 1282 115 q 1161 21 1210 42 q 1057 0 1113 0 z "},"ѕ":{"ha":1414,"x_min":86,"x_max":1324,"o":"m 1057 0 l 139 0 l 139 106 l 1057 106 q 1119 118 1090 106 q 1171 153 1149 131 q 1206 204 1193 175 q 1218 267 1218 233 q 1206 330 1218 300 q 1172 382 1193 360 q 1120 417 1150 404 q 1057 429 1090 429 l 353 429 q 250 450 299 429 q 165 507 201 471 q 107 592 128 543 q 86 696 86 640 q 107 801 86 751 q 164 886 128 850 q 249 944 200 922 q 353 965 297 965 l 1271 965 l 1271 860 l 353 860 q 290 847 318 860 q 240 812 261 833 q 206 761 218 790 q 192 699 193 732 q 242 582 197 629 q 353 535 286 535 l 1057 535 q 1161 514 1113 535 q 1246 457 1210 493 q 1303 372 1282 421 q 1324 268 1324 324 q 1303 164 1324 213 q 1246 78 1282 115 q 1161 21 1210 42 q 1057 0 1113 0 z "},"ј":{"ha":1472,"x_min":139,"x_max":1322,"o":"m 311 963 l 1322 963 l 1322 394 q 1291 241 1322 313 q 1206 115 1260 169 q 1081 31 1153 63 q 928 0 1010 0 l 535 0 q 380 31 451 0 q 256 115 308 63 q 170 241 201 169 q 139 394 139 313 l 139 476 l 244 476 l 244 394 q 267 283 244 336 q 329 191 290 231 q 420 128 368 151 q 532 106 472 106 l 928 106 q 1039 128 986 106 q 1131 190 1092 151 q 1194 281 1171 229 q 1217 392 1217 333 l 1217 857 l 311 857 l 311 963 z "},"ї":{"ha":646,"x_min":64,"x_max":586,"o":"m 64 1097 l 64 1222 l 183 1222 l 183 1097 l 64 1097 m 467 1097 l 467 1222 l 586 1222 l 586 1097 l 467 1097 z "},"Ќ":{"ha":1444,"x_min":139,"x_max":1347,"o":"m 1347 832 q 1292 632 1347 722 q 1149 490 1238 542 q 1292 347 1238 438 q 1347 147 1347 257 l 1347 0 l 1242 0 l 1242 147 q 1219 260 1242 207 q 1156 351 1196 313 q 1064 413 1117 390 q 951 436 1011 436 l 244 436 l 244 0 l 139 0 l 139 974 l 244 974 l 244 543 l 951 543 q 1064 566 1011 543 q 1156 628 1117 589 q 1219 720 1196 668 q 1242 832 1242 772 l 1242 974 l 1347 974 l 1347 832 l 1347 832 m 892 1247 l 628 985 l 553 1060 l 817 1322 l 892 1247 z "},"н":{"ha":1410,"x_min":139,"x_max":1319,"o":"m 1319 963 l 1319 0 l 1213 0 l 1213 465 l 244 465 l 244 0 l 139 0 l 139 963 l 244 963 l 244 571 l 1213 571 l 1213 963 l 1319 963 z "},"Æ":{"ha":2963,"x_min":139,"x_max":2833,"o":"m 1282 847 q 1366 722 1335 793 q 1397 568 1397 650 l 1397 0 l 1292 0 l 1292 442 l 244 442 l 244 0 l 139 0 l 139 568 q 170 722 139 650 q 256 847 201 793 q 381 931 310 900 q 533 963 453 963 l 1003 963 q 1156 931 1085 963 q 1282 847 1228 900 m 1292 547 l 1292 571 q 1269 681 1292 629 q 1206 772 1246 733 q 1114 834 1167 811 q 1003 857 1061 857 l 531 857 q 420 834 472 857 q 329 772 368 811 q 267 680 290 732 q 244 568 244 628 l 244 547 l 1292 547 m 1817 772 q 1754 680 1776 732 q 1732 568 1732 628 l 1732 533 l 2833 533 l 2833 428 l 1732 428 l 1732 392 q 1755 281 1732 333 q 1817 190 1778 229 q 1910 128 1857 151 q 2021 106 1963 106 l 2833 106 l 2833 0 l 2021 0 q 1867 31 1939 0 q 1742 117 1796 63 q 1658 242 1689 171 q 1626 394 1626 314 l 1626 568 q 1658 722 1626 650 q 1743 847 1689 793 q 1869 931 1797 900 q 2021 963 1940 963 l 2833 963 l 2833 857 l 2021 857 q 1909 835 1961 857 q 1817 772 1857 813 z "},"ﬂ":{"ha":2781,"x_min":139,"x_max":2779,"o":"m 329 771 q 267 680 289 732 q 244 567 244 628 l 244 529 l 1282 529 l 1282 424 l 244 424 l 244 0 l 139 0 l 139 567 q 170 722 139 650 q 254 846 201 793 q 380 931 308 900 q 533 963 451 963 l 1344 963 l 1344 857 l 533 857 q 422 834 474 857 q 329 771 369 811 m 1679 963 l 1679 396 q 1701 283 1679 335 q 1764 192 1724 231 q 1856 128 1804 151 q 1968 106 1908 106 l 2779 106 l 2779 0 l 1968 0 q 1815 31 1886 0 q 1689 117 1743 63 q 1605 241 1636 169 q 1574 396 1574 313 l 1574 963 l 1679 963 z "},"Ĺ":{"ha":1435,"x_min":139,"x_max":1344,"o":"m 244 963 l 244 396 q 267 283 244 335 q 329 192 289 231 q 422 128 369 151 q 533 106 474 106 l 1344 106 l 1344 0 l 533 0 q 380 31 451 0 q 254 117 308 63 q 170 241 201 169 q 139 396 139 313 l 139 963 l 244 963 m 886 1257 l 622 994 l 547 1069 l 811 1332 l 886 1257 z "},"Ļ":{"ha":1435,"x_min":139,"x_max":1344,"o":"m 244 963 l 244 396 q 267 283 244 335 q 329 192 289 231 q 422 128 369 151 q 533 106 474 106 l 1344 106 l 1344 0 l 533 0 q 380 31 451 0 q 254 117 308 63 q 170 241 201 169 q 139 396 139 313 l 139 963 l 244 963 m 608 -210 l 729 49 l 825 4 l 704 -254 l 608 -210 z "},"ĺ":{"ha":1346,"x_min":139,"x_max":1344,"o":"m 244 963 l 244 396 q 267 283 244 335 q 329 192 289 231 q 422 128 369 151 q 533 106 474 106 l 1344 106 l 1344 0 l 533 0 q 380 31 451 0 q 254 117 308 63 q 170 241 201 169 q 139 396 139 313 l 139 963 l 244 963 m 842 1256 l 578 993 l 503 1068 l 767 1331 l 842 1256 z "},"ļ":{"ha":1346,"x_min":139,"x_max":1344,"o":"m 244 963 l 244 396 q 267 283 244 335 q 329 192 289 231 q 422 128 369 151 q 533 106 474 106 l 1344 106 l 1344 0 l 533 0 q 380 31 451 0 q 254 117 308 63 q 170 241 201 169 q 139 396 139 313 l 139 963 l 244 963 m 564 -210 l 685 49 l 781 4 l 660 -254 l 564 -210 z "},"Ť":{"ha":1432,"x_min":139,"x_max":1342,"o":"m 1342 857 l 793 857 l 793 0 l 688 0 l 688 857 l 139 857 l 139 963 l 1342 963 l 1342 857 m 1110 1340 l 1156 1244 l 715 1036 l 275 1244 l 321 1340 l 715 1153 l 1110 1340 z "},"ť":{"ha":1846,"x_min":139,"x_max":1763,"o":"m 1164 722 l 244 722 l 244 396 q 267 283 244 335 q 329 192 289 231 q 422 128 369 151 q 533 106 474 106 l 1344 106 l 1344 0 l 533 0 q 380 31 451 0 q 254 117 308 63 q 170 241 201 169 q 139 396 139 313 l 139 963 l 244 963 l 244 828 l 1164 828 l 1164 722 m 1560 663 l 1644 972 l 1763 972 l 1678 663 l 1560 663 z "},"«":{"ha":0,"x_min":0,"x_max":0,"o":""},"‹":{"ha":0,"x_min":0,"x_max":0,"o":""},"›":{"ha":0,"x_min":0,"x_max":0,"o":""},"»":{"ha":0,"x_min":0,"x_max":0,"o":""},"®":{"ha":0,"x_min":0,"x_max":0,"o":""},"™":{"ha":2990,"x_min":0,"x_max":0,"o":""},"И":{"ha":1542,"x_min":139,"x_max":1403,"o":"m 415 8 q 335 -10 378 -10 q 266 3 299 -10 q 206 38 233 15 q 161 93 179 61 q 139 164 143 125 l 139 965 l 246 965 l 246 174 q 275 117 249 138 q 333 97 301 97 q 369 104 351 97 q 399 126 386 111 l 1061 907 q 1127 959 1089 943 q 1206 975 1165 975 q 1274 964 1240 975 q 1335 931 1308 953 q 1381 877 1363 908 q 1401 807 1399 846 l 1403 803 l 1403 0 l 1297 0 l 1297 793 q 1268 849 1296 829 q 1208 868 1240 868 q 1172 862 1189 868 q 1143 840 1156 856 l 481 60 q 448 26 461 36 q 415 8 435 17 z "},"З":{"ha":1586,"x_min":139,"x_max":1489,"o":"m 1443 481 q 1481 436 1474 461 q 1489 382 1489 411 l 1489 176 q 1475 123 1486 150 q 1440 68 1464 96 q 1362 15 1406 31 q 1261 0 1318 0 l 371 0 q 338 2 357 0 q 297 9 318 4 q 256 22 276 14 q 218 42 235 29 q 139 208 139 100 l 139 261 l 244 261 l 244 208 q 251 162 246 179 q 276 129 257 144 q 314 111 293 115 q 354 106 335 107 l 1261 106 q 1308 110 1289 106 q 1339 121 1326 114 q 1369 144 1356 131 q 1383 182 1383 158 l 1383 381 q 1363 418 1383 408 q 1319 428 1342 428 l 326 428 l 326 535 l 1321 535 q 1361 547 1339 535 q 1383 582 1383 558 l 1383 776 q 1342 835 1375 814 q 1271 857 1308 857 l 356 857 q 316 851 338 857 q 279 835 294 846 q 251 799 258 819 q 244 754 244 779 l 244 701 l 139 701 l 139 760 q 158 850 139 808 q 213 919 176 892 q 288 953 244 943 q 371 963 331 963 l 1263 963 q 1345 947 1306 961 q 1415 910 1385 933 q 1465 855 1446 886 q 1489 788 1485 824 l 1489 569 q 1484 538 1488 550 q 1475 517 1481 526 q 1461 500 1469 508 q 1443 481 1453 492 z "},"я":{"ha":1556,"x_min":119,"x_max":1451,"o":"m 232 460 q 163 553 188 500 q 139 668 139 607 q 177 809 139 744 q 278 914 215 874 q 358 950 314 938 q 449 963 401 963 l 1451 963 l 1451 0 l 1346 0 l 1346 374 l 531 374 l 251 0 l 119 0 l 401 378 q 232 460 301 393 m 1346 857 l 449 857 q 372 842 408 857 q 306 803 335 828 q 261 743 278 778 q 244 668 244 708 q 261 594 244 628 q 305 534 278 560 q 368 494 332 508 q 443 479 404 479 l 1346 479 l 1346 857 z "},"ь":{"ha":1564,"x_min":139,"x_max":1453,"o":"m 246 589 l 1143 589 q 1260 566 1204 589 q 1359 503 1317 543 q 1427 410 1401 464 q 1453 294 1453 356 q 1428 181 1453 235 q 1361 88 1403 128 q 1265 24 1319 47 q 1150 0 1210 0 l 139 0 l 139 963 l 246 963 l 246 589 m 246 483 l 246 106 l 1143 106 q 1220 120 1183 106 q 1285 160 1257 135 q 1329 220 1313 186 q 1347 294 1346 254 q 1329 368 1346 333 q 1285 428 1313 403 q 1222 469 1258 454 q 1146 483 1186 483 l 246 483 z "},"Ь":{"ha":1543,"x_min":139,"x_max":1453,"o":"m 246 589 l 1143 589 q 1260 566 1204 589 q 1359 503 1317 543 q 1427 410 1401 464 q 1453 294 1453 356 q 1428 181 1453 235 q 1361 88 1403 128 q 1265 24 1319 47 q 1150 0 1210 0 l 139 0 l 139 963 l 246 963 l 246 589 m 246 483 l 246 106 l 1143 106 q 1220 120 1183 106 q 1285 160 1257 135 q 1329 220 1313 186 q 1347 294 1346 254 q 1329 368 1346 333 q 1285 428 1313 403 q 1222 469 1258 454 q 1146 483 1186 483 l 246 483 z "},"Ы":{"ha":1721,"x_min":139,"x_max":1619,"o":"m 246 589 l 1143 589 q 1260 566 1204 589 q 1359 503 1317 543 q 1427 410 1401 464 q 1453 294 1453 356 q 1428 181 1453 235 q 1361 88 1403 128 q 1265 24 1319 47 q 1150 0 1210 0 l 139 0 l 139 963 l 246 963 l 246 589 m 246 483 l 246 106 l 1143 106 q 1220 120 1183 106 q 1285 160 1257 135 q 1329 220 1313 186 q 1347 294 1346 254 q 1329 368 1346 333 q 1285 428 1313 403 q 1222 469 1258 454 q 1146 483 1186 483 l 246 483 m 1514 0 l 1514 963 l 1619 963 l 1619 0 l 1514 0 z "},"Г":{"ha":1193,"x_min":139,"x_max":1247,"o":"m 139 0 l 139 568 q 170 721 139 649 q 255 847 201 793 q 380 931 308 900 q 533 963 451 963 l 1247 963 l 1247 857 l 533 857 q 422 834 474 857 q 330 772 369 811 q 267 680 290 732 q 244 568 244 628 l 244 0 l 139 0 z "},"Й":{"ha":1542,"x_min":139,"x_max":1403,"o":"m 415 8 q 335 -10 378 -10 q 266 3 299 -10 q 206 38 233 15 q 161 93 179 61 q 139 164 143 125 l 139 965 l 246 965 l 246 174 q 275 117 249 138 q 333 97 301 97 q 369 104 351 97 q 399 126 386 111 l 1061 907 q 1127 959 1089 943 q 1206 975 1165 975 q 1274 964 1240 975 q 1335 931 1308 953 q 1381 877 1363 908 q 1401 807 1399 846 l 1403 803 l 1403 0 l 1297 0 l 1297 793 q 1268 849 1296 829 q 1208 868 1240 868 q 1172 862 1189 868 q 1143 840 1156 856 l 481 60 q 448 26 461 36 q 415 8 435 17 m 488 1158 l 488 1140 q 515 1073 488 1100 q 582 1046 542 1046 l 815 1046 q 883 1073 854 1046 q 911 1140 911 1100 l 911 1158 l 993 1158 l 993 1140 q 979 1072 993 1104 q 941 1016 965 1040 q 885 978 917 992 q 815 964 853 964 l 582 964 q 457 1015 508 964 q 419 1072 433 1039 q 406 1140 406 1104 l 406 1158 l 488 1158 z "},"\"":{"ha":507,"x_min":126,"x_max":429,"o":"m 126 708 l 126 963 l 235 963 l 235 708 l 126 708 m 321 708 l 321 963 l 429 963 l 429 708 l 321 708 z "},"!":{"ha":540,"x_min":222,"x_max":328,"o":"m 328 972 l 328 292 l 222 292 l 222 972 l 328 972 m 328 172 l 328 0 l 222 0 l 222 172 l 328 172 z "}}}
